<svg width="106" height="34" viewBox="0 0 106 34" fill="none" xmlns="http://www.w3.org/2000/svg">
<path d="M1.69901 26.9402L0.732919 6.1126C1.86706 5.95988 2.88272 5.8427 3.7799 5.76104C4.69613 5.65847 5.54337 5.57913 6.3216 5.52301C7.09891 5.44691 7.8272 5.39311 8.50647 5.3616C10.3845 5.27449 11.9012 5.38433 13.0566 5.69112C14.2112 5.97793 15.0558 6.48935 15.5904 7.22537C16.1442 7.94048 16.4493 8.90738 16.5058 10.1261C16.5586 11.2648 16.3443 12.2558 15.8629 13.0991C15.3805 13.9223 14.6396 14.5673 13.6402 15.0341L13.6429 15.0941C14.9764 15.3525 16.0344 15.9341 16.8172 16.8388C17.6 17.7436 18.0228 18.8752 18.0859 20.2337C18.1378 21.3525 18.0224 22.3189 17.7398 23.1329C17.4572 23.9468 16.9879 24.6193 16.3318 25.1503C15.6757 25.6812 14.7938 26.0925 13.6861 26.3842C12.5984 26.6749 11.2355 26.8582 9.59722 26.9342C9.03782 26.9602 8.5279 26.9738 8.06747 26.9752C7.60796 26.9965 7.17796 27.0064 6.77747 27.005C6.37789 27.0235 5.93744 27.0239 5.4561 27.0062C4.99567 27.0075 4.46485 27.0021 3.86364 26.99C3.26243 26.9778 2.54089 26.9612 1.69901 26.9402ZM5.30434 14.67L10.0093 14.4517C10.5687 14.4258 11.0526 14.2832 11.461 14.024C11.8894 13.7639 12.2033 13.4089 12.4027 12.9592C12.622 12.5086 12.7188 12.0036 12.6928 11.4442C12.6613 10.7649 12.4955 10.212 12.1954 9.78542C11.9153 9.35794 11.4709 9.05821 10.8623 8.88623C10.2737 8.71332 9.47989 8.65003 8.48096 8.69636C8.22124 8.70841 7.9815 8.71953 7.76173 8.72973C7.56195 8.73899 7.37262 8.75779 7.19374 8.7861C7.01393 8.79444 6.8246 8.81324 6.62574 8.84248C6.42595 8.85175 6.19666 8.8724 5.93787 8.90442C5.69905 8.93552 5.40077 8.97939 5.04301 9.03603L5.30434 14.67ZM5.71858 23.6004C6.13905 23.6009 6.52003 23.6132 6.86152 23.6375C7.20208 23.6417 7.50269 23.6478 7.76333 23.6557C8.04303 23.6427 8.30322 23.6407 8.54389 23.6495C8.78363 23.6384 9.01338 23.6277 9.23315 23.6175C10.4319 23.5619 11.3662 23.4185 12.0362 23.1872C12.7253 22.935 13.199 22.5727 13.4574 22.1002C13.7357 21.6268 13.8573 21.0105 13.8221 20.2513C13.7776 19.2923 13.4546 18.5865 12.8529 18.1339C12.2504 17.6613 11.3498 17.4528 10.1511 17.5084L5.44612 17.7267L5.71858 23.6004ZM25.3184 26.205C24.3794 26.2486 23.5524 26.1167 22.8374 25.8095C22.1224 25.5023 21.5589 25.0079 21.1468 24.3263C20.7348 23.6446 20.5042 22.7744 20.4551 21.7155L19.9074 9.90822L23.8931 9.72334L24.3977 20.6016C24.433 21.3608 24.6496 21.9314 25.0477 22.3134C25.4649 22.6744 26.0331 22.8383 26.7524 22.8049C27.1519 22.7864 27.5297 22.7288 27.8856 22.6322C28.2415 22.5356 28.596 22.4091 28.9491 22.2525C29.3013 22.076 29.6726 21.8786 30.0629 21.6603L29.4971 9.4634L33.4828 9.27852L34.0277 21.0259C34.0435 21.3655 34.086 21.6338 34.1552 21.8309C34.2444 22.0269 34.3612 22.1717 34.5057 22.2651C34.6492 22.3385 34.8109 22.371 34.9907 22.3627C35.2305 22.3516 35.4679 22.2905 35.703 22.1795L36.1647 25.0112C35.9514 25.1612 35.7072 25.2927 35.4322 25.4055C35.1571 25.5184 34.8512 25.6127 34.5143 25.6884C34.1974 25.7631 33.8592 25.8088 33.4996 25.8255C32.8403 25.8561 32.2744 25.7422 31.8019 25.4838C31.3285 25.2055 30.9494 24.8026 30.6647 24.2752C30.1011 24.6417 29.5356 24.9683 28.9683 25.2549C28.4009 25.5415 27.8204 25.7586 27.2266 25.9063C26.6337 26.0739 25.9976 26.1735 25.3184 26.205ZM43.5795 25.358C42.5406 25.4061 41.6523 25.2471 40.9145 24.8809C40.1968 24.5138 39.6391 23.929 39.2415 23.1266C38.8638 22.3232 38.6454 21.2822 38.586 20.0036L38.2135 11.9722L35.7262 12.0876L35.6039 9.45043L38.0787 9.06534L38.3914 5.44697L41.8976 5.28433L42.0644 8.88046L46.6495 8.66779L46.7857 11.6046L42.2006 11.8173L42.5565 19.4891C42.5991 20.4081 42.799 21.0495 43.1563 21.4133C43.5135 21.7772 44.0518 21.9424 44.771 21.909C45.1706 21.8905 45.5787 21.8415 45.9955 21.7622C46.4113 21.6628 46.8462 21.5425 47.3002 21.4013L47.98 24.403C47.1938 24.7198 46.4235 24.9457 45.6689 25.0808C44.9353 25.235 44.2388 25.3274 43.5795 25.358ZM55.6076 24.8C54.5687 24.8482 53.6804 24.6892 52.9426 24.323C52.2248 23.9559 51.6671 23.3711 51.2695 22.5686C50.8919 21.7653 50.6734 20.7243 50.6141 19.4457L50.2416 11.4143L47.7543 11.5297L47.6319 8.8925L50.1068 8.50742L50.4194 4.88904L53.9257 4.72641L54.0925 8.32254L58.6775 8.10986L58.8138 11.0467L54.2287 11.2594L54.5846 18.9311C54.6272 19.8501 54.8271 20.4916 55.1844 20.8554C55.5416 21.2192 56.0798 21.3845 56.7991 21.3511C57.1986 21.3326 57.6068 21.2836 58.0236 21.2042C58.4394 21.1049 58.8743 20.9846 59.3283 20.8434L60.0081 23.8451C59.2219 24.1619 58.4515 24.3878 57.697 24.5229C56.9634 24.6771 56.2669 24.7695 55.6076 24.8ZM68.3341 24.2097C67.1154 24.2662 66.0296 24.1664 65.0767 23.9103C64.1229 23.6342 63.3015 23.1918 62.6125 22.5831C61.9427 21.9534 61.4147 21.147 61.0288 20.1639C60.6618 19.1598 60.4459 17.9585 60.3811 16.56C60.306 14.9417 60.4323 13.5644 60.76 12.428C61.1068 11.2707 61.624 10.3357 62.3117 9.6231C62.9985 8.89049 63.8144 8.3521 64.7595 8.00794C65.7037 7.6438 66.7451 7.43532 67.8839 7.3825C70.1415 7.27778 71.8261 7.77025 72.9378 8.85991C74.0694 9.94865 74.695 11.7816 74.8146 14.3589C74.8229 14.5387 74.8336 14.7684 74.8466 15.0481C74.8595 15.3278 74.8521 15.5985 74.8242 15.86C74.3665 15.9213 73.7794 15.9986 73.063 16.0919C72.3466 16.1852 71.5402 16.2826 70.644 16.3843C69.7477 16.4859 68.7811 16.5808 67.744 16.669C66.707 16.7571 65.64 16.8466 64.543 16.9376C64.5258 16.9984 64.5191 17.0688 64.5228 17.1487C64.5265 17.2286 64.5302 17.3086 64.5339 17.3885C64.5765 18.3075 64.7607 19.0397 65.0863 19.5852C65.431 20.1098 65.9195 20.4976 66.5518 20.7486C67.1832 20.9796 67.9683 21.0733 68.9073 21.0297C69.5067 21.0019 70.1146 20.9437 70.7312 20.855C71.3668 20.7455 71.992 20.6264 72.6067 20.4978C73.2404 20.3482 73.8537 20.1896 74.4466 20.022L75.0623 22.9366C74.4323 23.166 73.7613 23.3773 73.0495 23.5705C72.3368 23.7437 71.5922 23.8784 70.8158 23.9745C70.0404 24.0905 69.2131 24.1689 68.3341 24.2097ZM64.4535 14.3589C65.1527 14.3265 65.8215 14.2855 66.4599 14.2358C67.1173 14.1653 67.7353 14.1066 68.3137 14.0598C68.8913 13.9929 69.3893 13.9398 69.808 13.9003C70.2257 13.8409 70.5539 13.7957 70.7927 13.7646C70.732 12.8864 70.5792 12.1828 70.3344 11.6535C70.1096 11.1234 69.7719 10.7486 69.3212 10.5293C68.8906 10.309 68.3556 10.2137 67.7163 10.2433C67.3167 10.2619 66.9299 10.3399 66.5559 10.4774C66.1818 10.6148 65.8419 10.8408 65.5362 11.1553C65.2304 11.4698 64.9792 11.8819 64.7827 12.3916C64.606 12.9003 64.4963 13.5561 64.4535 14.3589ZM80.6011 7.09293L80.69 9.01087C81.2254 8.46548 81.7253 8.02184 82.19 7.67994C82.6737 7.31714 83.162 7.05423 83.655 6.89121C84.167 6.70729 84.7028 6.60236 85.2622 6.57641C85.6218 6.55973 85.9828 6.57301 86.3452 6.61627C86.7266 6.63862 87.0999 6.70139 87.4651 6.80458L87.0026 10.4299C86.6393 10.3667 86.2669 10.3239 85.8854 10.3015C85.523 10.2583 85.182 10.2441 84.8624 10.2589C84.283 10.2858 83.6887 10.4234 83.0796 10.6719C82.4704 10.9204 81.8387 11.3301 81.1845 11.9011L81.7127 23.2888L77.727 23.4737L76.975 7.26113L80.6011 7.09293ZM93.7539 29.007L95.4712 22.6506L94.7819 22.6826L88.0078 6.77941L92.3789 6.48655L96.9665 19.2777L100.081 6.12931L104.19 6.02877L97.8636 28.9065L93.7539 29.007Z" fill="#FFF0E0"/>
</svg>
