<svg width="183" height="55" viewBox="0 0 183 55" fill="none" xmlns="http://www.w3.org/2000/svg">
<path d="M2.20045 43.9643C1.75096 41.3628 1.7512 39.191 2.20116 37.449C2.65113 35.707 3.53245 34.347 4.84514 33.3693C6.17413 32.3684 7.91271 31.6823 10.0609 31.3112C10.7112 31.1988 11.3059 31.1163 11.8448 31.0638C12.4 30.9882 12.921 30.9489 13.4076 30.946C13.9105 30.92 14.3988 30.927 14.8725 30.9669C15.3428 30.9871 15.8264 31.0253 16.3232 31.0816L16.0574 34.4764C15.4586 34.4175 14.8765 34.3963 14.311 34.4128C13.7422 34.4096 13.1883 34.4343 12.6494 34.4868C12.1302 34.5359 11.5946 34.6082 11.0428 34.7035C10.018 34.8806 9.14341 35.1636 8.41907 35.5526C7.71444 35.9382 7.16685 36.4692 6.77631 37.1456C6.38236 37.8023 6.15057 38.6339 6.08093 39.6404C6.01129 40.647 6.09565 41.84 6.33402 43.2196C6.55876 44.5203 6.866 45.5937 7.25573 46.4397C7.64206 47.266 8.11939 47.9142 8.68773 48.3843C9.27237 48.8312 9.94972 49.11 10.7198 49.2205C11.4898 49.331 12.3676 49.3011 13.353 49.1308C14.2595 48.9742 15.1953 48.7516 16.1603 48.4631C17.1415 48.1515 18.0256 47.8059 18.8125 47.4264L20.0736 50.4965C19.6279 50.7359 19.159 50.959 18.667 51.1658C18.1948 51.3692 17.6797 51.5596 17.1218 51.7372C16.5639 51.9148 15.973 52.0778 15.3491 52.2262C14.7287 52.3943 14.044 52.543 13.2951 52.6724C11.7776 52.9346 10.4051 52.9789 9.17764 52.8054C7.95017 52.6319 6.87417 52.219 5.94964 51.5669C5.0217 50.8951 4.24658 49.933 3.62427 48.6807C3.00196 47.4284 2.52735 45.8562 2.20045 43.9643ZM26.6202 50.37C25.6939 50.5301 24.8569 50.5022 24.1093 50.2863C23.3616 50.0705 22.7409 49.65 22.2473 49.0249C21.7537 48.3998 21.4166 47.565 21.2361 46.5205L19.2236 34.8731L23.1554 34.1938L25.0095 44.9248C25.1389 45.6737 25.4249 46.2128 25.8675 46.5423C26.3263 46.8486 26.9105 46.9405 27.62 46.8179C28.0141 46.7498 28.3818 46.6457 28.7229 46.5056C29.064 46.3655 29.4 46.1958 29.7309 45.9965C30.0585 45.7776 30.4023 45.5355 30.7624 45.2703L28.6835 33.2386L32.6152 32.5592L34.6175 44.1475C34.6754 44.4826 34.7509 44.7435 34.8441 44.9304C34.957 45.1138 35.0909 45.2429 35.2459 45.3176C35.3975 45.3726 35.5619 45.3848 35.7393 45.3542C35.9758 45.3133 36.2038 45.2232 36.4233 45.0838L37.2337 47.836C37.0407 48.0114 36.8148 48.1722 36.5559 48.3184C36.297 48.4646 36.0052 48.5962 35.6804 48.7132C35.3753 48.8268 35.0453 48.9143 34.6906 48.9756C34.0402 49.088 33.4646 49.0454 32.9636 48.8478C32.4592 48.6305 32.033 48.2779 31.6848 47.79C31.1712 48.2238 30.6508 48.6182 30.1235 48.9732C29.5962 49.3281 29.0472 49.6158 28.4764 49.8362C27.909 50.0763 27.2902 50.2543 26.6202 50.37ZM38.0827 47.4457L38.0551 44.4669C38.4303 44.5239 38.8449 44.574 39.2989 44.6173C39.7495 44.641 40.2181 44.6513 40.7047 44.6484C41.211 44.6421 41.7041 44.6178 42.1839 44.5755C42.6637 44.5332 43.1105 44.4763 43.5244 44.4048C44.4704 44.2413 45.1363 43.9842 45.5222 43.6334C45.9047 43.2628 46.0466 42.7918 45.9478 42.2203C45.8933 41.9049 45.7587 41.6542 45.5439 41.4681C45.3453 41.2588 45.0551 41.106 44.6731 41.0096C44.3074 40.8902 43.8564 40.8057 43.3202 40.7563C42.8003 40.6837 42.2015 40.6248 41.5239 40.5795C40.8069 40.5411 40.17 40.438 39.6133 40.2703C39.0533 40.0829 38.5536 39.8344 38.1145 39.5246C37.695 39.2115 37.3541 38.8239 37.0916 38.3618C36.8488 37.8964 36.6729 37.3483 36.5639 36.7176C36.2813 35.0819 36.5989 33.7483 37.5167 32.717C38.4345 31.6857 39.9379 30.9896 42.027 30.6286C42.6773 30.5162 43.2951 30.4501 43.8802 30.4302C44.462 30.3905 45.0193 30.3856 45.5521 30.4153C46.1013 30.4219 46.6062 30.4666 47.067 30.5493L47.0753 33.5923C46.6179 33.5293 46.1639 33.486 45.7133 33.4623C45.2627 33.4387 44.776 33.4416 44.2534 33.471C43.7505 33.497 43.1837 33.5645 42.5531 33.6735C41.7056 33.8199 41.089 34.0685 40.703 34.4194C40.3137 34.7505 40.1651 35.1821 40.257 35.7142C40.3115 36.0295 40.4363 36.282 40.6314 36.4715C40.8231 36.6414 41.0787 36.7697 41.3982 36.8566C41.7176 36.9435 42.1044 37.0086 42.5584 37.0519C43.0124 37.0952 43.5156 37.1301 44.0682 37.1564C44.828 37.2077 45.5257 37.3105 46.1612 37.4645C46.7933 37.5988 47.347 37.8076 47.8221 38.0909C48.317 38.3707 48.7303 38.7661 49.0622 39.277C49.4103 39.7649 49.6508 40.3931 49.7836 41.1617C49.9096 41.8909 49.9037 42.5617 49.766 43.1741C49.6445 43.7634 49.4109 44.2909 49.0652 44.7565C48.7194 45.2222 48.2928 45.6308 47.7852 45.9824C47.2742 46.3142 46.6939 46.5971 46.0443 46.8312C45.3947 47.0652 44.7052 47.2452 43.976 47.3712C43.2666 47.4938 42.5798 47.5719 41.9158 47.6054C41.2553 47.6586 40.5977 47.6708 39.9432 47.6418C39.3084 47.6094 38.6883 47.544 38.0827 47.4457ZM58.2891 44.8981C57.2643 45.0752 56.3631 45.0279 55.5855 44.7564C54.8276 44.4814 54.2015 43.9705 53.7071 43.2238C53.2325 42.4737 52.8862 41.4679 52.6683 40.2066L51.2994 32.284L48.8457 32.708L48.3962 30.1065L50.8039 29.4165L50.6639 25.7874L54.1227 25.1897L54.7356 28.7372L59.2586 27.9557L59.7592 30.8527L55.2362 31.6342L56.5438 39.2021C56.7005 40.1087 56.9787 40.7202 57.3784 41.0368C57.7781 41.3534 58.3327 41.4504 59.0422 41.3278C59.4364 41.2597 59.8353 41.1603 60.2389 41.0297C60.6392 40.8793 61.0557 40.7059 61.4886 40.5093L62.5366 43.4031C61.7959 43.8152 61.0597 44.1353 60.3278 44.3632C59.619 44.6074 58.9395 44.7857 58.2891 44.8981ZM61.9288 35.7143C61.6938 34.3545 61.606 33.1417 61.6655 32.076C61.7446 31.007 62.0005 30.0798 62.4331 29.2947C62.8855 28.5062 63.5638 27.8511 64.4682 27.3295C65.3692 26.7882 66.5292 26.395 67.9482 26.1498C69.3869 25.9012 70.6115 25.8824 71.6222 26.0934C72.6492 26.2813 73.5081 26.6708 74.1988 27.2618C74.8895 27.8528 75.4416 28.6403 75.8552 29.6243C76.2885 30.6048 76.6226 31.775 76.8576 33.1349C77.0925 34.4947 77.1623 35.7207 77.0669 36.8129C76.9911 37.9017 76.7172 38.8421 76.2452 39.634C75.7731 40.426 75.0948 41.081 74.2101 41.5992C73.3254 42.1174 72.1933 42.4957 70.8137 42.7341C69.4538 42.969 68.2604 42.9926 67.2334 42.8047C66.2262 42.6134 65.3673 42.2239 64.6569 41.6363C63.9662 41.0453 63.3926 40.2513 62.9362 39.2545C62.4996 38.2542 62.1637 37.0742 61.9288 35.7143ZM65.9492 35.0197C66.1773 36.3401 66.4778 37.374 66.8505 38.1215C67.2198 38.8492 67.6896 39.3364 68.2599 39.5829C68.8302 39.8294 69.5095 39.8845 70.2978 39.7483C71.1255 39.6053 71.7568 39.3237 72.1916 38.9035C72.6461 38.48 72.9154 37.8651 72.9994 37.0591C73.0997 36.2299 73.0357 35.1551 72.8076 33.8346C72.5794 32.5142 72.2905 31.4884 71.941 30.7573C71.6111 30.0227 71.161 29.5322 70.5907 29.2857C70.0401 29.0358 69.3312 28.9857 68.4641 29.1356C67.6166 29.282 66.9657 29.567 66.5111 29.9906C66.0763 30.4107 65.8169 31.0238 65.7329 31.8299C65.649 32.636 65.721 33.6992 65.9492 35.0197ZM80.7068 40.7202L77.9434 24.7272L81.5204 24.1092L81.7605 25.4986C82.2673 25.0254 82.7762 24.6229 83.2872 24.291C83.7981 23.9592 84.3193 23.6865 84.8507 23.4729C85.3984 23.2362 85.958 23.0684 86.5295 22.9697C87.1405 22.8641 87.6845 22.8411 88.1616 22.9008C88.6387 22.9604 89.0588 23.1009 89.4218 23.3224C89.8011 23.5207 90.1332 23.7982 90.4181 24.1549C90.9643 23.6749 91.4994 23.2475 92.0233 22.8729C92.5471 22.4982 93.1026 22.1891 93.6897 21.9456C94.2734 21.6824 94.9102 21.4912 95.5999 21.372C96.1912 21.2698 96.7271 21.2584 97.2076 21.3378C97.7044 21.394 98.1442 21.5311 98.5269 21.7492C98.9293 21.9638 99.2713 22.2396 99.5527 22.5766C99.8342 22.9136 100.063 23.3002 100.24 23.7364C100.417 24.1727 100.55 24.647 100.638 25.1594L102.671 36.9251L98.7396 37.6045L96.9212 27.0804C96.8667 26.7651 96.7745 26.4664 96.6446 26.1844C96.5344 25.899 96.3817 25.6615 96.1866 25.472C96.0078 25.2593 95.7702 25.1177 95.4738 25.0471C95.1741 24.9568 94.8074 24.9492 94.3738 25.0241C93.9994 25.0888 93.6335 25.2027 93.276 25.366C92.9383 25.5258 92.6139 25.7037 92.3027 25.8995C92.0112 26.0919 91.7329 26.3024 91.468 26.5308C91.5611 26.7177 91.6346 26.908 91.6884 27.1016C91.7421 27.2953 91.7843 27.4808 91.815 27.6582L93.6845 38.4779L89.7527 39.1572L87.9343 28.6332C87.8832 28.3376 87.7927 28.0488 87.6628 27.7668C87.5526 27.4813 87.4 27.2439 87.2048 27.0543C87.0063 26.8451 86.7589 26.7052 86.4625 26.6346C86.1628 26.5443 85.806 26.5349 85.3921 26.6064C85.0374 26.6677 84.6993 26.7667 84.3779 26.9034C84.0762 27.0368 83.7697 27.2013 83.4585 27.3972C83.167 27.5896 82.8708 27.8133 82.5698 28.0683L84.6385 40.0409L80.7068 40.7202ZM104.56 17.784C103.733 17.927 103.104 17.8732 102.675 17.6226C102.263 17.3488 101.997 16.8671 101.878 16.1773C101.755 15.4678 101.844 14.9248 102.144 14.5481C102.464 14.1681 103.038 13.9066 103.866 13.7636C104.693 13.6206 105.312 13.6761 105.721 13.9301C106.15 14.1807 106.426 14.6608 106.548 15.3703C106.668 16.06 106.569 16.6048 106.252 17.0045C105.952 17.3812 105.388 17.641 104.56 17.784ZM105.736 36.3955L102.973 20.4025L106.905 19.7232L109.668 35.7162L105.736 36.3955ZM111.983 35.3162L111.508 32.5669L117.993 20.943L110.012 22.3221L109.486 19.2772L122.227 17.0757L122.697 19.7954L116.3 31.4041L124.932 29.9126L125.463 32.987L111.983 35.3162ZM125.985 28.6043C125.814 27.6189 125.864 26.7883 126.132 26.1127C126.398 25.4173 126.884 24.8259 127.592 24.3383C128.315 23.8277 129.241 23.3733 130.37 22.9754C131.515 22.5543 132.866 22.1484 134.422 21.7577L134.167 20.2796C134.044 19.5701 133.688 19.0938 133.098 18.8507C132.504 18.5879 131.705 18.5434 130.7 18.717C130.286 18.7885 129.826 18.8883 129.321 19.0162C128.815 19.1442 128.295 19.3051 127.76 19.499C127.225 19.6929 126.688 19.9279 126.147 20.204L124.925 17.1879C125.768 16.7785 126.668 16.4098 127.626 16.0819C128.604 15.7505 129.527 15.51 130.394 15.3601C131.951 15.0911 133.268 15.0767 134.344 15.3169C135.417 15.5374 136.26 16.0108 136.873 16.7371C137.502 17.4403 137.918 18.3831 138.123 19.5656L139.226 25.951C139.321 26.5028 139.465 26.8636 139.657 27.0335C139.848 27.2033 140.063 27.2678 140.299 27.2269C140.398 27.2099 140.514 27.1796 140.649 27.1361C140.783 27.0925 140.904 27.031 141.013 26.9514L141.833 29.7627C141.532 30.0177 141.175 30.2418 140.762 30.4349C140.352 30.6478 139.901 30.7968 139.408 30.8819C138.62 31.0182 137.962 30.9695 137.435 30.7359C136.904 30.4826 136.472 30.0396 136.139 29.407C135.711 29.8666 135.249 30.3017 134.751 30.7124C134.251 31.1033 133.699 31.4321 133.095 31.6988C132.495 31.9851 131.811 32.1947 131.042 32.3275C130.392 32.4398 129.793 32.4418 129.247 32.3332C128.701 32.2247 128.198 32.0172 127.739 31.7109C127.297 31.3814 126.919 30.9595 126.607 30.4451C126.315 29.9274 126.107 29.3137 125.985 28.6043ZM129.929 27.6486C130.049 28.3384 130.296 28.8334 130.673 29.1337C131.066 29.4108 131.538 29.5017 132.09 29.4064C132.504 29.3349 132.906 29.1944 133.296 28.9849C133.706 28.7721 134.089 28.5232 134.446 28.2383C134.819 27.9303 135.126 27.5931 135.367 27.2267L134.8 23.9453C133.959 24.1311 133.214 24.3411 132.565 24.5751C131.935 24.8057 131.4 25.0604 130.961 25.3392C130.542 25.6146 130.243 25.9403 130.065 26.3162C129.886 26.6921 129.841 27.1362 129.929 27.6486ZM143.444 29.3931L139.746 7.99019L143.678 7.31084L144.914 14.4648C145.65 13.7897 146.39 13.2559 147.134 12.8635C147.897 12.4677 148.683 12.2 149.491 12.0604C151.285 11.7505 152.76 12.1856 153.918 13.3657C155.096 14.5424 155.908 16.4216 156.354 19.0033C156.708 21.053 156.72 22.766 156.389 24.1423C156.059 25.5187 155.363 26.603 154.303 27.3951C153.242 28.1873 151.785 28.7434 149.933 29.0635C149.026 29.2201 148.029 29.3214 146.941 29.3673C145.853 29.4133 144.687 29.4218 143.444 29.3931ZM146.962 26.3192C147.472 26.3326 147.939 26.3331 148.363 26.3207C148.787 26.3083 149.186 26.2698 149.561 26.2051C150.428 26.0553 151.097 25.757 151.568 25.3103C152.058 24.8602 152.362 24.209 152.478 23.3567C152.611 22.4813 152.56 21.3637 152.325 20.0039C152.128 18.8608 151.859 17.9532 151.52 17.2812C151.181 16.6092 150.763 16.1333 150.269 15.8534C149.793 15.5702 149.24 15.4831 148.61 15.592C148.255 15.6533 147.907 15.754 147.566 15.8942C147.225 16.0343 146.881 16.2155 146.534 16.4379C146.186 16.6603 145.81 16.9486 145.404 17.3028L146.962 26.3192ZM160.393 4.4227L163.279 21.1252C163.378 21.6967 163.514 22.13 163.686 22.4249C163.875 22.6966 164.087 22.8631 164.321 22.9242C164.574 22.9818 164.839 22.9868 165.115 22.9392C165.312 22.9051 165.525 22.8479 165.755 22.7677C165.984 22.6874 166.23 22.584 166.493 22.4575L167.369 25.4115C167.005 25.657 166.587 25.8814 166.115 26.0848C165.643 26.2882 165.121 26.4392 164.549 26.538C163.643 26.6946 162.837 26.6715 162.132 26.4685C161.447 26.2622 160.872 25.8135 160.408 25.1225C159.963 24.428 159.63 23.4403 159.409 22.1593L156.461 5.10205L160.393 4.4227ZM175.638 24.622C174.436 24.8297 173.346 24.8658 172.369 24.7302C171.388 24.5749 170.518 24.2381 169.759 23.7199C169.016 23.1785 168.391 22.444 167.886 21.5165C167.397 20.5659 167.034 19.4008 166.795 18.0212C166.519 16.4249 166.473 15.0425 166.657 13.8742C166.857 12.6827 167.254 11.6907 167.848 10.898C168.438 10.0856 169.181 9.44992 170.076 8.99085C170.967 8.51207 171.974 8.17564 173.098 7.98154C175.325 7.59675 177.058 7.87579 178.296 8.81866C179.555 9.75814 180.403 11.499 180.843 14.0414C180.873 14.2187 180.912 14.4454 180.96 14.7213C181.008 14.9972 181.034 15.2667 181.039 15.5297C180.592 15.6474 180.02 15.7971 179.32 15.9789C178.621 16.1606 177.833 16.3576 176.956 16.57C176.08 16.7823 175.132 16.9967 174.114 17.2132C173.096 17.4297 172.049 17.6513 170.972 17.878C170.962 17.9406 170.964 18.0112 170.978 18.0901C170.992 18.1689 171.005 18.2477 171.019 18.3266C171.175 19.2331 171.449 19.9368 171.84 20.4375C172.247 20.9152 172.78 21.2392 173.439 21.4095C174.094 21.5601 174.885 21.5554 175.811 21.3954C176.403 21.2932 176.999 21.1598 177.599 20.9951C178.216 20.8073 178.822 20.6114 179.416 20.4073C180.026 20.1801 180.615 19.9464 181.182 19.7063L182.156 22.5216C181.559 22.8277 180.92 23.1208 180.237 23.4011C179.552 23.6616 178.83 23.8879 178.071 24.0798C177.316 24.2914 176.505 24.4722 175.638 24.622ZM170.562 15.3306C171.252 15.2114 171.91 15.0875 172.538 14.9588C173.181 14.807 173.787 14.6719 174.355 14.5534C174.92 14.4153 175.407 14.3006 175.818 14.2093C176.225 14.0984 176.545 14.0127 176.778 13.9521C176.609 13.0884 176.369 12.4092 176.061 11.9145C175.772 11.4164 175.39 11.0866 174.915 10.925C174.461 10.76 173.918 10.732 173.287 10.841C172.893 10.9091 172.519 11.0346 172.165 11.2176C171.811 11.4005 171.502 11.6671 171.238 12.0172C170.973 12.3673 170.776 12.8074 170.644 13.3375C170.532 13.8643 170.505 14.5286 170.562 15.3306Z" fill="#FFF0E0"/>
</svg>
