<svg width="123" height="55" viewBox="0 0 123 55" fill="none" xmlns="http://www.w3.org/2000/svg">
<path d="M14.0729 52.234C13.1669 52.4842 12.287 52.7169 11.4335 52.9319C10.5992 53.1416 9.78154 53.3363 8.98049 53.5161C8.17943 53.6958 7.38802 53.873 6.60625 54.0474L0.999077 33.7476C1.84529 33.4308 2.64864 33.1467 3.40911 32.8951C4.18886 32.6382 4.96164 32.3937 5.72744 32.1614C6.49324 31.9291 7.28097 31.7012 8.09065 31.4775C10.3847 30.8438 12.3463 30.6963 13.9752 31.0348C15.5988 31.354 16.9513 32.1943 18.0328 33.5555C19.1282 34.892 20.014 36.7845 20.6903 39.2328C21.3506 41.6233 21.5371 43.6882 21.2498 45.4275C20.9764 47.1421 20.2373 48.5601 19.0323 49.6814C17.8467 50.7974 16.1935 51.6482 14.0729 52.234ZM13.4336 49.0181C14.5518 48.7092 15.4229 48.2196 16.0469 47.5493C16.6849 46.8543 17.0503 45.9235 17.1429 44.7567C17.2356 43.5899 17.0424 42.139 16.5631 40.4039C16.0626 38.5918 15.4731 37.2088 14.7946 36.255C14.1355 35.2959 13.3564 34.6915 12.4575 34.4418C11.5586 34.1922 10.5019 34.2351 9.28736 34.5705C8.94035 34.6664 8.55745 34.7825 8.13866 34.9189C7.73382 35.0308 7.33164 35.1522 6.93213 35.2833C6.55189 35.4091 6.18129 35.5322 5.82033 35.6527L9.75015 49.8799C10.0446 49.8193 10.3488 49.7561 10.6626 49.6901C10.9763 49.6242 11.2901 49.5583 11.6039 49.4924C11.9123 49.4072 12.2234 49.3316 12.5372 49.2657C12.8457 49.1805 13.1445 49.098 13.4336 49.0181ZM32.6886 47.092C31.5126 47.4168 30.4317 47.5598 29.4457 47.5209C28.4544 47.4627 27.5555 47.213 26.7489 46.7718C25.9563 46.3061 25.263 45.6365 24.669 44.7631C24.089 43.8651 23.6126 42.7414 23.2399 41.3919C22.8086 39.8304 22.627 38.4593 22.695 37.2785C22.7771 36.0732 23.0746 35.0469 23.5875 34.1998C24.0952 33.3333 24.7717 32.6277 25.6172 32.083C26.4574 31.5189 27.4269 31.0851 28.5257 30.7816C30.7041 30.1799 32.456 30.2873 33.7812 31.104C35.1258 31.9153 36.1415 33.5644 36.8284 36.0512C36.8764 36.2247 36.9376 36.4464 37.0121 36.7163C37.0867 36.9862 37.1393 37.2518 37.17 37.5131C36.7372 37.6741 36.1818 37.8794 35.5038 38.1289C34.8258 38.3784 34.061 38.6519 33.2094 38.9494C32.3579 39.2469 31.4362 39.5533 30.4444 39.8688C29.4526 40.1842 28.4319 40.5077 27.3822 40.8391C27.3789 40.9022 27.3879 40.9724 27.4092 41.0495C27.4305 41.1266 27.4518 41.2037 27.4731 41.2808C27.7181 42.1676 28.0597 42.841 28.4979 43.3009C28.9502 43.7362 29.5124 44.0063 30.1845 44.1111C30.8514 44.1966 31.6378 44.1143 32.5439 43.864C33.1222 43.7042 33.7022 43.5129 34.2839 43.29C34.8795 43.0425 35.4628 42.788 36.0338 42.5265C36.6187 42.2405 37.1817 41.9501 37.7228 41.6554L38.9683 44.3615C38.4046 44.7247 37.7971 45.0792 37.1457 45.4251C36.4889 45.7518 35.7926 46.0479 35.0567 46.3134C34.3262 46.5981 33.5368 46.8577 32.6886 47.092ZM26.7242 38.3442C27.399 38.1579 28.0421 37.9698 28.6537 37.7802C29.2792 37.5659 29.8688 37.3719 30.4226 37.1982C30.971 37.0052 31.445 36.8432 31.8445 36.7121C32.2387 36.5617 32.5488 36.4449 32.7748 36.3617C32.5212 35.5188 32.2165 34.8664 31.8607 34.4045C31.5241 33.9372 31.1118 33.6465 30.6238 33.5323C30.1551 33.4128 29.6123 33.4382 28.9954 33.6086C28.6098 33.7151 28.2498 33.8768 27.9155 34.0936C27.5812 34.3105 27.2997 34.6061 27.0711 34.9804C26.8426 35.3548 26.6888 35.8123 26.6099 36.3528C26.5502 36.888 26.5883 37.5518 26.7242 38.3442ZM39.5928 21.8424L44.1057 38.1805C44.2601 38.7396 44.4378 39.1574 44.6386 39.4339C44.8534 39.6858 45.0802 39.8306 45.3189 39.8685C45.5768 39.901 45.8408 39.8799 46.1107 39.8054C46.3034 39.7521 46.5102 39.6743 46.7309 39.5718C46.9516 39.4694 47.1862 39.3423 47.4348 39.1906L48.5965 42.0443C48.2589 42.3243 47.8651 42.5887 47.415 42.8375C46.965 43.0863 46.4605 43.2879 45.9014 43.4424C45.0147 43.6873 44.2106 43.7434 43.4892 43.6107C42.7871 43.4726 42.171 43.0826 41.6409 42.4405C41.1301 41.7932 40.7017 40.843 40.3556 39.5899L35.7468 22.9047L39.5928 21.8424ZM47.1588 23.5496C46.3491 23.7732 45.7185 23.7814 45.267 23.5741C44.8295 23.3422 44.5176 22.8889 44.3312 22.2142C44.1395 21.5202 44.1745 20.971 44.4363 20.5667C44.7174 20.1571 45.2628 19.8405 46.0725 19.6168C46.8822 19.3932 47.5031 19.3877 47.9353 19.6003C48.3868 19.8075 48.7084 20.2582 48.9001 20.9522C49.0865 21.6269 49.0418 22.1787 48.766 22.6076C48.5042 23.0119 47.9685 23.3259 47.1588 23.5496ZM50.1576 41.9555L45.8364 26.3113L49.6823 25.249L54.0035 40.8932L50.1576 41.9555ZM54.3118 32.6226C53.8006 30.7719 53.6638 29.1498 53.9013 27.7562C54.1581 26.3573 54.7893 25.1871 55.7949 24.2453C56.8005 23.3036 58.1418 22.6011 59.819 22.1378C60.3974 21.9781 60.9837 21.8473 61.578 21.7453C62.1863 21.6188 62.7833 21.5266 63.369 21.4685C63.9493 21.3912 64.4799 21.3588 64.9605 21.3713L65.3266 24.7248C64.8566 24.7509 64.3823 24.799 63.9036 24.8689C63.4196 24.9196 62.941 24.9896 62.4677 25.0788C62.0136 25.1627 61.5745 25.2633 61.1504 25.3804C60.2251 25.636 59.4949 26.0348 58.9599 26.5768C58.4388 27.0942 58.1156 27.7645 57.9902 28.5876C57.8595 29.3914 57.9486 30.3523 58.2575 31.4705C58.545 32.5115 58.9485 33.3337 59.4679 33.9372C60.0013 34.5161 60.634 34.8912 61.366 35.0625C62.112 35.2092 62.938 35.1574 63.8441 34.9071C64.2875 34.7846 64.7379 34.6498 65.1952 34.5028C65.6665 34.3311 66.1325 34.1401 66.5932 33.9299C67.0538 33.7197 67.5022 33.5024 67.9382 33.2783L69.3632 36.1837C68.6507 36.6088 67.8022 37.0299 66.8177 37.4471C65.8525 37.8589 64.8976 38.1953 63.953 38.4562C61.4661 39.1431 59.4204 39.0235 57.8159 38.0972C56.2253 37.1464 55.0573 35.3215 54.3118 32.6226ZM68.5925 17.6292C67.7828 17.8528 67.1522 17.861 66.7007 17.6538C66.2632 17.4219 65.9513 16.9686 65.7649 16.2938C65.5732 15.5998 65.6082 15.0507 65.8701 14.6464C66.1511 14.2367 66.6965 13.9201 67.5062 13.6965C68.3159 13.4728 68.9368 13.4673 69.369 13.6799C69.8205 13.8872 70.1421 14.3378 70.3338 15.0318C70.5202 15.7066 70.4755 16.2584 70.1997 16.6873C69.9379 17.0916 69.4022 17.4055 68.5925 17.6292ZM71.5913 36.0351L67.2701 20.391L71.1161 19.3286L75.4372 34.9728L71.5913 36.0351ZM75.6816 26.4709C75.3142 25.1407 75.1077 23.9424 75.0621 22.8761C75.0358 21.8044 75.1994 20.8566 75.5528 20.0328C75.9255 19.2036 76.5362 18.4851 77.385 17.8772C78.2285 17.25 79.3442 16.7446 80.7322 16.3613C82.1395 15.9725 83.3564 15.8335 84.383 15.9442C85.4234 16.0303 86.3164 16.3335 87.0618 16.8538C87.8073 17.3741 88.4341 18.1035 88.9423 19.0421C89.4699 19.9753 89.9173 21.107 90.2847 22.4372C90.6522 23.7674 90.842 24.9807 90.8544 26.077C90.886 27.1679 90.7058 28.1306 90.3138 28.9651C89.9219 29.7996 89.3111 30.5181 88.4816 31.1207C87.6521 31.7234 86.5626 32.211 85.2132 32.5838C83.883 32.9512 82.6977 33.0919 81.6572 33.0058C80.636 32.9144 79.743 32.6112 78.9783 32.0962C78.2329 31.5759 77.5841 30.8421 77.032 29.8949C76.4991 28.9424 76.049 27.8011 75.6816 26.4709ZM79.6143 25.3846C79.9711 26.6762 80.3716 27.6757 80.816 28.3829C81.255 29.0708 81.7704 29.5094 82.3621 29.6987C82.9539 29.888 83.6353 29.8761 84.4064 29.6631C85.2161 29.4395 85.8167 29.0972 86.2081 28.6364C86.6188 28.1702 86.8264 27.5319 86.8307 26.7215C86.8491 25.8865 86.6799 24.8231 86.3231 23.5315C85.9663 22.2399 85.5781 21.2474 85.1583 20.5542C84.7579 19.8556 84.2618 19.4116 83.67 19.2223C83.0976 19.0277 82.3872 19.0476 81.539 19.2819C80.71 19.5109 80.0902 19.8584 79.6795 20.3246C79.288 20.7855 79.0901 21.4211 79.0857 22.2315C79.0814 23.0419 79.2576 24.093 79.6143 25.3846ZM99.3943 28.6667C98.4883 28.917 97.6526 28.9714 96.8873 28.8301C96.1221 28.6887 95.4631 28.3313 94.9105 27.7577C94.3578 27.1841 93.9404 26.3865 93.6581 25.3647L90.5111 13.9714L94.3571 12.9091L97.2565 23.406C97.4589 24.1386 97.7964 24.647 98.2692 24.9314C98.7559 25.1912 99.3463 25.2253 100.04 25.0336C100.426 24.9271 100.782 24.7873 101.107 24.6144C101.433 24.4414 101.751 24.2395 102.06 24.0087C102.365 23.7587 102.683 23.484 103.015 23.1847L99.7646 11.4154L103.611 10.3531L106.742 21.6886C106.832 22.0163 106.933 22.2686 107.044 22.4454C107.174 22.6169 107.32 22.7322 107.482 22.7913C107.638 22.8311 107.803 22.8271 107.977 22.7792C108.208 22.7153 108.426 22.6032 108.631 22.4429L109.708 25.1022C109.533 25.2957 109.324 25.4779 109.08 25.6489C108.837 25.8198 108.56 25.9794 108.248 26.1278C107.955 26.2708 107.636 26.3903 107.289 26.4861C106.653 26.6618 106.075 26.676 105.558 26.5286C105.034 26.3619 104.575 26.0529 104.181 25.6016C103.712 26.0838 103.233 26.5274 102.743 26.9324C102.254 27.3374 101.736 27.6777 101.189 27.9531C100.648 28.2478 100.05 28.4856 99.3943 28.6667ZM110.514 24.6304L110.194 21.6687C110.573 21.6885 110.99 21.6977 111.447 21.6962C111.897 21.6755 112.365 21.6397 112.849 21.5891C113.352 21.533 113.84 21.4604 114.313 21.3712C114.787 21.2819 115.226 21.1814 115.631 21.0696C116.556 20.814 117.194 20.4927 117.543 20.1056C117.887 19.6993 117.982 19.2166 117.828 18.6575C117.743 18.3491 117.584 18.1128 117.352 17.9487C117.134 17.7599 116.83 17.6364 116.44 17.578C116.065 17.495 115.608 17.4553 115.069 17.4588C114.545 17.4377 113.943 17.4379 113.264 17.4594C112.547 17.4915 111.903 17.4515 111.332 17.3393C110.757 17.2079 110.235 17.0096 109.768 16.7445C109.319 16.4741 108.942 16.1218 108.635 15.6878C108.348 15.2485 108.119 14.7203 107.949 14.1034C107.507 12.5034 107.692 11.1451 108.504 10.0286C109.316 8.91205 110.744 8.07158 112.787 7.50713C113.423 7.33141 114.032 7.20489 114.612 7.12758C115.187 7.03099 115.741 6.97131 116.274 6.94853C116.821 6.90114 117.328 6.89599 117.795 6.93307L118.102 9.96057C117.641 9.94277 117.185 9.94425 116.734 9.96501C116.283 9.98577 115.799 10.0365 115.282 10.1171C114.784 10.1924 114.227 10.3152 113.61 10.4856C112.781 10.7146 112.192 11.0226 111.842 11.4096C111.487 11.7774 111.382 12.2215 111.525 12.742C111.611 13.0505 111.76 13.2894 111.972 13.4589C112.18 13.6091 112.447 13.7117 112.773 13.7668C113.1 13.8218 113.491 13.8486 113.947 13.8472C114.403 13.8457 114.907 13.8309 115.46 13.8028C116.221 13.7793 116.925 13.8129 117.573 13.9038C118.215 13.9754 118.787 14.1288 119.287 14.364C119.807 14.5938 120.258 14.9467 120.638 15.4226C121.032 15.8739 121.333 16.4754 121.541 17.2273C121.738 17.9406 121.798 18.6087 121.721 19.2317C121.658 19.83 121.478 20.3779 121.179 20.8753C120.881 21.3727 120.496 21.8212 120.026 22.2209C119.55 22.6014 119 22.9399 118.377 23.2367C117.753 23.5334 117.085 23.7802 116.372 23.9773C115.678 24.169 115.002 24.3141 114.344 24.4127C113.692 24.5306 113.039 24.6073 112.385 24.6427C111.75 24.6729 111.126 24.6687 110.514 24.6304Z" fill="#FFF0E0"/>
</svg>
