<svg width="147" height="26" viewBox="0 0 147 26" fill="none" xmlns="http://www.w3.org/2000/svg">
<path d="M0.590126 25.5457L0.271206 4.54815L14.5796 4.33083L14.6351 7.99041L4.46631 8.14486L4.55971 14.2942L13.3787 14.1602L13.4329 17.7298L4.64392 17.8633L4.75965 25.4824L0.590126 25.5457ZM15.0587 21.0955C15.0436 20.0956 15.2212 19.2828 15.5918 18.6571C15.962 18.0114 16.5343 17.5027 17.3088 17.1309C18.1029 16.7388 19.0884 16.4338 20.2652 16.2159C21.4618 15.9777 22.859 15.7864 24.457 15.6421L24.4342 14.1423C24.4233 13.4224 24.1453 12.8966 23.6002 12.5648C23.0548 12.213 22.2721 12.0449 21.2522 12.0604C20.8323 12.0668 20.3627 12.0939 19.8433 12.1418C19.324 12.1897 18.7851 12.2679 18.2267 12.3764C17.6683 12.4849 17.1005 12.6335 16.5233 12.8223L15.7851 9.65314C16.681 9.3795 17.6277 9.1551 18.6252 8.97993C19.6426 8.80446 20.5913 8.71004 21.4712 8.69668C23.051 8.67268 24.354 8.86291 25.3803 9.26738C26.4063 9.65184 27.1654 10.2504 27.6578 11.063C28.1699 11.8553 28.4351 12.8514 28.4533 14.0513L28.5517 20.5305C28.5602 21.0904 28.646 21.4692 28.809 21.6667C28.972 21.8643 29.1735 21.9612 29.4135 21.9576C29.5135 21.9561 29.6333 21.9442 29.773 21.9221C29.9127 21.9 30.0421 21.858 30.1611 21.7962L30.5353 24.7009C30.1984 24.906 29.8108 25.0719 29.3727 25.1986C28.9349 25.3452 28.466 25.4224 27.9661 25.43C27.1662 25.4421 26.5238 25.2919 26.039 24.9792C25.5539 24.6465 25.1962 24.1419 24.9659 23.4653C24.4717 23.8529 23.9471 24.2109 23.392 24.5393C22.8366 24.8478 22.2402 25.0869 21.6027 25.2566C20.9655 25.4463 20.2569 25.5471 19.477 25.5589C18.8171 25.5689 18.2257 25.4779 17.7027 25.2858C17.1797 25.0937 16.7154 24.8108 16.3096 24.4369C15.9236 24.0427 15.6163 23.5673 15.3879 23.0107C15.1794 22.4538 15.0697 21.8154 15.0587 21.0955ZM19.1042 20.764C19.1148 21.4639 19.2828 21.9914 19.6083 22.3465C19.9534 22.6813 20.4059 22.8445 20.9659 22.836C21.3858 22.8296 21.8047 22.7532 22.2225 22.6069C22.6603 22.4602 23.0776 22.2738 23.4742 22.0478C23.8905 21.8014 24.2462 21.516 24.5413 21.1915L24.4907 17.8619C23.6314 17.9149 22.8627 18.0066 22.1846 18.1369C21.5265 18.2669 20.959 18.4356 20.4821 18.6428C20.0252 18.8498 19.6794 19.1251 19.4445 19.4687C19.2097 19.8123 19.0963 20.2441 19.1042 20.764ZM35.6332 8.78161L35.6623 10.7014C36.2144 10.1729 36.7279 9.7451 37.203 9.41784C37.6978 9.07029 38.1941 8.82273 38.6919 8.67515C39.2094 8.50727 39.7481 8.41908 40.3081 8.41057C40.668 8.40511 41.0284 8.42964 41.3893 8.48416C41.7699 8.51839 42.1411 8.59276 42.5028 8.70728L41.9276 12.3164C41.5664 12.2419 41.1955 12.1875 40.815 12.1533C40.4541 12.0988 40.1137 12.0739 39.7937 12.0788C39.2138 12.0876 38.6155 12.2067 37.9989 12.4361C37.3824 12.6655 36.7382 13.0553 36.0665 13.6056L36.2396 25.0043L32.2501 25.0649L32.0036 8.83674L35.6332 8.78161ZM44.4362 24.8798L44.1897 8.65165L47.8193 8.59653L47.8407 10.0064C48.4148 9.6176 48.9801 9.29898 49.5364 9.0505C50.0926 8.80202 50.6499 8.61354 51.208 8.48505C51.7858 8.33626 52.3646 8.25746 52.9446 8.24865C53.5645 8.23923 54.1055 8.30102 54.5676 8.43402C55.0297 8.56702 55.4228 8.77107 55.747 9.04618C56.0909 9.30099 56.3759 9.6267 56.6019 10.0233C57.2161 9.63394 57.811 9.29486 58.3867 9.00609C58.9624 8.71731 59.5591 8.49822 60.1769 8.34882C60.7944 8.17943 61.4531 8.08941 62.1531 8.07878C62.753 8.06967 63.2841 8.14161 63.7465 8.29461C64.2286 8.4273 64.6417 8.63105 64.9859 8.90586C65.3502 9.18036 65.6451 9.50591 65.8709 9.88253C66.0966 10.2591 66.263 10.6767 66.37 11.1351C66.4769 11.5935 66.5344 12.0827 66.5423 12.6026L66.7236 24.5413L62.7341 24.6019L62.5719 13.9231C62.567 13.6031 62.5223 13.2938 62.4378 12.995C62.3732 12.696 62.2593 12.4377 62.0959 12.2201C61.9523 11.9823 61.7396 11.8055 61.4578 11.6898C61.1757 11.554 60.8147 11.4895 60.3748 11.4962C59.9948 11.502 59.6156 11.5577 59.2372 11.6635C58.8787 11.7689 58.5306 11.8942 58.1927 12.0394C57.8749 12.1842 57.5674 12.3489 57.2701 12.5335C57.3332 12.7325 57.3762 12.9319 57.3992 13.1316C57.4223 13.3312 57.4352 13.5211 57.4379 13.701L57.6046 24.6798L53.6151 24.7404L53.4529 14.0616C53.4484 13.7616 53.4038 13.4623 53.3193 13.1635C53.2547 12.8645 53.1408 12.6062 52.9775 12.3886C52.8138 12.1511 52.5911 11.9744 52.3093 11.8587C52.0272 11.723 51.6762 11.6583 51.2563 11.6647C50.8963 11.6701 50.5469 11.7155 50.2082 11.8006C49.8895 11.8855 49.5612 12.0005 49.2233 12.1456C48.9055 12.2905 48.5781 12.4654 48.2412 12.6706L48.4257 24.8192L44.4362 24.8798ZM69.273 17.2117L69.2215 13.8221L77.1706 13.7014L77.2221 17.091L69.273 17.2117ZM80.9654 24.325L80.7827 12.2963L78.443 12.3319L78.4024 9.66219L80.738 9.35669L80.7294 8.78675C80.7054 7.20693 80.9156 5.90359 81.3601 4.87672C81.8045 3.84985 82.4629 3.07976 83.3352 2.56646C84.2072 2.03315 85.2732 1.75693 86.533 1.7378C87.2529 1.72686 87.9538 1.77623 88.6355 1.88589C89.3169 1.97555 90.0197 2.1549 90.7439 2.42393L90.2468 5.2518C89.7847 5.11881 89.3133 5.02596 88.8324 4.97325C88.3712 4.90025 87.9307 4.86693 87.5107 4.87331C86.5509 4.88789 85.8255 5.19894 85.3347 5.80647C84.8638 6.41369 84.6389 7.40722 84.6598 8.78706L84.6676 9.297L88.9271 9.23231L88.9718 12.172L84.7122 12.2367L84.8949 24.2653L80.9654 24.325ZM94.5424 7.88687L94.5716 9.80665C95.1236 9.27821 95.6372 8.85036 96.1122 8.5231C96.607 8.17555 97.1033 7.92799 97.6011 7.78041C98.1186 7.61253 98.6574 7.52434 99.2173 7.51583C99.5773 7.51037 99.9377 7.5349 100.299 7.58942C100.679 7.62365 101.05 7.69802 101.412 7.81254L100.837 11.4217C100.476 11.3472 100.105 11.2928 99.7242 11.2586C99.3633 11.204 99.0229 11.1792 98.7029 11.1841C98.123 11.1929 97.5248 11.312 96.9082 11.5414C96.2916 11.7708 95.6474 12.1606 94.9757 12.7108L95.1488 24.1095L91.1593 24.1701L90.9128 7.942L94.5424 7.88687ZM109.43 24.1927C108.21 24.2112 107.128 24.0776 106.184 23.7919C105.239 23.4862 104.432 23.0184 103.762 22.3885C103.112 21.7383 102.61 20.9159 102.255 19.9211C101.919 18.9061 101.741 17.6987 101.72 16.2988C101.695 14.679 101.864 13.3063 102.227 12.1807C102.61 11.0347 103.156 10.1163 103.865 9.42546C104.575 8.71461 105.407 8.20191 106.362 7.88737C107.317 7.55282 108.365 7.3769 109.505 7.35958C111.764 7.32526 113.433 7.86999 114.51 8.99376C115.607 10.1172 116.175 11.9688 116.215 14.5485C116.217 14.7285 116.221 14.9585 116.225 15.2384C116.229 15.5184 116.213 15.7887 116.177 16.0492C115.718 16.0962 115.129 16.1552 114.41 16.2261C113.691 16.297 112.882 16.3693 111.983 16.443C111.084 16.5167 110.115 16.5814 109.076 16.6372C108.036 16.693 106.967 16.7492 105.868 16.8059C105.849 16.8662 105.84 16.9363 105.841 17.0163C105.842 17.0963 105.843 17.1763 105.845 17.2563C105.859 18.1762 106.02 18.9138 106.328 19.4692C106.656 20.0043 107.133 20.4071 107.757 20.6777C108.381 20.9282 109.163 21.0464 110.102 21.0321C110.702 21.023 111.312 20.9837 111.931 20.9143C112.57 20.8246 113.198 20.725 113.817 20.6156C114.455 20.4859 115.073 20.3465 115.67 20.1974L116.195 23.1298C115.558 23.3395 114.881 23.5298 114.163 23.7007C113.446 23.8516 112.697 23.963 111.918 24.0349C111.14 24.1267 110.31 24.1793 109.43 24.1927ZM105.859 14.2257C106.558 14.2151 107.228 14.1949 107.868 14.1652C108.527 14.1152 109.147 14.0758 109.726 14.047C110.306 13.9982 110.805 13.9606 111.225 13.9342C111.644 13.8878 111.974 13.8528 112.213 13.8292C112.18 12.9496 112.049 12.2415 111.821 11.7049C111.613 11.168 111.287 10.7829 110.843 10.5496C110.42 10.316 109.888 10.2041 109.248 10.2138C108.848 10.2199 108.459 10.2858 108.081 10.4116C107.703 10.5373 107.356 10.7526 107.041 11.0574C106.725 11.3623 106.461 11.7663 106.249 12.2696C106.057 12.7726 105.926 13.4246 105.859 14.2257ZM117.931 23.1334L118.367 20.1865C118.729 20.301 119.13 20.4149 119.572 20.5282C120.014 20.6215 120.475 20.7045 120.956 20.7772C121.457 20.8496 121.948 20.9022 122.429 20.9349C122.909 20.9676 123.359 20.9807 123.779 20.9744C124.739 20.9598 125.437 20.8092 125.873 20.5225C126.308 20.2159 126.521 19.7726 126.513 19.1927C126.508 18.8727 126.414 18.6041 126.23 18.3868C126.067 18.1493 125.804 17.9533 125.441 17.7988C125.099 17.6239 124.666 17.4705 124.144 17.3384C123.642 17.186 123.059 17.0348 122.397 16.8849C121.695 16.7355 121.082 16.5348 120.558 16.2828C120.034 16.0107 119.579 15.6876 119.193 15.3134C118.827 14.9389 118.55 14.503 118.363 14.0058C118.195 13.5083 118.107 12.9396 118.097 12.2997C118.072 10.6399 118.593 9.3718 119.659 8.4955C120.726 7.6192 122.319 7.16495 124.439 7.13275C125.099 7.12273 125.72 7.15331 126.301 7.22449C126.882 7.27568 127.433 7.35731 127.955 7.4694C128.496 7.56119 128.988 7.68373 129.431 7.83703L128.966 10.8444C128.524 10.7111 128.082 10.5978 127.641 10.5045C127.199 10.4112 126.718 10.3385 126.197 10.2864C125.696 10.234 125.126 10.2127 124.486 10.2224C123.626 10.2355 122.978 10.3853 122.543 10.672C122.107 10.9386 121.893 11.3419 121.901 11.8818C121.906 12.2018 121.99 12.4706 122.153 12.6881C122.316 12.8857 122.549 13.0521 122.851 13.1876C123.153 13.323 123.525 13.4474 123.967 13.5607C124.409 13.674 124.9 13.7865 125.442 13.8983C126.185 14.067 126.858 14.2768 127.462 14.5277C128.065 14.7586 128.58 15.0508 129.005 15.4044C129.451 15.7576 129.798 16.2124 130.046 16.7687C130.314 17.3047 130.454 17.9627 130.466 18.7426C130.477 19.4825 130.368 20.1442 130.136 20.7278C129.925 21.2911 129.612 21.7759 129.198 22.1822C128.784 22.5885 128.3 22.9259 127.744 23.1944C127.187 23.4429 126.57 23.6323 125.892 23.7626C125.214 23.8929 124.505 23.9637 123.765 23.9749C123.045 23.9859 122.354 23.9564 121.693 23.8864C121.033 23.8364 120.381 23.7463 119.739 23.616C119.117 23.4855 118.514 23.3246 117.931 23.1334ZM132.697 23.5392L132.36 1.34179L136.38 1.28074L136.491 8.5699C137.085 8.20083 137.65 7.8922 138.187 7.64403C138.723 7.39586 139.27 7.20753 139.828 7.07904C140.406 6.95024 141.005 6.88114 141.625 6.87172C142.645 6.85623 143.498 7.0233 144.183 7.37293C144.888 7.70226 145.426 8.21415 145.797 8.90861C146.167 9.58306 146.36 10.4202 146.375 11.4201L146.556 23.3287L142.536 23.3898L142.374 12.711C142.361 11.8711 142.152 11.2542 141.746 10.8604C141.34 10.4665 140.757 10.2753 139.997 10.2868C139.597 10.2929 139.198 10.349 138.799 10.4551C138.421 10.5408 138.042 10.6566 137.665 10.8023C137.307 10.9478 136.929 11.1235 136.532 11.3296L136.717 23.4782L132.697 23.5392Z" fill="white"/>
</svg>
