<svg width="86" height="54" viewBox="0 0 86 54" fill="none" xmlns="http://www.w3.org/2000/svg">
<path d="M7.99393 47.622L1.14587 27.77L14.6736 23.1035L15.8672 26.5634L6.25308 29.8798L8.25859 35.6937L16.5965 32.8175L17.7606 36.1923L9.45112 39.0587L11.936 46.2622L7.99393 47.622ZM19.1855 24.1494C18.3914 24.4233 17.7626 24.471 17.299 24.2924C16.8478 24.0883 16.508 23.6555 16.2798 22.9937C16.045 22.3131 16.0456 21.7628 16.2815 21.3429C16.5364 20.9165 17.0609 20.5663 17.855 20.2924C18.6491 20.0185 19.2684 19.9741 19.7131 20.1592C20.1767 20.3378 20.5259 20.7674 20.7607 21.448C20.9889 22.1098 20.9789 22.6633 20.7305 23.1086C20.4946 23.5285 19.9795 23.8754 19.1855 24.1494ZM23.3312 42.3314L18.0386 26.9886L21.8105 25.6874L27.1031 41.0302L23.3312 42.3314ZM26.566 17.7318L32.0934 33.7552C32.2825 34.3035 32.486 34.7094 32.7038 34.9727C32.9339 35.2107 33.1693 35.3411 33.4099 35.3638C33.6694 35.3801 33.9315 35.3426 34.1962 35.2513C34.3852 35.1861 34.5867 35.0954 34.8005 34.9793C35.0144 34.8633 35.2406 34.7218 35.4792 34.5548L36.8174 37.3302C36.4979 37.6308 36.1214 37.9193 35.6879 38.1958C35.2544 38.4723 34.7635 38.7051 34.2152 38.8942C33.3455 39.1942 32.5465 39.3006 31.8182 39.2133C31.1088 39.1195 30.4695 38.7688 29.9003 38.1612C29.3499 37.5471 28.8628 36.6256 28.4389 35.3967L22.7941 19.0329L26.566 17.7318ZM34.6807 14.9326L40.2081 30.956C40.3972 31.5043 40.6007 31.9101 40.8185 32.1735C41.0487 32.4115 41.2841 32.5418 41.5246 32.5646C41.7841 32.5809 42.0462 32.5434 42.3109 32.4521C42.5 32.3868 42.7014 32.2962 42.9153 32.1801C43.1291 32.064 43.3553 31.9225 43.5939 31.7556L44.9321 34.5309C44.6127 34.8315 44.2362 35.1201 43.8027 35.3966C43.3691 35.6731 42.8782 35.9059 42.3299 36.095C41.4602 36.395 40.6612 36.5014 39.9329 36.4141C39.2236 36.3203 38.5843 35.9696 38.015 35.362C37.4647 34.7479 36.9775 33.8264 36.5536 32.5975L30.9089 16.2337L34.6807 14.9326ZM42.3388 16.1625C41.5447 16.4364 40.9159 16.4841 40.4523 16.3055C40.0011 16.1015 39.6614 15.6686 39.4331 15.0069C39.1983 14.3262 39.1989 13.776 39.4349 13.3561C39.6898 12.9296 40.2143 12.5795 41.0083 12.3055C41.8024 12.0316 42.4218 11.9872 42.8665 12.1723C43.33 12.3509 43.6792 12.7805 43.914 13.4612C44.1423 14.1229 44.1322 14.6764 43.8839 15.1218C43.6479 15.5417 43.1329 15.8886 42.3388 16.1625ZM46.4845 34.3445L41.192 19.0017L44.9639 17.7006L50.2564 33.0434L46.4845 34.3445ZM53.2145 32.023L47.922 16.6802L51.3535 15.4964L51.8133 16.8294C52.3133 16.2549 52.8078 15.7564 53.2967 15.3339C53.7792 14.8924 54.2749 14.5204 54.7841 14.2178C55.3057 13.8898 55.8784 13.6182 56.5023 13.403C57.4855 13.0638 58.3604 12.963 59.1272 13.1005C59.9063 13.2125 60.5674 13.5345 61.1106 14.0665C61.6538 14.5985 62.0819 15.3182 62.3949 16.2257L66.2885 27.513L62.5166 28.8142L59.0339 18.718C58.76 17.9239 58.3687 17.403 57.8602 17.1553C57.364 16.8822 56.7472 16.8728 56.0098 17.1272C55.6317 17.2576 55.2793 17.432 54.9527 17.6505C54.6196 17.85 54.2962 18.0779 53.9826 18.3342C53.6691 18.5905 53.3496 18.8911 53.0243 19.236L56.9864 30.7218L53.2145 32.023ZM77.1595 30.7447C74.9285 31.5143 73.119 31.7577 71.7309 31.4749C70.3682 31.2045 69.4618 30.417 69.0118 29.1124C68.8292 28.583 68.748 28.0715 68.7681 27.578C68.8137 27.0968 68.9574 26.6241 69.1993 26.1599C69.4535 25.6702 69.8123 25.2079 70.2759 24.773L72.6572 24.7766C72.4069 25.0322 72.2009 25.2937 72.0392 25.561C71.8776 25.8284 71.7791 26.095 71.744 26.3611C71.7088 26.6271 71.7466 26.9208 71.8575 27.2422C72.014 27.696 72.2768 28.0284 72.6459 28.2396C73.0214 28.4697 73.5284 28.5593 74.1666 28.5084C74.8049 28.4575 75.5873 28.2722 76.5137 27.9526C77.4401 27.6331 78.1954 27.2773 78.7796 26.8854C79.3826 26.487 79.7956 26.0589 80.0185 25.6012C80.248 25.1624 80.2844 24.7161 80.1279 24.2624C80.0105 23.922 79.8403 23.674 79.6173 23.5182C79.4197 23.3748 79.1156 23.321 78.7048 23.3569C78.313 23.3863 77.8051 23.5086 77.1812 23.7238L73.8347 24.8782C72.8137 25.2304 71.8922 25.4108 71.07 25.4193C70.2414 25.409 69.5405 25.2171 68.9673 24.8436C68.4131 24.4635 68.0121 23.9143 67.7642 23.1958C67.4968 22.4206 67.4642 21.7126 67.6662 21.0717C67.8806 20.4053 68.2724 19.7624 68.8415 19.143L71.1368 19.0811C70.7737 19.4391 70.5116 19.7834 70.3506 20.1139C70.2085 20.438 70.2027 20.7891 70.3331 21.1672C70.4701 21.5642 70.729 21.824 71.1097 21.9466C71.4905 22.0691 72.0118 22.0162 72.6735 21.7879L77.3246 20.1835C78.8938 19.6422 80.2089 19.5906 81.2697 20.0286C82.3429 20.4412 83.1045 21.2997 83.5545 22.6043C83.9393 23.7198 83.9473 24.7855 83.5783 25.8013C83.2094 26.8171 82.4823 27.745 81.3968 28.5848C80.3303 29.4182 78.9178 30.1381 77.1595 30.7447ZM73.527 19.0182C71.4661 19.7291 69.7563 19.8323 68.3975 19.3279C67.0387 18.8234 66.0691 17.7298 65.4887 16.0471C64.9082 14.3644 64.9974 12.9056 65.7561 11.6706C66.5149 10.4357 67.9247 9.46278 69.9855 8.75189C72.0464 8.04099 73.7562 7.93779 75.115 8.44226C76.4927 8.94022 77.4717 10.0305 78.0522 11.7132C78.6326 13.3959 78.534 14.858 77.7564 16.0995C76.9976 17.3344 75.5878 18.3073 73.527 19.0182ZM72.6758 16.5509C73.5834 16.2379 74.1861 15.8078 74.484 15.2608C74.7753 14.6948 74.7547 13.9297 74.4221 12.9655C74.0895 12.0012 73.634 11.3861 73.0557 11.1202C72.4773 10.8542 71.7344 10.8778 70.8269 11.1909C69.9572 11.4909 69.3672 11.9271 69.0569 12.4996C68.7655 13.0655 68.7861 13.8306 69.1188 14.7949C69.4514 15.7591 69.9069 16.3742 70.4852 16.6402C71.0759 16.8807 71.8061 16.8509 72.6758 16.5509ZM76.234 10.2142L74.0461 8.74751C74.0825 7.99447 74.31 7.36593 74.7285 6.8619C75.1659 6.35135 75.7627 5.96564 76.519 5.70476C76.7837 5.61345 77.036 5.54757 77.2759 5.50712C77.5093 5.44777 77.7304 5.41384 77.939 5.40534L78.5115 8.44481C78.3661 8.45265 78.1956 8.47973 78 8.52604C77.8233 8.56583 77.6499 8.61508 77.4797 8.67377C77.1394 8.79117 76.8535 8.97441 76.6221 9.22349C76.4096 9.46605 76.2802 9.7963 76.234 10.2142Z" fill="#FFF0E0"/>
</svg>
