<svg width="109" height="80" viewBox="0 0 109 80" fill="none" xmlns="http://www.w3.org/2000/svg">
<path d="M5.49712 44.6544L0.695049 24.2108L14.6259 20.9385L15.4628 24.5016L5.56229 26.8271L6.96861 32.8142L15.5549 30.7973L16.3713 34.2727L7.81416 36.2827L9.55663 43.7008L5.49712 44.6544ZM20.7431 24.4015L21.1822 26.2706C21.6084 25.6363 22.0186 25.1085 22.4127 24.6872C22.8217 24.2419 23.2536 23.8939 23.7083 23.6433C24.178 23.3687 24.6854 23.1673 25.2305 23.0392C25.581 22.9569 25.9383 22.9038 26.3025 22.8799C26.6816 22.8319 27.0601 22.8252 27.438 22.8597L27.6479 26.5084C27.2791 26.5128 26.9052 26.539 26.5261 26.587C26.1619 26.6109 25.8241 26.6594 25.5126 26.7326C24.9479 26.8652 24.389 27.1095 23.8357 27.4655C23.2824 27.8214 22.7366 28.34 22.1981 29.0212L24.8049 40.1191L20.9206 41.0315L17.2093 25.2315L20.7431 24.4015ZM38.7738 37.1461C37.5861 37.4251 36.5004 37.526 35.5167 37.4489C34.5284 37.3523 33.6399 37.068 32.851 36.5959C32.0771 36.0997 31.4102 35.4037 30.8506 34.508C30.3058 33.5882 29.8734 32.4468 29.5532 31.0839C29.1828 29.5068 29.0545 28.1297 29.1683 26.9525C29.297 25.7512 29.6341 24.7373 30.1795 23.9106C30.7204 23.0645 31.4238 22.3857 32.2897 21.8741C33.1511 21.3431 34.1367 20.9472 35.2465 20.6865C37.4466 20.1698 39.193 20.3451 40.4856 21.2125C41.7977 22.0753 42.7487 23.7625 43.3386 26.2742C43.3798 26.4494 43.4324 26.6733 43.4964 26.9459C43.5605 27.2185 43.6027 27.4859 43.6232 27.7481C43.1846 27.8923 42.6216 28.0759 41.9344 28.2989C41.2472 28.522 40.4724 28.7656 39.61 29.0298C38.7475 29.294 37.8147 29.5645 36.8114 29.8413C35.8081 30.118 34.7756 30.4016 33.7139 30.6921C33.7081 30.7551 33.7144 30.8255 33.7327 30.9034C33.751 30.9813 33.7693 31.0592 33.7876 31.1371C33.9979 32.0327 34.3132 32.7188 34.7333 33.1953C35.1683 33.6479 35.7196 33.9395 36.3872 34.0703C37.0502 34.1817 37.8393 34.1298 38.7544 33.9149C39.3385 33.7777 39.9255 33.609 40.5153 33.4088C41.1201 33.1846 41.7128 32.9529 42.2935 32.7138C42.8891 32.4506 43.4629 32.1823 44.015 31.9088L45.1546 34.6611C44.5773 35.0022 43.9565 35.3329 43.2921 35.6533C42.6232 35.9542 41.916 36.2231 41.1704 36.4599C40.4293 36.7161 39.6305 36.9448 38.7738 37.1461ZM33.1531 28.1736C33.8346 28.0136 34.4845 27.8506 35.103 27.6848C35.7364 27.4949 36.3331 27.3239 36.8931 27.1718C37.4486 27.0003 37.9285 26.8567 38.3328 26.7412C38.7325 26.6062 39.0469 26.5016 39.276 26.4272C39.0553 25.5751 38.7761 24.9114 38.4385 24.436C38.1203 23.956 37.7196 23.6495 37.2364 23.5165C36.7726 23.3789 36.2292 23.3833 35.6062 23.5296C35.2168 23.6211 34.8508 23.7687 34.5083 23.9724C34.1658 24.1761 33.8731 24.4606 33.6302 24.8258C33.3873 25.191 33.2159 25.6422 33.1161 26.1792C33.0357 26.7117 33.0481 27.3765 33.1531 28.1736ZM46.8517 34.2933L46.6467 31.3214C47.0246 31.3559 47.4414 31.3813 47.8972 31.3975C48.3484 31.3942 48.8168 31.3767 49.3024 31.3448C49.8074 31.3083 50.2982 31.2547 50.7746 31.1839C51.251 31.113 51.6937 31.0296 52.1026 30.9336C53.0371 30.7141 53.6866 30.4177 54.0509 30.0445C54.4106 29.6518 54.5242 29.1732 54.3916 28.6086C54.3184 28.297 54.169 28.0548 53.9435 27.8818C53.7328 27.6847 53.434 27.5495 53.0469 27.476C52.6748 27.3785 52.2196 27.3211 51.6814 27.3037C51.158 27.2623 50.5568 27.2392 49.8777 27.2343C49.1597 27.2386 48.5178 27.1737 47.9521 27.0395C47.3819 26.8858 46.8683 26.6674 46.4115 26.3844C45.9742 26.0968 45.6107 25.7302 45.3211 25.2846C45.051 24.8344 44.8428 24.2978 44.6965 23.6748C44.3169 22.0588 44.5544 20.7087 45.4092 19.6245C46.2639 18.5403 47.7232 17.7559 49.787 17.2711C50.4295 17.1202 51.0422 17.0173 51.6252 16.9626C52.2035 16.8883 52.7595 16.8502 53.2932 16.8481C53.8417 16.822 54.3485 16.8365 54.8134 16.8916L55.0029 19.9288C54.5426 19.8931 54.0868 19.8769 53.6356 19.8801C53.1844 19.8834 52.6988 19.9153 52.1789 19.9758C51.6784 20.0317 51.1166 20.1329 50.4936 20.2792C49.6564 20.4759 49.0556 20.7608 48.6913 21.134C48.3224 21.4877 48.1997 21.9274 48.3232 22.4531C48.3964 22.7646 48.536 23.0092 48.7421 23.1868C48.9436 23.3449 49.2063 23.4578 49.5304 23.5255C49.8545 23.5932 50.2444 23.6351 50.7002 23.6513C51.156 23.6675 51.6604 23.6723 52.2135 23.6656C52.9751 23.6716 53.6777 23.7326 54.3212 23.8485C54.9602 23.945 55.5253 24.1204 56.0165 24.3748C56.5271 24.6246 56.9633 24.9947 57.325 25.485C57.7016 25.9512 57.9791 26.564 58.1574 27.3234C58.3267 28.0437 58.3608 28.7137 58.2598 29.3332C58.1736 29.9287 57.9719 30.4691 57.6545 30.9546C57.3371 31.44 56.9355 31.8733 56.4498 32.2545C55.9595 32.6162 55.3971 32.9332 54.7626 33.2055C54.128 33.4778 53.4506 33.6986 52.7302 33.8678C52.0292 34.0325 51.3484 34.1513 50.6876 34.2243C50.0313 34.3168 49.3757 34.3681 48.7206 34.3782C48.0851 34.3837 47.4621 34.3554 46.8517 34.2933ZM61.3629 31.5319L56.2864 9.92009L60.1999 9.00083L61.8669 16.0977C62.3687 15.61 62.855 15.1876 63.3258 14.8305C63.7966 14.4734 64.2909 14.1724 64.8086 13.9275C65.3458 13.6781 65.9161 13.4824 66.5197 13.3407C67.5127 13.1074 68.3813 13.0883 69.1256 13.2832C69.8848 13.4542 70.5197 13.8392 71.0302 14.4383C71.5362 15.018 71.9035 15.7946 72.1322 16.7681L74.8556 28.3625L70.9421 29.2818L68.5 18.8847C68.3079 18.067 67.9714 17.5092 67.4905 17.2112C67.0097 16.9133 66.3993 16.8512 65.6594 17.025C65.27 17.1165 64.8921 17.2566 64.5255 17.4454C64.1739 17.6102 63.8291 17.8042 63.4912 18.0274C63.1727 18.246 62.8417 18.4984 62.498 18.7845L65.2764 30.6126L61.3629 31.5319ZM76.6556 5.13549L80.5316 21.6364C80.6642 22.201 80.8255 22.6254 81.0155 22.9095C81.2204 23.1695 81.4413 23.323 81.6784 23.3701C81.9349 23.4125 82.1994 23.4018 82.472 23.3377C82.6667 23.292 82.8763 23.2222 83.1008 23.1284C83.3253 23.0346 83.5647 22.9167 83.819 22.7748L84.8692 25.6714C84.5209 25.9381 84.1172 26.187 83.6578 26.4182C83.1985 26.6494 82.6866 26.8312 82.1219 26.9639C81.2263 27.1742 80.4206 27.1991 79.705 27.0385C79.0087 26.8734 78.4082 26.4597 77.9035 25.7976C77.4182 25.1309 77.0269 24.1648 76.7296 22.8992L72.7713 6.04788L76.6556 5.13549ZM90.1967 31.1996L90.7197 24.6361L90.048 24.7939L80.4733 10.402L84.7167 9.31284L91.5714 21.0463L92.2224 7.5498L96.2441 6.69758L94.2184 30.3474L90.1967 31.1996ZM20.8029 77.9773L16.0351 57.6798C17.1221 57.3217 18.099 57.0204 18.966 56.7756C19.8479 56.5068 20.6663 56.2735 21.421 56.0757C22.1712 55.8584 22.8773 55.672 23.5393 55.5165C25.3695 55.0866 26.8806 54.9165 28.0727 55.0063C29.2603 55.0766 30.1843 55.4245 30.8449 56.0501C31.5203 56.6515 31.9975 57.5461 32.2765 58.7338C32.5372 59.8436 32.5081 60.8571 32.1894 61.7743C31.8661 62.672 31.256 63.4419 30.3591 64.084L30.3728 64.1424C31.731 64.1521 32.8778 64.5299 33.8131 65.2757C34.7485 66.0216 35.3716 67.0565 35.6826 68.3805C35.9388 69.4708 36.0025 70.442 35.8739 71.294C35.7453 72.1459 35.4072 72.8931 34.8596 73.5353C34.3119 74.1776 33.5204 74.7436 32.4849 75.2333C31.469 75.7185 30.1627 76.1486 28.5662 76.5236C28.021 76.6517 27.5222 76.7585 27.0698 76.8443C26.622 76.9494 26.2011 77.038 25.8072 77.11C25.4178 77.2015 24.9848 77.2827 24.5084 77.3535C24.056 77.4392 23.5332 77.5312 22.94 77.6294C22.3467 77.7277 21.6344 77.8437 20.8029 77.9773ZM22.0978 65.2541L26.683 64.1771C27.2281 64.049 27.6777 63.8202 28.0317 63.4905C28.4052 63.1562 28.6487 62.7498 28.7622 62.2711C28.8953 61.7879 28.8978 61.2737 28.7697 60.7285C28.6142 60.0666 28.3499 59.5534 27.9767 59.1891C27.6229 58.8202 27.1312 58.607 26.5013 58.5495C25.891 58.4875 25.099 58.5708 24.1255 58.7994C23.8724 58.8589 23.6388 58.9138 23.4246 58.9641C23.2299 59.0098 23.0472 59.063 22.8766 59.1236C22.7013 59.1648 22.5186 59.218 22.3285 59.2832C22.1338 59.3289 21.9122 59.3912 21.6637 59.4701C21.4346 59.5445 21.1494 59.6423 20.8081 59.7636L22.0978 65.2541ZM24.1421 73.9573C24.5555 73.8807 24.9323 73.823 25.2725 73.7842C25.608 73.7259 25.9047 73.6768 26.1623 73.6368C26.4349 73.5728 26.6903 73.523 26.9285 73.4876C27.1622 73.4328 27.3861 73.3802 27.6003 73.3299C28.7685 73.0554 29.6607 72.7431 30.2769 72.393C30.9081 72.0187 31.3073 71.5757 31.4747 71.0638C31.6616 70.5474 31.6681 69.9193 31.4944 69.1794C31.2748 68.2449 30.8279 67.6102 30.1535 67.2756C29.4745 66.9215 28.5509 66.8816 27.3827 67.156L22.7975 68.233L24.1421 73.9573ZM37.6209 69.7434C37.3922 68.7699 37.392 67.9379 37.6201 67.2475C37.8437 66.5375 38.294 65.9181 38.971 65.3893C39.6629 64.8364 40.5604 64.3277 41.6634 63.8632C42.7813 63.3746 44.1053 62.889 45.6355 62.4063L45.2925 60.9461C45.1278 60.2451 44.7438 59.7909 44.1403 59.5834C43.5323 59.3564 42.7318 59.3596 41.7389 59.5928C41.33 59.6888 40.877 59.8158 40.3799 59.9736C39.8829 60.1315 39.3732 60.3231 38.8509 60.5485C38.3286 60.7739 37.8057 61.0406 37.2822 61.3484L35.8833 58.4105C36.7 57.9515 37.5768 57.5299 38.5138 57.1454C39.4701 56.7564 40.3767 56.4613 41.2334 56.2601C42.7715 55.8988 44.0851 55.806 45.1741 55.9816C46.2585 56.1377 47.1282 56.5601 47.7829 57.2486C48.4526 57.9131 48.9247 58.8294 49.1991 59.9976L50.6809 66.3059C50.8089 66.8511 50.9737 67.2027 51.1752 67.3608C51.3767 67.5189 51.5943 67.5705 51.8279 67.5157C51.9252 67.4928 52.0398 67.4556 52.1715 67.4041C52.3032 67.3527 52.4206 67.284 52.5237 67.1981L53.5104 69.9556C53.2252 70.228 52.8821 70.473 52.4812 70.6904C52.0848 70.9273 51.6433 71.1029 51.1565 71.2173C50.3777 71.4002 49.7181 71.3908 49.1777 71.189C48.6326 70.9678 48.1753 70.5513 47.8056 69.9397C47.4058 70.4239 46.9698 70.8859 46.4978 71.3254C46.0213 71.7455 45.4898 72.1066 44.9033 72.4088C44.3214 72.7303 43.6508 72.9803 42.8915 73.1587C42.249 73.3096 41.6518 73.3472 41.0998 73.2714C40.5478 73.1956 40.0337 73.0184 39.5574 72.74C39.096 72.4375 38.6942 72.0388 38.352 71.5439C38.0292 71.0445 37.7855 70.4443 37.6209 69.7434ZM41.5018 68.5544C41.6619 69.2359 41.9389 69.7153 42.3327 69.9926C42.7414 70.2458 43.2184 70.3084 43.7636 70.1803C44.1724 70.0843 44.5653 69.9201 44.9421 69.6878C45.3385 69.4509 45.7062 69.1796 46.0453 68.874C46.3993 68.5443 46.6857 68.1894 46.9046 67.8093L46.1431 64.5675C45.315 64.8031 44.5837 65.057 43.9492 65.3294C43.3341 65.5971 42.8158 65.8832 42.3943 66.1877C41.9922 66.4876 41.7132 66.8304 41.5573 67.2163C41.4014 67.6022 41.3829 68.0482 41.5018 68.5544ZM68.0307 67.2228C67.7192 67.296 67.3888 67.3325 67.0395 67.3324C66.7143 67.3471 66.3415 67.2909 65.9213 67.1636C65.5205 67.0318 65.019 66.8208 64.4167 66.5309C63.8339 66.2363 63.1218 65.8284 62.2803 65.307L57.3376 62.3694L58.9154 69.0866L55.2063 69.9578L50.1299 48.346L53.8389 47.4748L56.1645 57.3753L62.0878 60.9455C63.2568 61.6364 64.1785 62.1493 64.8529 62.4839C65.5467 62.814 66.0992 63.0232 66.5103 63.1116C66.9363 63.1758 67.305 63.1714 67.6166 63.0982C67.675 63.0845 67.7431 63.0685 67.821 63.0502C67.8943 63.0124 67.9699 62.9844 68.0478 62.9661L69.0323 66.8951C68.9006 66.9466 68.7494 67.0026 68.5787 67.0633C68.4276 67.1193 68.2449 67.1725 68.0307 67.2228ZM60.466 61.388L56.9483 60.581C57.488 59.8174 57.9813 59.0749 58.4282 58.3536C58.8945 57.6277 59.3002 56.9059 59.6452 56.1879C59.9902 55.47 60.2722 54.7464 60.4912 54.017C60.7056 53.2681 60.821 52.4911 60.8373 51.6861L64.8125 51.0297C64.7801 51.9412 64.6263 52.8608 64.3511 53.7883C64.0759 54.7158 63.716 55.6324 63.2713 56.538C62.8415 57.4197 62.3831 58.2669 61.8961 59.0799C61.4091 59.8928 60.9324 60.6621 60.466 61.388ZM77.3091 65.0742C76.1214 65.3532 75.0357 65.4541 74.052 65.377C73.0637 65.2804 72.1752 64.9961 71.3863 64.524C70.6123 64.0278 69.9455 63.3319 69.3859 62.4361C68.8411 61.5163 68.4086 60.3749 68.0885 59.012C67.7181 57.435 67.5898 56.0578 67.7036 54.8806C67.8323 53.6793 68.1694 52.6654 68.7148 51.8388C69.2556 50.9927 69.9591 50.3138 70.825 49.8023C71.6864 49.2712 72.672 48.8754 73.7818 48.6147C75.9819 48.0979 77.7283 48.2732 79.0209 49.1406C80.3329 50.0034 81.284 51.6907 81.8739 54.2023C81.9151 54.3775 81.9677 54.6014 82.0317 54.874C82.0957 55.1466 82.138 55.414 82.1585 55.6763C81.7199 55.8204 81.1569 56.004 80.4697 56.227C79.7825 56.4501 79.0077 56.6937 78.1453 56.9579C77.2828 57.2222 76.35 57.4926 75.3467 57.7694C74.3434 58.0462 73.3109 58.3298 72.2492 58.6202C72.2434 58.6832 72.2497 58.7537 72.268 58.8315C72.2863 58.9094 72.3046 58.9873 72.3229 59.0652C72.5332 59.9608 72.8485 60.6469 73.2686 61.1235C73.7036 61.576 74.2549 61.8676 74.9225 61.9984C75.5855 62.1098 76.3746 62.058 77.2897 61.843C77.8738 61.7058 78.4607 61.5371 79.0506 61.3369C79.6553 61.1127 80.2481 60.881 80.8288 60.6419C81.4244 60.3787 81.9982 60.1104 82.5503 59.8369L83.6899 62.5893C83.1126 62.9303 82.4918 63.261 81.8274 63.5814C81.1585 63.8824 80.4512 64.1512 79.7056 64.388C78.9646 64.6442 78.1657 64.873 77.3091 65.0742ZM71.6884 56.1017C72.3698 55.9417 73.0198 55.7787 73.6383 55.6129C74.2716 55.423 74.8684 55.2521 75.4284 55.1C75.9839 54.9284 76.4638 54.7849 76.8681 54.6693C77.2678 54.5344 77.5822 54.4297 77.8113 54.3554C77.5906 53.5032 77.3114 52.8395 76.9738 52.3641C76.6556 51.8842 76.2549 51.5777 75.7716 51.4446C75.3079 51.307 74.7645 51.3114 74.1415 51.4578C73.752 51.5492 73.3861 51.6968 73.0436 51.9005C72.7011 52.1042 72.4084 52.3887 72.1655 52.7539C71.9226 53.1192 71.7512 53.5703 71.6514 54.1074C71.571 54.6399 71.5833 55.3046 71.6884 56.1017ZM96.405 60.3113L95.6358 59.1361C94.9416 59.8539 94.225 60.4331 93.4862 60.8737C92.7669 61.3097 91.9788 61.6284 91.1222 61.8296C89.4088 62.2321 87.927 61.8713 86.6769 60.7474C85.4417 59.5995 84.5245 57.7502 83.9254 55.1996C83.4681 53.2526 83.3559 51.5943 83.5889 50.2247C83.8219 48.8552 84.4126 47.7406 85.3612 46.8809C86.3246 45.9971 87.6436 45.3586 89.318 44.9653C89.7658 44.8601 90.2279 44.7721 90.7044 44.7013C91.2003 44.6259 91.6933 44.582 92.1834 44.5696L90.8251 38.787L94.7386 37.8677L99.822 59.5087L96.405 60.3113ZM94.9549 56.3685L92.8763 47.5193C92.3575 47.4973 91.8891 47.5149 91.4711 47.572C91.0485 47.6097 90.6523 47.6719 90.2823 47.7588C89.4451 47.9555 88.7928 48.2833 88.3254 48.7424C87.8775 49.1968 87.6087 49.8455 87.519 50.6883C87.4488 51.5266 87.567 52.598 87.8734 53.9025C88.1432 55.0512 88.4721 55.9703 88.8601 56.6599C89.2675 57.3449 89.7168 57.8146 90.208 58.069C90.7187 58.3188 91.2758 58.3729 91.8794 58.2311C92.2298 58.1488 92.5711 58.0275 92.9033 57.8673C93.2355 57.7071 93.5682 57.5057 93.9016 57.263C94.2349 57.0204 94.586 56.7222 94.9549 56.3685Z" fill="#FFF0E0"/>
</svg>
