<svg width="1922" height="817" viewBox="0 0 1922 817" fill="none" xmlns="http://www.w3.org/2000/svg">
<path d="M0 1.99999C0 0.895416 0.895431 0 2 0H1916C1917.1 0 1918 0.895431 1918 2V815C1918 816.105 1917.1 817 1916 817H1.99994C0.895375 817 0 816.105 0 815V1.99999Z" fill="#FFF0E0"/>
<path d="M2 1H1916V-1H2V1ZM1917 2V815H1919V2H1917ZM1916 816H1.99994V818H1916V816ZM1 815V1.99999H-1V815H1ZM1.99994 816C1.4477 816 1 815.552 1 815H-1C-1 816.657 0.343053 818 1.99994 818V816ZM1917 815C1917 815.552 1916.55 816 1916 816V818C1917.66 818 1919 816.657 1919 815H1917ZM1916 1C1916.55 1 1917 1.44768 1917 2H1919C1919 0.343182 1917.66 -1 1916 -1V1ZM2 -1C0.343155 -1 -1 0.343122 -1 1.99999H1C1 1.44771 1.44771 1 2 1V-1Z" fill="white" fill-opacity="0.1"/>
<g filter="url(#filter0_d_47_2)">
<path d="M1917.86 738.809L638.405 738.809C456.48 738.809 309 591.33 309 409.405V409.405C309 227.479 456.48 79.9999 638.405 79.9999L1917.86 79.9999V738.809Z" fill="#0B8F2C"/>
</g>
<g filter="url(#filter1_d_47_2)">
<mask id="path-4-outside-1_47_2" maskUnits="userSpaceOnUse" x="913.226" y="256" width="618" height="115" fill="black">
<rect fill="white" x="913.226" y="256" width="618" height="115"/>
<path d="M937.851 359C933.224 359 929.667 357.8 927.182 355.401C924.782 352.915 923.582 349.359 923.582 344.731V282.642C923.582 278.015 924.782 274.501 927.182 272.101C929.667 269.616 933.224 268.374 937.851 268.374H969.603C976.201 268.374 981.815 269.359 986.442 271.33C991.07 273.216 994.584 275.915 996.983 279.429C999.469 282.942 1000.71 287.056 1000.71 291.769C1000.71 296.997 999.212 301.496 996.212 305.267C993.298 309.038 989.313 311.609 984.257 312.98V310.794C990.342 312.08 995.012 314.651 998.269 318.507C1001.53 322.278 1003.15 327.12 1003.15 333.033C1003.15 340.918 1000.24 347.216 994.412 351.93C988.585 356.643 980.701 359 970.76 359H937.851ZM949.935 338.946H966.903C970.503 338.946 973.073 338.304 974.616 337.018C976.244 335.647 977.058 333.633 977.058 330.977C977.058 328.32 976.244 326.349 974.616 325.063C973.073 323.692 970.503 323.007 966.903 323.007H949.935V338.946ZM949.935 302.953H964.461C968.06 302.953 970.631 302.396 972.174 301.282C973.716 300.082 974.488 298.197 974.488 295.626C974.488 293.055 973.716 291.212 972.174 290.098C970.631 288.984 968.06 288.427 964.461 288.427H949.935V302.953ZM1039.4 359C1034.77 359 1031.22 357.8 1028.73 355.401C1026.33 352.915 1025.13 349.359 1025.13 344.731V282.642C1025.13 278.015 1026.33 274.501 1028.73 272.101C1031.22 269.616 1034.77 268.374 1039.4 268.374H1081.82C1085.33 268.374 1087.99 269.273 1089.79 271.073C1091.59 272.873 1092.49 275.487 1092.49 278.915C1092.49 282.342 1091.59 284.956 1089.79 286.756C1087.99 288.556 1085.33 289.455 1081.82 289.455H1051.48V302.439H1078.86C1082.38 302.439 1085.03 303.339 1086.83 305.138C1088.63 306.938 1089.53 309.552 1089.53 312.98C1089.53 316.408 1088.63 319.022 1086.83 320.821C1085.03 322.621 1082.38 323.521 1078.86 323.521H1051.48V337.918H1081.82C1085.33 337.918 1087.99 338.818 1089.79 340.618C1091.59 342.417 1092.49 345.031 1092.49 348.459C1092.49 351.887 1091.59 354.501 1089.79 356.3C1087.99 358.1 1085.33 359 1081.82 359H1039.4ZM1151.35 360.285C1146.9 360.285 1143.47 359.086 1141.07 356.686C1138.67 354.201 1137.47 350.644 1137.47 346.017V312.851L1143 327.763L1114.33 285.728C1112.7 283.328 1112.02 280.671 1112.27 277.758C1112.53 274.844 1113.73 272.359 1115.87 270.302C1118.02 268.159 1121.1 267.088 1125.13 267.088C1127.96 267.088 1130.49 267.774 1132.71 269.145C1135.03 270.516 1137.21 272.787 1139.27 275.958L1154.31 298.968H1149.04L1164.21 275.829C1166.26 272.659 1168.41 270.43 1170.63 269.145C1172.86 267.774 1175.43 267.088 1178.35 267.088C1182.2 267.088 1185.16 268.074 1187.22 270.045C1189.36 271.93 1190.52 274.33 1190.69 277.243C1190.86 280.157 1189.96 283.071 1187.99 285.985L1159.58 327.763L1165.11 312.851V346.017C1165.11 355.529 1160.52 360.285 1151.35 360.285ZM1251.64 360.543C1242.29 360.543 1234.02 358.572 1226.83 354.629C1219.71 350.687 1214.14 345.203 1210.11 338.175C1206.17 331.062 1204.2 322.878 1204.2 313.623C1204.2 306.595 1205.32 300.211 1207.54 294.469C1209.86 288.727 1213.11 283.799 1217.31 279.686C1221.51 275.572 1226.53 272.401 1232.35 270.173C1238.18 267.945 1244.61 266.831 1251.64 266.831C1261.06 266.831 1269.33 268.802 1276.45 272.744C1283.56 276.601 1289.09 282.043 1293.03 289.07C1297.06 296.097 1299.07 304.281 1299.07 313.623C1299.07 320.65 1297.91 327.034 1295.6 332.776C1293.37 338.518 1290.16 343.489 1285.96 347.688C1281.76 351.801 1276.75 354.972 1270.92 357.2C1265.09 359.428 1258.66 360.543 1251.64 360.543ZM1251.64 337.532C1255.58 337.532 1258.92 336.59 1261.66 334.704C1264.49 332.733 1266.63 329.991 1268.09 326.477C1269.63 322.878 1270.4 318.593 1270.4 313.623C1270.4 306.167 1268.73 300.339 1265.39 296.14C1262.05 291.941 1257.46 289.841 1251.64 289.841C1247.78 289.841 1244.44 290.784 1241.61 292.669C1238.78 294.555 1236.6 297.254 1235.05 300.768C1233.6 304.281 1232.87 308.566 1232.87 313.623C1232.87 321.164 1234.54 327.034 1237.88 331.234C1241.22 335.433 1245.81 337.532 1251.64 337.532ZM1334.85 360.285C1330.65 360.285 1327.43 359.171 1325.2 356.943C1323.06 354.715 1321.99 351.501 1321.99 347.302V280.714C1321.99 276.344 1323.06 273.001 1325.2 270.687C1327.43 268.288 1330.39 267.088 1334.07 267.088C1337.16 267.088 1339.6 267.731 1341.4 269.016C1343.29 270.216 1345.34 272.187 1347.57 274.93L1383.57 318.507H1379.71V280.071C1379.71 275.872 1380.78 272.659 1382.92 270.43C1385.15 268.202 1388.36 267.088 1392.56 267.088C1396.76 267.088 1399.93 268.202 1402.08 270.43C1404.3 272.659 1405.42 275.872 1405.42 280.071V347.945C1405.42 351.63 1404.39 354.629 1402.33 356.943C1400.36 359.171 1397.66 360.285 1394.24 360.285C1390.81 360.285 1388.11 359.686 1386.14 358.486C1384.17 357.2 1382.07 355.186 1379.84 352.444L1343.84 308.866H1347.7V347.302C1347.7 351.501 1346.59 354.715 1344.36 356.943C1342.22 359.171 1339.05 360.285 1334.85 360.285ZM1444.59 359C1439.96 359 1436.4 357.8 1433.92 355.401C1431.52 352.915 1430.32 349.359 1430.32 344.731V282.642C1430.32 278.015 1431.52 274.501 1433.92 272.101C1436.4 269.616 1439.96 268.374 1444.59 268.374H1469.91C1486.02 268.374 1498.49 272.359 1507.32 280.329C1516.15 288.213 1520.56 299.311 1520.56 313.623C1520.56 320.821 1519.4 327.249 1517.09 332.905C1514.86 338.475 1511.56 343.231 1507.19 347.174C1502.91 351.03 1497.63 353.987 1491.38 356.043C1485.12 358.014 1477.97 359 1469.91 359H1444.59ZM1457.96 336.633H1468.24C1472.27 336.633 1475.74 336.161 1478.65 335.219C1481.65 334.276 1484.14 332.862 1486.11 330.977C1488.08 329.091 1489.54 326.734 1490.48 323.906C1491.42 320.993 1491.89 317.565 1491.89 313.623C1491.89 305.738 1489.92 299.954 1485.98 296.269C1482.12 292.583 1476.21 290.741 1468.24 290.741H1457.96V336.633Z"/>
</mask>
<path d="M937.851 359C933.224 359 929.667 357.8 927.182 355.401C924.782 352.915 923.582 349.359 923.582 344.731V282.642C923.582 278.015 924.782 274.501 927.182 272.101C929.667 269.616 933.224 268.374 937.851 268.374H969.603C976.201 268.374 981.815 269.359 986.442 271.33C991.07 273.216 994.584 275.915 996.983 279.429C999.469 282.942 1000.71 287.056 1000.71 291.769C1000.71 296.997 999.212 301.496 996.212 305.267C993.298 309.038 989.313 311.609 984.257 312.98V310.794C990.342 312.08 995.012 314.651 998.269 318.507C1001.53 322.278 1003.15 327.12 1003.15 333.033C1003.15 340.918 1000.24 347.216 994.412 351.93C988.585 356.643 980.701 359 970.76 359H937.851ZM949.935 338.946H966.903C970.503 338.946 973.073 338.304 974.616 337.018C976.244 335.647 977.058 333.633 977.058 330.977C977.058 328.32 976.244 326.349 974.616 325.063C973.073 323.692 970.503 323.007 966.903 323.007H949.935V338.946ZM949.935 302.953H964.461C968.06 302.953 970.631 302.396 972.174 301.282C973.716 300.082 974.488 298.197 974.488 295.626C974.488 293.055 973.716 291.212 972.174 290.098C970.631 288.984 968.06 288.427 964.461 288.427H949.935V302.953ZM1039.4 359C1034.77 359 1031.22 357.8 1028.73 355.401C1026.33 352.915 1025.13 349.359 1025.13 344.731V282.642C1025.13 278.015 1026.33 274.501 1028.73 272.101C1031.22 269.616 1034.77 268.374 1039.4 268.374H1081.82C1085.33 268.374 1087.99 269.273 1089.79 271.073C1091.59 272.873 1092.49 275.487 1092.49 278.915C1092.49 282.342 1091.59 284.956 1089.79 286.756C1087.99 288.556 1085.33 289.455 1081.82 289.455H1051.48V302.439H1078.86C1082.38 302.439 1085.03 303.339 1086.83 305.138C1088.63 306.938 1089.53 309.552 1089.53 312.98C1089.53 316.408 1088.63 319.022 1086.83 320.821C1085.03 322.621 1082.38 323.521 1078.86 323.521H1051.48V337.918H1081.82C1085.33 337.918 1087.99 338.818 1089.79 340.618C1091.59 342.417 1092.49 345.031 1092.49 348.459C1092.49 351.887 1091.59 354.501 1089.79 356.3C1087.99 358.1 1085.33 359 1081.82 359H1039.4ZM1151.35 360.285C1146.9 360.285 1143.47 359.086 1141.07 356.686C1138.67 354.201 1137.47 350.644 1137.47 346.017V312.851L1143 327.763L1114.33 285.728C1112.7 283.328 1112.02 280.671 1112.27 277.758C1112.53 274.844 1113.73 272.359 1115.87 270.302C1118.02 268.159 1121.1 267.088 1125.13 267.088C1127.96 267.088 1130.49 267.774 1132.71 269.145C1135.03 270.516 1137.21 272.787 1139.27 275.958L1154.31 298.968H1149.04L1164.21 275.829C1166.26 272.659 1168.41 270.43 1170.63 269.145C1172.86 267.774 1175.43 267.088 1178.35 267.088C1182.2 267.088 1185.16 268.074 1187.22 270.045C1189.36 271.93 1190.52 274.33 1190.69 277.243C1190.86 280.157 1189.96 283.071 1187.99 285.985L1159.58 327.763L1165.11 312.851V346.017C1165.11 355.529 1160.52 360.285 1151.35 360.285ZM1251.64 360.543C1242.29 360.543 1234.02 358.572 1226.83 354.629C1219.71 350.687 1214.14 345.203 1210.11 338.175C1206.17 331.062 1204.2 322.878 1204.2 313.623C1204.2 306.595 1205.32 300.211 1207.54 294.469C1209.86 288.727 1213.11 283.799 1217.31 279.686C1221.51 275.572 1226.53 272.401 1232.35 270.173C1238.18 267.945 1244.61 266.831 1251.64 266.831C1261.06 266.831 1269.33 268.802 1276.45 272.744C1283.56 276.601 1289.09 282.043 1293.03 289.07C1297.06 296.097 1299.07 304.281 1299.07 313.623C1299.07 320.65 1297.91 327.034 1295.6 332.776C1293.37 338.518 1290.16 343.489 1285.96 347.688C1281.76 351.801 1276.75 354.972 1270.92 357.2C1265.09 359.428 1258.66 360.543 1251.64 360.543ZM1251.64 337.532C1255.58 337.532 1258.92 336.59 1261.66 334.704C1264.49 332.733 1266.63 329.991 1268.09 326.477C1269.63 322.878 1270.4 318.593 1270.4 313.623C1270.4 306.167 1268.73 300.339 1265.39 296.14C1262.05 291.941 1257.46 289.841 1251.64 289.841C1247.78 289.841 1244.44 290.784 1241.61 292.669C1238.78 294.555 1236.6 297.254 1235.05 300.768C1233.6 304.281 1232.87 308.566 1232.87 313.623C1232.87 321.164 1234.54 327.034 1237.88 331.234C1241.22 335.433 1245.81 337.532 1251.64 337.532ZM1334.85 360.285C1330.65 360.285 1327.43 359.171 1325.2 356.943C1323.06 354.715 1321.99 351.501 1321.99 347.302V280.714C1321.99 276.344 1323.06 273.001 1325.2 270.687C1327.43 268.288 1330.39 267.088 1334.07 267.088C1337.16 267.088 1339.6 267.731 1341.4 269.016C1343.29 270.216 1345.34 272.187 1347.57 274.93L1383.57 318.507H1379.71V280.071C1379.71 275.872 1380.78 272.659 1382.92 270.43C1385.15 268.202 1388.36 267.088 1392.56 267.088C1396.76 267.088 1399.93 268.202 1402.08 270.43C1404.3 272.659 1405.42 275.872 1405.42 280.071V347.945C1405.42 351.63 1404.39 354.629 1402.33 356.943C1400.36 359.171 1397.66 360.285 1394.24 360.285C1390.81 360.285 1388.11 359.686 1386.14 358.486C1384.17 357.2 1382.07 355.186 1379.84 352.444L1343.84 308.866H1347.7V347.302C1347.7 351.501 1346.59 354.715 1344.36 356.943C1342.22 359.171 1339.05 360.285 1334.85 360.285ZM1444.59 359C1439.96 359 1436.4 357.8 1433.92 355.401C1431.52 352.915 1430.32 349.359 1430.32 344.731V282.642C1430.32 278.015 1431.52 274.501 1433.92 272.101C1436.4 269.616 1439.96 268.374 1444.59 268.374H1469.91C1486.02 268.374 1498.49 272.359 1507.32 280.329C1516.15 288.213 1520.56 299.311 1520.56 313.623C1520.56 320.821 1519.4 327.249 1517.09 332.905C1514.86 338.475 1511.56 343.231 1507.19 347.174C1502.91 351.03 1497.63 353.987 1491.38 356.043C1485.12 358.014 1477.97 359 1469.91 359H1444.59ZM1457.96 336.633H1468.24C1472.27 336.633 1475.74 336.161 1478.65 335.219C1481.65 334.276 1484.14 332.862 1486.11 330.977C1488.08 329.091 1489.54 326.734 1490.48 323.906C1491.42 320.993 1491.89 317.565 1491.89 313.623C1491.89 305.738 1489.92 299.954 1485.98 296.269C1482.12 292.583 1476.21 290.741 1468.24 290.741H1457.96V336.633Z" fill="#FFF0E0"/>
<path d="M927.182 355.401L919.957 362.376L920.079 362.503L920.206 362.625L927.182 355.401ZM927.182 272.101L920.08 265L920.08 265L927.182 272.101ZM986.442 271.33L982.507 280.57L982.58 280.601L982.653 280.631L986.442 271.33ZM996.983 279.429L988.69 285.092L988.737 285.161L988.784 285.228L996.983 279.429ZM996.212 305.267L988.353 299.015L988.309 299.07L988.265 299.126L996.212 305.267ZM984.257 312.98H974.214V326.109L986.886 322.673L984.257 312.98ZM984.257 310.794L986.333 300.969L974.214 298.408V310.794H984.257ZM998.269 318.507L990.596 324.987L990.632 325.029L990.668 325.072L998.269 318.507ZM949.935 338.946H939.892V348.989H949.935V338.946ZM974.616 337.018L981.045 344.733L981.065 344.717L981.085 344.7L974.616 337.018ZM974.616 325.063L967.944 332.569L968.163 332.764L968.393 332.946L974.616 325.063ZM949.935 323.007V312.964H939.892V323.007H949.935ZM949.935 302.953H939.892V312.996H949.935V302.953ZM972.174 301.282L978.054 309.423L978.198 309.319L978.339 309.209L972.174 301.282ZM972.174 290.098L978.054 281.957L978.054 281.957L972.174 290.098ZM949.935 288.427V278.384H939.892V288.427H949.935ZM937.851 348.957C934.919 348.957 934.206 348.223 934.157 348.176L920.206 362.625C925.128 367.377 931.528 369.043 937.851 369.043V348.957ZM934.407 348.425C934.359 348.376 933.625 347.663 933.625 344.731H913.54C913.54 351.055 915.205 357.455 919.957 362.376L934.407 348.425ZM933.625 344.731V282.642H913.54V344.731H933.625ZM933.625 282.642C933.625 281.172 933.819 280.273 933.986 279.782C934.138 279.338 934.267 279.218 934.283 279.203L920.08 265C915.196 269.885 913.54 276.344 913.54 282.642H933.625ZM934.283 279.203C934.345 279.141 935.012 278.416 937.851 278.416V258.331C931.435 258.331 924.989 260.092 920.08 265L934.283 279.203ZM937.851 278.416H969.603V258.331H937.851V278.416ZM969.603 278.416C975.251 278.416 979.446 279.266 982.507 280.57L990.378 262.091C984.183 259.452 977.152 258.331 969.603 258.331V278.416ZM982.653 280.631C985.78 281.905 987.585 283.475 988.69 285.092L1005.28 273.765C1001.58 268.356 996.36 264.526 990.232 262.03L982.653 280.631ZM988.784 285.228C989.956 286.884 990.669 288.926 990.669 291.769H1010.75C1010.75 285.186 1008.98 279.001 1005.18 273.629L988.784 285.228ZM990.669 291.769C990.669 294.932 989.815 297.176 988.353 299.015L1004.07 311.519C1008.61 305.816 1010.75 299.062 1010.75 291.769H990.669ZM988.265 299.126C986.824 300.992 984.794 302.429 981.629 303.287L986.886 322.673C993.833 320.789 999.773 317.084 1004.16 311.408L988.265 299.126ZM994.3 312.98V310.794H974.214V312.98H994.3ZM982.181 320.62C986.6 321.554 989.09 323.203 990.596 324.987L1005.94 312.028C1000.94 306.099 994.084 302.606 986.333 300.969L982.181 320.62ZM990.668 325.072C992.065 326.689 993.111 329.057 993.111 333.033H1013.2C1013.2 325.183 1010.99 317.867 1005.87 311.943L990.668 325.072ZM993.111 333.033C993.111 338.067 991.429 341.426 988.097 344.121L1000.73 359.738C1009.05 353.007 1013.2 343.768 1013.2 333.033H993.111ZM988.097 344.121C984.566 346.977 979.155 348.957 970.76 348.957V369.043C982.246 369.043 992.604 366.309 1000.73 359.738L988.097 344.121ZM970.76 348.957H937.851V369.043H970.76V348.957ZM949.935 348.989H966.903V328.904H949.935V348.989ZM966.903 348.989C971.19 348.989 976.738 348.323 981.045 344.733L968.187 329.303C968.887 328.72 969.363 328.655 969.095 328.721C968.832 328.787 968.153 328.904 966.903 328.904V348.989ZM981.085 344.7C985.526 340.96 987.101 335.797 987.101 330.977H967.016C967.016 331.294 966.966 331.139 967.137 330.716C967.331 330.237 967.682 329.728 968.147 329.336L981.085 344.7ZM987.101 330.977C987.101 326.186 985.532 320.886 980.839 317.181L968.393 332.946C967.819 332.492 967.396 331.897 967.166 331.34C966.964 330.85 967.016 330.651 967.016 330.977H987.101ZM981.288 317.557C976.958 313.708 971.295 312.964 966.903 312.964V333.049C967.489 333.049 967.95 333.078 968.301 333.116C968.653 333.156 968.858 333.202 968.943 333.224C969.138 333.276 968.633 333.182 967.944 332.569L981.288 317.557ZM966.903 312.964H949.935V333.049H966.903V312.964ZM939.892 323.007V338.946H959.978V323.007H939.892ZM949.935 312.996H964.461V292.91H949.935V312.996ZM964.461 312.996C968.56 312.996 973.842 312.465 978.054 309.423L966.294 293.14C966.987 292.64 967.379 292.63 966.962 292.72C966.577 292.803 965.787 292.91 964.461 292.91V312.996ZM978.339 309.209C983.058 305.54 984.53 300.237 984.53 295.626H964.445C964.445 295.936 964.395 295.701 964.614 295.165C964.864 294.555 965.334 293.879 966.008 293.355L978.339 309.209ZM984.53 295.626C984.53 291.061 983.07 285.579 978.054 281.957L966.294 298.24C965.49 297.659 964.936 296.889 964.645 296.194C964.392 295.589 964.445 295.306 964.445 295.626H984.53ZM978.054 281.957C973.842 278.915 968.56 278.384 964.461 278.384V298.47C965.787 298.47 966.577 298.577 966.962 298.66C967.379 298.75 966.987 298.74 966.294 298.24L978.054 281.957ZM964.461 278.384H949.935V298.47H964.461V278.384ZM939.892 288.427V302.953H959.978V288.427H939.892ZM1028.73 355.401L1021.5 362.376L1021.63 362.503L1021.75 362.625L1028.73 355.401ZM1028.73 272.101L1021.63 265L1021.63 265L1028.73 272.101ZM1089.79 271.073L1082.69 278.174L1082.69 278.174L1089.79 271.073ZM1089.79 286.756L1082.69 279.655L1082.69 279.655L1089.79 286.756ZM1051.48 289.455V279.413H1041.44V289.455H1051.48ZM1051.48 302.439H1041.44V312.482H1051.48V302.439ZM1086.83 305.138L1079.73 312.24L1079.73 312.24L1086.83 305.138ZM1086.83 320.821L1079.73 313.72L1079.73 313.72L1086.83 320.821ZM1051.48 323.521V313.478H1041.44V323.521H1051.48ZM1051.48 337.918H1041.44V347.961H1051.48V337.918ZM1089.79 340.618L1082.69 347.719L1082.69 347.719L1089.79 340.618ZM1089.79 356.3L1082.69 349.199L1082.69 349.199L1089.79 356.3ZM1039.4 348.957C1036.47 348.957 1035.75 348.223 1035.71 348.176L1021.75 362.625C1026.68 367.377 1033.08 369.043 1039.4 369.043V348.957ZM1035.95 348.425C1035.91 348.376 1035.17 347.663 1035.17 344.731H1015.09C1015.09 351.055 1016.75 357.455 1021.5 362.376L1035.95 348.425ZM1035.17 344.731V282.642H1015.09V344.731H1035.17ZM1035.17 282.642C1035.17 281.172 1035.37 280.273 1035.53 279.782C1035.69 279.338 1035.82 279.218 1035.83 279.203L1021.63 265C1016.74 269.885 1015.09 276.344 1015.09 282.642H1035.17ZM1035.83 279.203C1035.89 279.141 1036.56 278.416 1039.4 278.416V258.331C1032.98 258.331 1026.54 260.092 1021.63 265L1035.83 279.203ZM1039.4 278.416H1081.82V258.331H1039.4V278.416ZM1081.82 278.416C1082.75 278.416 1083.16 278.538 1083.23 278.56C1083.25 278.569 1083.19 278.551 1083.08 278.482C1082.96 278.411 1082.82 278.308 1082.69 278.174L1096.89 263.972C1092.59 259.666 1086.96 258.331 1081.82 258.331V278.416ZM1082.69 278.174C1082.57 278.055 1082.47 277.929 1082.4 277.816C1082.34 277.705 1082.31 277.641 1082.32 277.652C1082.33 277.689 1082.45 278.057 1082.45 278.915H1102.53C1102.53 273.774 1101.15 268.235 1096.89 263.972L1082.69 278.174ZM1082.45 278.915C1082.45 279.772 1082.33 280.14 1082.32 280.177C1082.31 280.188 1082.34 280.124 1082.4 280.013C1082.47 279.9 1082.57 279.774 1082.69 279.655L1096.89 293.857C1101.15 289.594 1102.53 284.055 1102.53 278.915H1082.45ZM1082.69 279.655C1082.82 279.521 1082.96 279.418 1083.08 279.347C1083.19 279.278 1083.25 279.26 1083.23 279.269C1083.16 279.291 1082.75 279.413 1081.82 279.413V299.498C1086.96 299.498 1092.59 298.163 1096.89 293.857L1082.69 279.655ZM1081.82 279.413H1051.48V299.498H1081.82V279.413ZM1041.44 289.455V302.439H1061.53V289.455H1041.44ZM1051.48 312.482H1078.86V292.396H1051.48V312.482ZM1078.86 312.482C1079.79 312.482 1080.2 312.603 1080.27 312.626C1080.29 312.634 1080.23 312.616 1080.12 312.547C1080 312.476 1079.87 312.374 1079.73 312.24L1093.93 298.037C1089.63 293.731 1084.01 292.396 1078.86 292.396V312.482ZM1079.73 312.24C1079.61 312.12 1079.52 311.994 1079.45 311.881C1079.38 311.77 1079.36 311.706 1079.36 311.718C1079.38 311.755 1079.49 312.122 1079.49 312.98H1099.58C1099.58 307.839 1098.2 302.3 1093.93 298.037L1079.73 312.24ZM1079.49 312.98C1079.49 313.838 1079.38 314.205 1079.36 314.242C1079.36 314.254 1079.38 314.189 1079.45 314.079C1079.52 313.965 1079.61 313.839 1079.73 313.72L1093.93 327.923C1098.2 323.659 1099.58 318.12 1099.58 312.98H1079.49ZM1079.73 313.72C1079.87 313.586 1080 313.483 1080.12 313.413C1080.23 313.344 1080.29 313.326 1080.27 313.334C1080.2 313.356 1079.79 313.478 1078.86 313.478V333.564C1084.01 333.564 1089.63 332.229 1093.93 327.923L1079.73 313.72ZM1078.86 313.478H1051.48V333.564H1078.86V313.478ZM1041.44 323.521V337.918H1061.53V323.521H1041.44ZM1051.48 347.961H1081.82V327.875H1051.48V347.961ZM1081.82 347.961C1082.75 347.961 1083.16 348.083 1083.23 348.105C1083.25 348.113 1083.19 348.095 1083.08 348.026C1082.96 347.956 1082.82 347.853 1082.69 347.719L1096.89 333.516C1092.59 329.21 1086.96 327.875 1081.82 327.875V347.961ZM1082.69 347.719C1082.57 347.599 1082.47 347.473 1082.4 347.36C1082.34 347.25 1082.31 347.185 1082.32 347.197C1082.33 347.234 1082.45 347.601 1082.45 348.459H1102.53C1102.53 343.319 1101.15 337.779 1096.89 333.516L1082.69 347.719ZM1082.45 348.459C1082.45 349.317 1082.33 349.684 1082.32 349.721C1082.31 349.733 1082.34 349.669 1082.4 349.558C1082.47 349.445 1082.57 349.319 1082.69 349.199L1096.89 363.402C1101.15 359.139 1102.53 353.599 1102.53 348.459H1082.45ZM1082.69 349.199C1082.82 349.065 1082.96 348.963 1083.08 348.892C1083.19 348.823 1083.25 348.805 1083.23 348.813C1083.16 348.836 1082.75 348.957 1081.82 348.957V369.043C1086.96 369.043 1092.59 367.708 1096.89 363.402L1082.69 349.199ZM1081.82 348.957H1039.4V369.043H1081.82V348.957ZM1141.07 356.686L1133.84 363.662L1133.91 363.725L1133.97 363.787L1141.07 356.686ZM1137.47 312.851L1146.89 309.361L1127.43 312.851H1137.47ZM1143 327.763L1134.7 333.421L1152.41 324.272L1143 327.763ZM1114.33 285.728L1106.02 291.367L1106.03 291.376L1106.03 291.386L1114.33 285.728ZM1112.27 277.758L1102.27 276.875L1102.27 276.875L1112.27 277.758ZM1115.87 270.302L1122.83 277.547L1122.9 277.476L1122.97 277.403L1115.87 270.302ZM1132.71 269.145L1127.45 277.698L1127.52 277.742L1127.59 277.785L1132.71 269.145ZM1139.27 275.958L1130.84 281.423L1130.85 281.438L1130.86 281.453L1139.27 275.958ZM1154.31 298.968V309.011H1172.87L1162.72 293.473L1154.31 298.968ZM1149.04 298.968L1140.64 293.462L1130.45 309.011H1149.04V298.968ZM1164.21 275.829L1172.61 281.335L1172.62 281.315L1172.63 281.295L1164.21 275.829ZM1170.63 269.145L1175.65 277.844L1175.78 277.773L1175.9 277.698L1170.63 269.145ZM1187.22 270.045L1180.27 277.295L1180.42 277.443L1180.58 277.584L1187.22 270.045ZM1190.69 277.243L1200.71 276.654L1200.71 276.654L1190.69 277.243ZM1187.99 285.985L1196.29 291.632L1196.3 291.622L1196.31 291.612L1187.99 285.985ZM1159.58 327.763L1150.16 324.272L1167.88 333.41L1159.58 327.763ZM1165.11 312.851H1175.15L1155.69 309.361L1165.11 312.851ZM1151.35 350.243C1150.01 350.243 1149.19 350.06 1148.76 349.907C1148.36 349.769 1148.23 349.644 1148.17 349.585L1133.97 363.787C1138.79 368.605 1145.1 370.328 1151.35 370.328V350.243ZM1148.29 349.71C1148.25 349.661 1147.51 348.948 1147.51 346.017H1127.43C1127.43 352.34 1129.09 358.74 1133.84 363.662L1148.29 349.71ZM1147.51 346.017V312.851H1127.43V346.017H1147.51ZM1128.05 316.342L1133.58 331.253L1152.41 324.272L1146.89 309.361L1128.05 316.342ZM1151.29 322.105L1122.63 280.069L1106.03 291.386L1134.7 333.421L1151.29 322.105ZM1122.64 280.089C1122.32 279.621 1122.22 279.272 1122.28 278.64L1102.27 276.875C1101.81 282.071 1103.08 287.035 1106.02 291.367L1122.64 280.089ZM1122.28 278.64C1122.32 278.187 1122.41 277.95 1122.83 277.547L1108.92 263.057C1105.05 266.768 1102.74 271.501 1102.27 276.875L1122.28 278.64ZM1122.97 277.403C1122.89 277.486 1122.86 277.456 1123.09 277.379C1123.36 277.285 1123.98 277.131 1125.13 277.131V257.045C1119.34 257.045 1113.35 258.618 1108.77 263.2L1122.97 277.403ZM1125.13 277.131C1126.25 277.131 1126.93 277.38 1127.45 277.698L1137.98 260.592C1134.04 258.168 1129.66 257.045 1125.13 257.045V277.131ZM1127.59 277.785C1128.15 278.113 1129.31 279.058 1130.84 281.423L1147.69 270.493C1145.12 266.517 1141.91 262.919 1137.83 260.505L1127.59 277.785ZM1130.86 281.453L1145.9 304.463L1162.72 293.473L1147.68 270.463L1130.86 281.453ZM1154.31 288.925H1149.04V309.011H1154.31V288.925ZM1157.44 304.474L1172.61 281.335L1155.81 270.323L1140.64 293.462L1157.44 304.474ZM1172.63 281.295C1174.2 278.878 1175.29 278.051 1175.65 277.844L1165.62 260.446C1161.52 262.809 1158.33 266.439 1155.78 270.364L1172.63 281.295ZM1175.9 277.698C1176.37 277.409 1177.07 277.131 1178.35 277.131V257.045C1173.79 257.045 1169.36 258.139 1165.37 260.592L1175.9 277.698ZM1178.35 277.131C1179.44 277.131 1180.04 277.273 1180.28 277.355C1180.48 277.422 1180.41 277.432 1180.27 277.295L1194.17 262.794C1189.66 258.474 1183.86 257.045 1178.35 257.045V277.131ZM1180.58 277.584C1180.66 277.652 1180.69 277.686 1180.68 277.682C1180.68 277.677 1180.66 277.654 1180.65 277.62C1180.63 277.586 1180.63 277.571 1180.63 277.59C1180.64 277.611 1180.65 277.687 1180.66 277.833L1200.71 276.654C1200.39 271.132 1198.06 266.207 1193.85 262.505L1180.58 277.584ZM1180.66 277.833C1180.68 278.119 1180.67 278.886 1179.67 280.358L1196.31 291.612C1199.25 287.256 1201.04 282.195 1200.71 276.654L1180.66 277.833ZM1179.68 280.337L1151.28 322.116L1167.88 333.41L1196.29 291.632L1179.68 280.337ZM1169 331.253L1174.52 316.342L1155.69 309.361L1150.16 324.272L1169 331.253ZM1155.06 312.851V346.017H1175.15V312.851H1155.06ZM1155.06 346.017C1155.06 349.315 1154.26 349.928 1154.44 349.748C1154.68 349.5 1154.29 350.243 1151.35 350.243V370.328C1157.58 370.328 1164.07 368.693 1168.9 363.688C1173.66 358.752 1175.15 352.231 1175.15 346.017H1155.06ZM1226.83 354.629L1221.96 363.413L1221.98 363.426L1222 363.438L1226.83 354.629ZM1210.11 338.175L1201.33 343.043L1201.37 343.107L1201.4 343.169L1210.11 338.175ZM1207.54 294.469L1198.23 290.715L1198.2 290.775L1198.18 290.836L1207.54 294.469ZM1217.31 279.686L1210.29 272.512L1210.29 272.512L1217.31 279.686ZM1232.35 270.173L1228.77 260.793L1228.77 260.793L1232.35 270.173ZM1276.45 272.744L1271.58 281.528L1271.62 281.551L1271.66 281.573L1276.45 272.744ZM1293.03 289.07L1284.27 293.983L1284.29 294.024L1284.31 294.064L1293.03 289.07ZM1295.6 332.776L1286.28 329.022L1286.26 329.083L1286.24 329.143L1295.6 332.776ZM1285.96 347.688L1292.99 354.862L1293.02 354.826L1293.06 354.789L1285.96 347.688ZM1270.92 357.2L1267.33 347.82L1267.33 347.82L1270.92 357.2ZM1261.66 334.704L1267.35 342.98L1267.38 342.962L1267.4 342.944L1261.66 334.704ZM1268.09 326.477L1258.86 322.521L1258.84 322.576L1258.81 322.631L1268.09 326.477ZM1265.39 296.14L1257.53 302.394L1257.53 302.394L1265.39 296.14ZM1235.05 300.768L1225.86 296.731L1225.82 296.825L1225.78 296.921L1235.05 300.768ZM1237.88 331.234L1230.02 337.488L1230.02 337.488L1237.88 331.234ZM1251.64 350.5C1243.74 350.5 1237.18 348.847 1231.65 345.821L1222 363.438C1230.87 368.296 1240.84 370.585 1251.64 370.585V350.5ZM1231.69 345.845C1226.18 342.788 1221.94 338.611 1218.83 333.181L1201.4 343.169C1206.34 351.794 1213.25 358.586 1221.96 363.413L1231.69 345.845ZM1218.9 333.307C1215.89 327.879 1214.24 321.413 1214.24 313.623H1194.16C1194.16 324.343 1196.45 334.245 1201.33 343.043L1218.9 333.307ZM1214.24 313.623C1214.24 307.664 1215.19 302.534 1216.91 298.102L1198.18 290.836C1195.44 297.887 1194.16 305.526 1194.16 313.623H1214.24ZM1216.86 298.223C1218.68 293.697 1221.18 289.952 1224.34 286.86L1210.29 272.512C1205.04 277.646 1201.03 283.757 1198.23 290.715L1216.86 298.223ZM1224.34 286.86C1227.5 283.768 1231.32 281.321 1235.94 279.554L1228.77 260.793C1221.73 263.482 1215.53 267.376 1210.29 272.512L1224.34 286.86ZM1235.94 279.554C1240.49 277.815 1245.68 276.874 1251.64 276.874V256.788C1243.54 256.788 1235.87 258.075 1228.77 260.793L1235.94 279.554ZM1251.64 276.874C1259.63 276.874 1266.18 278.535 1271.58 281.528L1281.31 263.96C1272.49 259.069 1262.49 256.788 1251.64 256.788V276.874ZM1271.66 281.573C1277.11 284.529 1281.26 288.617 1284.27 293.983L1301.79 284.156C1296.91 275.468 1290 268.672 1281.23 263.915L1271.66 281.573ZM1284.31 294.064C1287.35 299.351 1289.03 305.762 1289.03 313.623H1309.11C1309.11 302.801 1306.77 292.843 1301.74 284.076L1284.31 294.064ZM1289.03 313.623C1289.03 319.536 1288.06 324.624 1286.28 329.022L1304.91 336.53C1307.77 329.445 1309.11 321.763 1309.11 313.623H1289.03ZM1286.24 329.143C1284.49 333.634 1282.03 337.41 1278.86 340.586L1293.06 354.789C1298.28 349.567 1302.25 343.402 1304.96 336.409L1286.24 329.143ZM1278.93 340.514C1275.77 343.605 1271.95 346.053 1267.33 347.82L1274.5 366.581C1281.54 363.892 1287.74 359.997 1292.99 354.862L1278.93 340.514ZM1267.33 347.82C1262.78 349.558 1257.59 350.5 1251.64 350.5V370.585C1259.73 370.585 1267.4 369.299 1274.5 366.581L1267.33 347.82ZM1251.64 347.575C1257.23 347.575 1262.64 346.216 1267.35 342.98L1255.97 326.429C1255.19 326.964 1253.93 327.49 1251.64 327.49V347.575ZM1267.4 342.944C1271.97 339.764 1275.25 335.419 1277.37 330.324L1258.81 322.631C1258.01 324.563 1257.01 325.703 1255.92 326.465L1267.4 342.944ZM1277.32 330.433C1279.52 325.296 1280.45 319.6 1280.45 313.623H1260.36C1260.36 317.586 1259.74 320.46 1258.86 322.521L1277.32 330.433ZM1280.45 313.623C1280.45 304.766 1278.47 296.442 1273.25 289.886L1257.53 302.394C1259 304.236 1260.36 307.567 1260.36 313.623H1280.45ZM1273.25 289.886C1267.82 283.067 1260.22 279.798 1251.64 279.798V299.884C1254.7 299.884 1256.28 300.815 1257.53 302.394L1273.25 289.886ZM1251.64 279.798C1246.07 279.798 1240.73 281.184 1236.04 284.313L1247.18 301.025C1248.14 300.383 1249.49 299.884 1251.64 299.884V279.798ZM1236.04 284.313C1231.41 287.395 1228.07 291.694 1225.86 296.731L1244.25 304.805C1245.12 302.814 1246.15 301.714 1247.18 301.025L1236.04 284.313ZM1225.78 296.921C1223.68 301.984 1222.82 307.658 1222.82 313.623H1242.91C1242.91 309.475 1243.51 306.579 1244.33 304.614L1225.78 296.921ZM1222.82 313.623C1222.82 322.532 1224.79 330.914 1230.02 337.488L1245.74 324.979C1244.29 323.155 1242.91 319.796 1242.91 313.623H1222.82ZM1230.02 337.488C1235.45 344.307 1243.05 347.575 1251.64 347.575V327.49C1248.57 327.49 1247 326.559 1245.74 324.979L1230.02 337.488ZM1325.2 356.943L1317.97 363.904L1318.03 363.975L1318.1 364.045L1325.2 356.943ZM1325.2 270.687L1317.85 263.854L1317.84 263.859L1317.84 263.864L1325.2 270.687ZM1341.4 269.016L1335.56 277.188L1335.78 277.345L1336.01 277.489L1341.4 269.016ZM1347.57 274.93L1339.78 281.262L1339.8 281.294L1339.83 281.325L1347.57 274.93ZM1383.57 318.507V328.55H1404.89L1391.31 312.112L1383.57 318.507ZM1379.71 318.507H1369.67V328.55H1379.71V318.507ZM1382.92 270.43L1375.82 263.329L1375.75 263.399L1375.68 263.47L1382.92 270.43ZM1402.08 270.43L1394.84 277.391L1394.91 277.462L1394.98 277.532L1402.08 270.43ZM1402.33 356.943L1394.83 350.271L1394.82 350.28L1394.81 350.289L1402.33 356.943ZM1386.14 358.486L1380.65 366.898L1380.78 366.983L1380.92 367.064L1386.14 358.486ZM1379.84 352.444L1387.63 346.111L1387.61 346.08L1387.58 346.049L1379.84 352.444ZM1343.84 308.866V298.823H1322.52L1336.1 315.262L1343.84 308.866ZM1347.7 308.866H1357.74V298.823H1347.7V308.866ZM1344.36 356.943L1337.26 349.842L1337.19 349.911L1337.12 349.982L1344.36 356.943ZM1334.85 350.243C1333.61 350.243 1332.91 350.077 1332.58 349.961C1332.29 349.861 1332.26 349.799 1332.31 349.842L1318.1 364.045C1322.78 368.717 1328.9 370.328 1334.85 370.328V350.243ZM1332.44 349.982C1332.5 350.044 1332.43 350.014 1332.32 349.686C1332.2 349.315 1332.03 348.57 1332.03 347.302H1311.95C1311.95 353.148 1313.46 359.217 1317.97 363.904L1332.44 349.982ZM1332.03 347.302V280.714H1311.95V347.302H1332.03ZM1332.03 280.714C1332.03 279.325 1332.21 278.467 1332.36 277.995C1332.43 277.767 1332.5 277.637 1332.53 277.577C1332.55 277.546 1332.56 277.528 1332.57 277.52C1332.57 277.516 1332.57 277.513 1332.57 277.512C1332.57 277.512 1332.57 277.511 1332.57 277.511C1332.57 277.511 1332.57 277.511 1332.57 277.511L1317.84 263.864C1313.41 268.648 1311.95 274.797 1311.95 280.714H1332.03ZM1332.56 277.521C1332.71 277.368 1332.79 277.327 1332.87 277.294C1332.98 277.25 1333.33 277.131 1334.07 277.131V257.045C1327.98 257.045 1322.22 259.141 1317.85 263.854L1332.56 277.521ZM1334.07 277.131C1335.87 277.131 1336.02 277.515 1335.56 277.188L1347.24 260.844C1343.18 257.946 1338.45 257.045 1334.07 257.045V277.131ZM1336.01 277.489C1336.61 277.873 1337.88 278.93 1339.78 281.262L1355.37 268.597C1352.81 265.444 1349.96 262.559 1346.79 260.544L1336.01 277.489ZM1339.83 281.325L1375.82 324.903L1391.31 312.112L1355.32 268.534L1339.83 281.325ZM1383.57 308.465H1379.71V328.55H1383.57V308.465ZM1389.75 318.507V280.071H1369.67V318.507H1389.75ZM1389.75 280.071C1389.75 278.803 1389.92 278.059 1390.04 277.688C1390.15 277.359 1390.22 277.329 1390.16 277.391L1375.68 263.47C1371.18 268.156 1369.67 274.226 1369.67 280.071H1389.75ZM1390.02 277.532C1389.98 277.575 1390.01 277.512 1390.29 277.412C1390.63 277.297 1391.33 277.131 1392.56 277.131V257.045C1386.62 257.045 1380.49 258.656 1375.82 263.329L1390.02 277.532ZM1392.56 277.131C1393.8 277.131 1394.48 277.298 1394.76 277.399C1395 277.481 1394.95 277.506 1394.84 277.391L1409.32 263.47C1404.68 258.646 1398.48 257.045 1392.56 257.045V277.131ZM1394.98 277.532C1394.93 277.488 1394.99 277.513 1395.09 277.801C1395.21 278.135 1395.38 278.839 1395.38 280.071H1415.46C1415.46 274.124 1413.85 268.002 1409.18 263.329L1394.98 277.532ZM1395.38 280.071V347.945H1415.46V280.071H1395.38ZM1395.38 347.945C1395.38 349.664 1394.95 350.134 1394.83 350.271L1409.84 363.615C1413.83 359.125 1415.46 353.596 1415.46 347.945H1395.38ZM1394.81 350.289C1394.8 350.301 1394.82 350.276 1394.87 350.238C1394.93 350.201 1394.98 350.177 1395 350.167C1395.06 350.143 1394.86 350.243 1394.24 350.243V370.328C1400.06 370.328 1405.68 368.318 1409.86 363.597L1394.81 350.289ZM1394.24 350.243C1393.09 350.243 1392.31 350.14 1391.82 350.032C1391.34 349.925 1391.24 349.834 1391.36 349.907L1380.92 367.064C1385.05 369.579 1389.8 370.328 1394.24 370.328V350.243ZM1391.62 350.074C1390.84 349.566 1389.5 348.408 1387.63 346.111L1372.04 358.777C1374.63 361.965 1377.49 364.834 1380.65 366.898L1391.62 350.074ZM1387.58 346.049L1351.59 302.471L1336.1 315.262L1372.09 358.84L1387.58 346.049ZM1343.84 318.909H1347.7V298.823H1343.84V318.909ZM1337.66 308.866V347.302H1357.74V308.866H1337.66ZM1337.66 347.302C1337.66 348.535 1337.49 349.238 1337.38 349.572C1337.28 349.861 1337.21 349.885 1337.26 349.842L1351.46 364.045C1356.13 359.372 1357.74 353.249 1357.74 347.302H1337.66ZM1337.12 349.982C1337.23 349.868 1337.28 349.892 1337.04 349.975C1336.76 350.076 1336.08 350.243 1334.85 350.243V370.328C1340.77 370.328 1346.96 368.727 1351.6 363.904L1337.12 349.982ZM1433.92 355.401L1426.69 362.376L1426.82 362.503L1426.94 362.625L1433.92 355.401ZM1433.92 272.101L1426.82 265L1426.82 265L1433.92 272.101ZM1507.32 280.329L1500.59 287.783L1500.61 287.801L1500.63 287.819L1507.32 280.329ZM1517.09 332.905L1507.79 329.102L1507.78 329.138L1507.76 329.175L1517.09 332.905ZM1507.19 347.174L1513.91 354.638L1513.92 354.631L1507.19 347.174ZM1491.38 356.043L1494.4 365.622L1494.46 365.603L1494.52 365.584L1491.38 356.043ZM1457.96 336.633H1447.91V346.675H1457.96V336.633ZM1478.65 335.219L1475.64 325.638L1475.6 325.65L1475.56 325.663L1478.65 335.219ZM1486.11 330.977L1493.05 338.234L1493.05 338.234L1486.11 330.977ZM1490.48 323.906L1500.01 327.082L1500.02 327.04L1500.03 326.998L1490.48 323.906ZM1485.98 296.269L1479.04 303.529L1479.08 303.567L1479.12 303.605L1485.98 296.269ZM1457.96 290.741V280.698H1447.91V290.741H1457.96ZM1444.59 348.957C1441.66 348.957 1440.94 348.223 1440.89 348.176L1426.94 362.625C1431.86 367.377 1438.26 369.043 1444.59 369.043V348.957ZM1441.14 348.425C1441.1 348.376 1440.36 347.663 1440.36 344.731H1420.28C1420.28 351.055 1421.94 357.455 1426.69 362.376L1441.14 348.425ZM1440.36 344.731V282.642H1420.28V344.731H1440.36ZM1440.36 282.642C1440.36 281.172 1440.55 280.273 1440.72 279.782C1440.87 279.338 1441 279.218 1441.02 279.203L1426.82 265C1421.93 269.885 1420.28 276.344 1420.28 282.642H1440.36ZM1441.02 279.203C1441.08 279.141 1441.75 278.416 1444.59 278.416V258.331C1438.17 258.331 1431.72 260.092 1426.82 265L1441.02 279.203ZM1444.59 278.416H1469.91V258.331H1444.59V278.416ZM1469.91 278.416C1484.43 278.416 1494.18 281.993 1500.59 287.783L1514.05 272.875C1502.81 262.724 1487.62 258.331 1469.91 258.331V278.416ZM1500.63 287.819C1506.88 293.403 1510.52 301.52 1510.52 313.623H1530.6C1530.6 297.101 1525.41 283.022 1514.01 272.839L1500.63 287.819ZM1510.52 313.623C1510.52 319.745 1509.53 324.848 1507.79 329.102L1526.38 336.707C1529.27 329.65 1530.6 321.897 1530.6 313.623H1510.52ZM1507.76 329.175C1506.09 333.349 1503.67 336.822 1500.46 339.716L1513.92 354.631C1519.45 349.641 1523.63 343.601 1526.41 336.635L1507.76 329.175ZM1500.47 339.709C1497.36 342.508 1493.36 344.82 1488.24 346.503L1494.52 365.584C1501.91 363.153 1508.45 359.552 1513.91 354.638L1500.47 339.709ZM1488.36 346.465C1483.27 348.067 1477.17 348.957 1469.91 348.957V369.043C1478.77 369.043 1486.97 367.962 1494.4 365.622L1488.36 346.465ZM1469.91 348.957H1444.59V369.043H1469.91V348.957ZM1457.96 346.675H1468.24V326.59H1457.96V346.675ZM1468.24 346.675C1473.01 346.675 1477.57 346.123 1481.74 344.774L1475.56 325.663C1473.9 326.2 1471.53 326.59 1468.24 326.59V346.675ZM1481.66 344.799C1485.91 343.465 1489.81 341.337 1493.05 338.234L1479.17 323.719C1478.47 324.387 1477.39 325.087 1475.64 325.638L1481.66 344.799ZM1493.05 338.234C1496.31 335.116 1498.6 331.314 1500.01 327.082L1480.95 320.731C1480.48 322.155 1479.85 323.066 1479.17 323.719L1493.05 338.234ZM1500.03 326.998C1501.38 322.846 1501.94 318.329 1501.94 313.623H1481.85C1481.85 316.8 1481.47 319.139 1480.92 320.815L1500.03 326.998ZM1501.94 313.623C1501.94 304.251 1499.59 295.249 1492.84 288.932L1479.12 303.605C1480.25 304.659 1481.85 307.225 1481.85 313.623H1501.94ZM1492.92 289.008C1486.45 282.826 1477.54 280.698 1468.24 280.698V300.784C1474.88 300.784 1477.8 302.341 1479.04 303.529L1492.92 289.008ZM1468.24 280.698H1457.96V300.784H1468.24V280.698ZM1447.91 290.741V336.633H1468V290.741H1447.91Z" fill="#0B8F2C" mask="url(#path-4-outside-1_47_2)"/>
<path d="M764.252 536.506C759.03 536.506 755.013 535.1 752.201 532.288C749.389 529.376 747.983 525.309 747.983 520.086V455.009H727.495C723.177 455.009 719.863 453.904 717.553 451.695C715.344 449.385 714.239 446.121 714.239 441.903C714.239 437.685 715.344 434.471 717.553 432.262C719.863 429.952 723.177 428.797 727.495 428.797H800.858C805.177 428.797 808.441 429.952 810.65 432.262C812.96 434.471 814.115 437.685 814.115 441.903C814.115 446.121 812.96 449.385 810.65 451.695C808.441 453.904 805.177 455.009 800.858 455.009H780.371V520.086C780.371 525.309 779.015 529.376 776.304 532.288C773.592 535.1 769.575 536.506 764.252 536.506ZM876.214 536.506C870.991 536.506 866.974 535.1 864.162 532.288C861.35 529.376 859.944 525.258 859.944 519.936V443.861C859.944 438.539 861.35 434.471 864.162 431.659C866.974 428.747 870.991 427.291 876.214 427.291C881.436 427.291 885.403 428.747 888.114 431.659C890.926 434.471 892.332 438.539 892.332 443.861V467.964H929.993V443.861C929.993 438.539 931.399 434.471 934.211 431.659C937.023 428.747 941.04 427.291 946.262 427.291C951.485 427.291 955.451 428.747 958.163 431.659C960.975 434.471 962.381 438.539 962.381 443.861V519.936C962.381 525.258 960.975 529.376 958.163 532.288C955.451 535.1 951.485 536.506 946.262 536.506C941.04 536.506 937.023 535.1 934.211 532.288C931.399 529.376 929.993 525.258 929.993 519.936V494.477H892.332V519.936C892.332 525.258 890.977 529.376 888.265 532.288C885.553 535.1 881.536 536.506 876.214 536.506ZM1033.93 535C1028.5 535 1024.34 533.594 1021.42 530.782C1018.61 527.87 1017.21 523.702 1017.21 518.279V445.518C1017.21 440.095 1018.61 435.978 1021.42 433.166C1024.34 430.253 1028.5 428.797 1033.93 428.797H1083.64C1087.76 428.797 1090.87 429.852 1092.98 431.961C1095.09 434.07 1096.14 437.133 1096.14 441.15C1096.14 445.167 1095.09 448.23 1092.98 450.339C1090.87 452.448 1087.76 453.502 1083.64 453.502H1048.09V468.717H1080.18C1084.29 468.717 1087.41 469.772 1089.51 471.881C1091.62 473.99 1092.68 477.053 1092.68 481.07C1092.68 485.087 1091.62 488.15 1089.51 490.259C1087.41 492.368 1084.29 493.423 1080.18 493.423H1048.09V510.295H1083.64C1087.76 510.295 1090.87 511.349 1092.98 513.458C1095.09 515.567 1096.14 518.63 1096.14 522.647C1096.14 526.664 1095.09 529.728 1092.98 531.837C1090.87 533.946 1087.76 535 1083.64 535H1033.93ZM1272.09 536.808C1268.27 536.808 1264.2 536.506 1259.88 535.904C1255.56 535.402 1251.4 534.699 1247.38 533.795C1243.46 532.791 1239.95 531.686 1236.83 530.481C1233.62 529.175 1231.36 527.317 1230.06 524.907C1228.75 522.396 1228.25 519.735 1228.55 516.923C1228.85 514.111 1229.8 511.6 1231.41 509.391C1233.02 507.181 1235.18 505.675 1237.89 504.872C1240.6 503.968 1243.66 504.219 1247.08 505.625C1250.59 507.031 1254.71 508.186 1259.43 509.09C1264.25 509.993 1268.47 510.445 1272.09 510.445C1277.91 510.445 1281.88 509.793 1283.99 508.487C1286.09 507.181 1287.15 505.675 1287.15 503.968C1287.15 502.361 1286.4 501.055 1284.89 500.051C1283.48 498.946 1280.82 497.992 1276.91 497.189L1258.83 493.272C1249.09 491.163 1241.86 487.548 1237.14 482.426C1232.42 477.304 1230.06 470.726 1230.06 462.692C1230.06 457.269 1231.16 452.398 1233.37 448.079C1235.68 443.661 1238.89 439.894 1243.01 436.781C1247.13 433.668 1252.05 431.258 1257.77 429.55C1263.5 427.843 1269.88 426.989 1276.91 426.989C1281.63 426.989 1286.65 427.492 1291.97 428.496C1297.29 429.5 1301.86 430.956 1305.68 432.864C1308.39 434.17 1310.35 436.028 1311.55 438.438C1312.86 440.849 1313.41 443.359 1313.21 445.97C1313.01 448.582 1312.16 450.942 1310.65 453.051C1309.24 455.059 1307.24 456.465 1304.62 457.269C1302.01 457.972 1298.85 457.67 1295.13 456.365C1292.62 455.461 1289.61 454.758 1286.09 454.256C1282.58 453.653 1279.37 453.352 1276.45 453.352C1273.24 453.352 1270.53 453.703 1268.32 454.406C1266.11 455.009 1264.45 455.913 1263.35 457.118C1262.24 458.223 1261.69 459.528 1261.69 461.035C1261.69 462.34 1262.39 463.545 1263.8 464.65C1265.21 465.654 1267.92 466.558 1271.93 467.362L1290.01 471.278C1299.65 473.387 1306.83 476.952 1311.55 481.974C1316.37 486.995 1318.78 493.423 1318.78 501.256C1318.78 506.679 1317.68 511.6 1315.47 516.019C1313.26 520.337 1310.1 524.053 1305.98 527.167C1301.96 530.28 1297.09 532.69 1291.37 534.397C1285.64 536.004 1279.22 536.808 1272.09 536.808ZM1417.02 536.808C1409.08 536.808 1402.05 535.803 1395.93 533.795C1389.8 531.786 1384.63 528.824 1380.41 524.907C1376.19 520.89 1373.03 515.868 1370.92 509.843C1368.81 503.817 1367.76 496.787 1367.76 488.753V443.711C1367.76 438.388 1369.16 434.321 1371.97 431.509C1374.79 428.697 1378.8 427.291 1384.03 427.291C1389.25 427.291 1393.21 428.697 1395.93 431.509C1398.74 434.321 1400.14 438.388 1400.14 443.711V489.355C1400.14 496.084 1401.6 501.206 1404.51 504.721C1407.43 508.135 1411.59 509.843 1417.02 509.843C1422.44 509.843 1426.61 508.135 1429.52 504.721C1432.43 501.206 1433.89 496.084 1433.89 489.355V443.711C1433.89 438.388 1435.24 434.321 1437.96 431.509C1440.77 428.697 1444.73 427.291 1449.86 427.291C1454.98 427.291 1458.89 428.697 1461.61 431.509C1464.32 434.321 1465.67 438.388 1465.67 443.711V488.753C1465.67 499.499 1463.82 508.437 1460.1 515.567C1456.48 522.698 1451.06 528.02 1443.83 531.535C1436.6 535.05 1427.66 536.808 1417.02 536.808ZM1536.46 535C1531.04 535 1526.87 533.594 1523.96 530.782C1521.15 527.87 1519.74 523.702 1519.74 518.279V445.518C1519.74 440.095 1521.15 435.978 1523.96 433.166C1526.87 430.253 1531.04 428.797 1536.46 428.797H1573.67C1581.4 428.797 1587.98 429.952 1593.4 432.262C1598.83 434.471 1602.94 437.635 1605.76 441.752C1608.67 445.87 1610.13 450.691 1610.13 456.214C1610.13 462.34 1608.37 467.613 1604.85 472.032C1601.44 476.45 1596.77 479.463 1590.84 481.07V478.509C1597.97 480.016 1603.45 483.028 1607.26 487.548C1611.08 491.967 1612.99 497.641 1612.99 504.57C1612.99 513.81 1609.57 521.191 1602.74 526.715C1595.91 532.238 1586.68 535 1575.03 535H1536.46ZM1550.62 511.5H1570.51C1574.72 511.5 1577.74 510.747 1579.55 509.24C1581.45 507.633 1582.41 505.273 1582.41 502.16C1582.41 499.047 1581.45 496.737 1579.55 495.23C1577.74 493.624 1574.72 492.82 1570.51 492.82H1550.62V511.5ZM1550.62 469.32H1567.64C1571.86 469.32 1574.88 468.667 1576.68 467.362C1578.49 465.956 1579.39 463.746 1579.39 460.733C1579.39 457.72 1578.49 455.561 1576.68 454.256C1574.88 452.95 1571.86 452.297 1567.64 452.297H1550.62V469.32ZM1705.48 536.808C1701.66 536.808 1697.59 536.506 1693.27 535.904C1688.96 535.402 1684.79 534.699 1680.77 533.795C1676.85 532.791 1673.34 531.686 1670.23 530.481C1667.01 529.175 1664.75 527.317 1663.45 524.907C1662.14 522.396 1661.64 519.735 1661.94 516.923C1662.24 514.111 1663.2 511.6 1664.8 509.391C1666.41 507.181 1668.57 505.675 1671.28 504.872C1673.99 503.968 1677.05 504.219 1680.47 505.625C1683.98 507.031 1688.1 508.186 1692.82 509.09C1697.64 509.993 1701.86 510.445 1705.48 510.445C1711.3 510.445 1715.27 509.793 1717.38 508.487C1719.49 507.181 1720.54 505.675 1720.54 503.968C1720.54 502.361 1719.79 501.055 1718.28 500.051C1716.87 498.946 1714.21 497.992 1710.3 497.189L1692.22 493.272C1682.48 491.163 1675.25 487.548 1670.53 482.426C1665.81 477.304 1663.45 470.726 1663.45 462.692C1663.45 457.269 1664.55 452.398 1666.76 448.079C1669.07 443.661 1672.28 439.894 1676.4 436.781C1680.52 433.668 1685.44 431.258 1691.17 429.55C1696.89 427.843 1703.27 426.989 1710.3 426.989C1715.02 426.989 1720.04 427.492 1725.36 428.496C1730.68 429.5 1735.25 430.956 1739.07 432.864C1741.78 434.17 1743.74 436.028 1744.94 438.438C1746.25 440.849 1746.8 443.359 1746.6 445.97C1746.4 448.582 1745.55 450.942 1744.04 453.051C1742.63 455.059 1740.63 456.465 1738.01 457.269C1735.4 457.972 1732.24 457.67 1728.52 456.365C1726.01 455.461 1723 454.758 1719.49 454.256C1715.97 453.653 1712.76 453.352 1709.84 453.352C1706.63 453.352 1703.92 453.703 1701.71 454.406C1699.5 455.009 1697.84 455.913 1696.74 457.118C1695.63 458.223 1695.08 459.528 1695.08 461.035C1695.08 462.34 1695.78 463.545 1697.19 464.65C1698.6 465.654 1701.31 466.558 1705.33 467.362L1723.4 471.278C1733.04 473.387 1740.22 476.952 1744.94 481.974C1749.76 486.995 1752.18 493.423 1752.18 501.256C1752.18 506.679 1751.07 511.6 1748.86 516.019C1746.65 520.337 1743.49 524.053 1739.37 527.167C1735.35 530.28 1730.48 532.69 1724.76 534.397C1719.03 536.004 1712.61 536.808 1705.48 536.808Z" fill="#FFC700"/>
</g>
<rect x="3" y="3" width="59.375" height="30" rx="3" fill="#FFF0E0"/>
<rect x="3.5" y="3.5" width="58.375" height="29" rx="2.5" stroke="white" stroke-opacity="0.0980392"/>
<path d="M14.3438 15C14.2969 14.6042 14.1068 14.2969 13.7734 14.0781C13.4401 13.8594 13.0313 13.75 12.5469 13.75C12.1927 13.75 11.8828 13.8073 11.6172 13.9219C11.3542 14.0365 11.1484 14.194 11 14.3945C10.8542 14.5951 10.7813 14.8229 10.7813 15.0781C10.7813 15.2917 10.832 15.4753 10.9336 15.6289C11.0378 15.7799 11.1706 15.9062 11.332 16.0078C11.4935 16.1068 11.6628 16.1888 11.8398 16.2539C12.0169 16.3164 12.1797 16.3672 12.3281 16.4062L13.1406 16.625C13.349 16.6797 13.5807 16.7552 13.8359 16.8516C14.0938 16.9479 14.3398 17.0794 14.5742 17.2461C14.8112 17.4102 15.0065 17.6211 15.1602 17.8789C15.3138 18.1367 15.3906 18.4531 15.3906 18.8281C15.3906 19.2604 15.2773 19.651 15.0508 20C14.8268 20.349 14.4987 20.6263 14.0664 20.832C13.6367 21.0378 13.1146 21.1406 12.5 21.1406C11.9271 21.1406 11.431 21.0482 11.0117 20.8633C10.5951 20.6784 10.2669 20.4206 10.0273 20.0898C9.79036 19.7591 9.65625 19.375 9.625 18.9375H10.625C10.651 19.2396 10.7526 19.4896 10.9297 19.6875C11.1094 19.8828 11.3359 20.0286 11.6094 20.125C11.8854 20.2187 12.1823 20.2656 12.5 20.2656C12.8698 20.2656 13.2018 20.2057 13.4961 20.0859C13.7904 19.9635 14.0234 19.7943 14.1953 19.5781C14.3672 19.3594 14.4531 19.1042 14.4531 18.8125C14.4531 18.5469 14.3789 18.3307 14.2305 18.1641C14.082 17.9974 13.8867 17.862 13.6445 17.7578C13.4023 17.6536 13.1406 17.5625 12.8594 17.4844L11.875 17.2031C11.25 17.0234 10.7552 16.7669 10.3906 16.4336C10.026 16.1003 9.84375 15.6641 9.84375 15.125C9.84375 14.6771 9.96484 14.2865 10.207 13.9531C10.4518 13.6172 10.7799 13.3568 11.1914 13.1719C11.6055 12.9844 12.0677 12.8906 12.5781 12.8906C13.0938 12.8906 13.5521 12.9831 13.9531 13.168C14.3542 13.3503 14.6719 13.6003 14.9062 13.918C15.1432 14.2357 15.2682 14.5964 15.2813 15H14.3438ZM19.374 21.125C18.7959 21.125 18.2972 20.9974 17.8779 20.7422C17.4613 20.4844 17.1396 20.125 16.9131 19.6641C16.6891 19.2005 16.5771 18.6615 16.5771 18.0469C16.5771 17.4323 16.6891 16.8906 16.9131 16.4219C17.1396 15.9505 17.4548 15.5833 17.8584 15.3203C18.2646 15.0547 18.7386 14.9219 19.2803 14.9219C19.5928 14.9219 19.9014 14.974 20.2061 15.0781C20.5107 15.1823 20.7881 15.3516 21.0381 15.5859C21.2881 15.8177 21.4873 16.125 21.6357 16.5078C21.7842 16.8906 21.8584 17.362 21.8584 17.9219V18.3125H17.2334V17.5156H20.9209C20.9209 17.1771 20.8532 16.875 20.7178 16.6094C20.585 16.3437 20.3949 16.1341 20.1475 15.9805C19.9027 15.8268 19.6136 15.75 19.2803 15.75C18.9131 15.75 18.5954 15.8411 18.3271 16.0234C18.0615 16.2031 17.8571 16.4375 17.7139 16.7266C17.5706 17.0156 17.499 17.3255 17.499 17.6562V18.1875C17.499 18.6406 17.5771 19.0247 17.7334 19.3398C17.8923 19.6523 18.1123 19.8906 18.3936 20.0547C18.6748 20.2161 19.0016 20.2969 19.374 20.2969C19.6162 20.2969 19.835 20.263 20.0303 20.1953C20.2282 20.125 20.3988 20.0208 20.542 19.8828C20.6852 19.7422 20.7959 19.5677 20.874 19.3594L21.7646 19.6094C21.6709 19.9115 21.5133 20.1771 21.292 20.4062C21.0706 20.6328 20.7972 20.8099 20.4717 20.9375C20.1462 21.0625 19.7803 21.125 19.374 21.125ZM25.6982 21.125C25.1357 21.125 24.6514 20.9922 24.2451 20.7266C23.8389 20.4609 23.5264 20.0951 23.3076 19.6289C23.0889 19.1628 22.9795 18.6302 22.9795 18.0312C22.9795 17.4219 23.0915 16.8841 23.3154 16.418C23.542 15.9492 23.8571 15.5833 24.2607 15.3203C24.667 15.0547 25.141 14.9219 25.6826 14.9219C26.1045 14.9219 26.4847 15 26.8232 15.1562C27.1618 15.3125 27.4391 15.5312 27.6553 15.8125C27.8714 16.0937 28.0055 16.4219 28.0576 16.7969H27.1357C27.0654 16.5234 26.9092 16.2812 26.667 16.0703C26.4274 15.8568 26.1045 15.75 25.6982 15.75C25.3389 15.75 25.0238 15.8437 24.7529 16.0312C24.4847 16.2161 24.2751 16.4779 24.124 16.8164C23.9756 17.1523 23.9014 17.5469 23.9014 18C23.9014 18.4635 23.9743 18.8672 24.1201 19.2109C24.2686 19.5547 24.4769 19.8216 24.7451 20.0117C25.016 20.2018 25.3337 20.2969 25.6982 20.2969C25.9378 20.2969 26.1553 20.2552 26.3506 20.1719C26.5459 20.0885 26.7113 19.9688 26.8467 19.8125C26.9821 19.6562 27.0785 19.4687 27.1357 19.25H28.0576C28.0055 19.6042 27.8766 19.9232 27.6709 20.207C27.4678 20.4883 27.1982 20.7122 26.8623 20.8789C26.529 21.043 26.141 21.125 25.6982 21.125ZM32.0146 15V15.7812H28.9053V15H32.0146ZM29.8115 13.5625H30.7334V19.2812C30.7334 19.5417 30.7712 19.737 30.8467 19.8672C30.9248 19.9948 31.0238 20.0807 31.1436 20.125C31.266 20.1667 31.3949 20.1875 31.5303 20.1875C31.6318 20.1875 31.7152 20.1823 31.7803 20.1719C31.8454 20.1589 31.8975 20.1484 31.9365 20.1406L32.124 20.9687C32.0615 20.9922 31.9743 21.0156 31.8623 21.0391C31.7503 21.0651 31.6084 21.0781 31.4365 21.0781C31.1761 21.0781 30.9209 21.0221 30.6709 20.9102C30.4235 20.7982 30.2178 20.6276 30.0537 20.3984C29.8923 20.1693 29.8115 19.8802 29.8115 19.5312V13.5625ZM33.4014 21V15H34.3232V21H33.4014ZM33.8701 14C33.6904 14 33.5355 13.9388 33.4053 13.8164C33.2777 13.694 33.2139 13.5469 33.2139 13.375C33.2139 13.2031 33.2777 13.056 33.4053 12.9336C33.5355 12.8112 33.6904 12.75 33.8701 12.75C34.0498 12.75 34.2035 12.8112 34.3311 12.9336C34.4613 13.056 34.5264 13.2031 34.5264 13.375C34.5264 13.5469 34.4613 13.694 34.3311 13.8164C34.2035 13.9388 34.0498 14 33.8701 14ZM38.4492 21.125C37.9076 21.125 37.4323 20.9961 37.0234 20.7383C36.6172 20.4805 36.2995 20.1198 36.0703 19.6562C35.8438 19.1927 35.7305 18.651 35.7305 18.0312C35.7305 17.4062 35.8438 16.8607 36.0703 16.3945C36.2995 15.9284 36.6172 15.5664 37.0234 15.3086C37.4323 15.0508 37.9076 14.9219 38.4492 14.9219C38.9909 14.9219 39.4648 15.0508 39.8711 15.3086C40.2799 15.5664 40.5977 15.9284 40.8242 16.3945C41.0534 16.8607 41.168 17.4062 41.168 18.0312C41.168 18.651 41.0534 19.1927 40.8242 19.6562C40.5977 20.1198 40.2799 20.4805 39.8711 20.7383C39.4648 20.9961 38.9909 21.125 38.4492 21.125ZM38.4492 20.2969C38.8607 20.2969 39.1992 20.1914 39.4648 19.9805C39.7305 19.7695 39.9271 19.4922 40.0547 19.1484C40.1823 18.8047 40.2461 18.4323 40.2461 18.0312C40.2461 17.6302 40.1823 17.2565 40.0547 16.9102C39.9271 16.5638 39.7305 16.2839 39.4648 16.0703C39.1992 15.8568 38.8607 15.75 38.4492 15.75C38.0378 15.75 37.6992 15.8568 37.4336 16.0703C37.168 16.2839 36.9714 16.5638 36.8438 16.9102C36.7161 17.2565 36.6523 17.6302 36.6523 18.0312C36.6523 18.4323 36.7161 18.8047 36.8438 19.1484C36.9714 19.4922 37.168 19.7695 37.4336 19.9805C37.6992 20.1914 38.0378 20.2969 38.4492 20.2969ZM43.4971 17.3906V21H42.5752V15H43.4658V15.9375H43.5439C43.6846 15.6328 43.8981 15.388 44.1846 15.2031C44.471 15.0156 44.8408 14.9219 45.2939 14.9219C45.7002 14.9219 46.0557 15.0052 46.3604 15.1719C46.665 15.3359 46.902 15.5859 47.0713 15.9219C47.2406 16.2552 47.3252 16.6771 47.3252 17.1875V21H46.4033V17.25C46.4033 16.7786 46.2809 16.4115 46.0361 16.1484C45.7913 15.8828 45.4554 15.75 45.0283 15.75C44.734 15.75 44.471 15.8138 44.2393 15.9414C44.0101 16.069 43.8291 16.2552 43.6963 16.5C43.5635 16.7448 43.4971 17.0417 43.4971 17.3906ZM54.9004 13V21H53.9316V14.0156H53.8848L51.9316 15.3125V14.3281L53.9316 13H54.9004Z" fill="black"/>
<defs>
<filter id="filter0_d_47_2" x="304.983" y="80" width="1616.89" height="666.843" filterUnits="userSpaceOnUse" color-interpolation-filters="sRGB">
<feFlood flood-opacity="0" result="BackgroundImageFix"/>
<feColorMatrix in="SourceAlpha" type="matrix" values="0 0 0 0 0 0 0 0 0 0 0 0 0 0 0 0 0 0 127 0" result="hardAlpha"/>
<feOffset dy="4.01713"/>
<feGaussianBlur stdDeviation="2.00856"/>
<feComposite in2="hardAlpha" operator="out"/>
<feColorMatrix type="matrix" values="0 0 0 0 0 0 0 0 0 0 0 0 0 0 0 0 0 0 0.25 0"/>
<feBlend mode="normal" in2="BackgroundImageFix" result="effect1_dropShadow_47_2"/>
<feBlend mode="normal" in="SourceGraphic" in2="effect1_dropShadow_47_2" result="shape"/>
</filter>
<filter id="filter1_d_47_2" x="704.196" y="260.805" width="1058.02" height="290.062" filterUnits="userSpaceOnUse" color-interpolation-filters="sRGB">
<feFlood flood-opacity="0" result="BackgroundImageFix"/>
<feColorMatrix in="SourceAlpha" type="matrix" values="0 0 0 0 0 0 0 0 0 0 0 0 0 0 0 0 0 0 127 0" result="hardAlpha"/>
<feOffset dy="4.01713"/>
<feGaussianBlur stdDeviation="5.02141"/>
<feComposite in2="hardAlpha" operator="out"/>
<feColorMatrix type="matrix" values="0 0 0 0 0 0 0 0 0 0 0 0 0 0 0 0 0 0 0.5 0"/>
<feBlend mode="normal" in2="BackgroundImageFix" result="effect1_dropShadow_47_2"/>
<feBlend mode="normal" in="SourceGraphic" in2="effect1_dropShadow_47_2" result="shape"/>
</filter>
</defs>
</svg>
