<svg width="166" height="40" viewBox="0 0 166 40" fill="none" xmlns="http://www.w3.org/2000/svg">
<path d="M3.03156 38.7635L1.02327 17.8597L5.11444 17.4667L6.04686 27.172L14.9459 26.317L14.0135 16.6117L18.1046 16.2187L20.1129 37.1224L16.0217 37.5155L15.2988 29.9901L6.39974 30.8451L7.12272 38.3704L3.03156 38.7635ZM22.0234 32.6894C21.9278 31.694 22.0395 30.8695 22.3584 30.216C22.6755 29.5426 23.205 28.9895 23.947 28.5565C24.707 28.1017 25.6647 27.7184 26.8202 27.4065C27.9937 27.0727 29.371 26.7696 30.9522 26.4971L30.8087 25.004C30.7399 24.2873 30.4204 23.7856 29.8504 23.4988C29.2784 23.1921 28.4848 23.0875 27.4695 23.185C27.0514 23.2252 26.5855 23.29 26.0717 23.3796C25.5579 23.4691 25.027 23.5905 24.4792 23.7436C23.9313 23.8967 23.3773 24.0905 22.8172 24.3252L21.8262 21.2257C22.6972 20.8808 23.6228 20.581 24.6029 20.3261C25.6029 20.0692 26.5409 19.8988 27.4169 19.8146C28.9897 19.6635 30.3038 19.7482 31.3593 20.0688C32.4128 20.3694 33.2177 20.9049 33.774 21.6752C34.3482 22.4237 34.6927 23.3952 34.8074 24.5897L35.4271 31.04C35.4807 31.5975 35.5967 31.9681 35.775 32.1518C35.9534 32.3356 36.1621 32.416 36.401 32.3931C36.5005 32.3835 36.619 32.3621 36.7565 32.3288C36.8939 32.2955 37.0195 32.2432 37.1332 32.172L37.74 35.0372C37.4207 35.2688 37.0478 35.4653 36.6213 35.6268C36.1967 35.8083 35.7355 35.9229 35.2378 35.9707C34.4415 36.0472 33.7891 35.9492 33.2807 35.6765C32.7704 35.384 32.3732 34.9098 32.0892 34.254C31.6278 34.68 31.1337 35.0791 30.6069 35.4512C30.0781 35.8034 29.5029 36.0897 28.8811 36.3102C28.2613 36.5506 27.5631 36.7081 26.7867 36.7826C26.1297 36.8458 25.5329 36.8026 24.9961 36.6533C24.4594 36.5039 23.9738 36.2593 23.5393 35.9192C23.1227 35.5574 22.7782 35.1083 22.5057 34.5719C22.253 34.0336 22.0923 33.4061 22.0234 32.6894ZM26.029 32.0333C26.096 32.7301 26.3059 33.2424 26.6589 33.5701C27.0299 33.8761 27.4941 34.0023 28.0515 33.9487C28.4696 33.9085 28.8809 33.7987 29.2856 33.6192C29.7102 33.4377 30.1111 33.2184 30.4882 32.9611C30.8833 32.6821 31.2149 32.3689 31.4829 32.0217L31.1645 28.707C30.3122 28.829 29.5534 28.9823 28.888 29.1668C28.2425 29.3494 27.6904 29.5631 27.2318 29.8081C26.793 30.0512 26.4704 30.3534 26.264 30.7148C26.0576 31.0762 25.9793 31.5157 26.029 32.0333ZM39.4785 35.2619L37.9264 19.1063L41.5398 18.7592L41.6746 20.1627C42.2952 19.7213 42.8927 19.3525 43.467 19.0562C44.0394 18.74 44.6085 18.4945 45.1744 18.3196C45.7582 18.1228 46.3787 17.9929 47.0356 17.9298C48.0709 17.8303 48.9451 17.9372 49.6583 18.2504C50.3895 18.5418 50.9569 19.0097 51.3604 19.6541C51.7638 20.2985 52.0115 21.0984 52.1033 22.054L53.2451 33.9393L49.2734 34.3209L48.2521 23.6898C48.1717 22.8537 47.9133 22.2557 47.4769 21.8958C47.0585 21.514 46.4611 21.3604 45.6847 21.435C45.2865 21.4733 44.9031 21.5604 44.5344 21.6962C44.1638 21.8122 43.796 21.9581 43.4311 22.1338C43.0663 22.3094 42.6853 22.5269 42.2883 22.786L43.4502 34.8803L39.4785 35.2619ZM66.6691 32.6798L66.0651 31.4117C65.2805 32.0296 64.4926 32.5071 63.7012 32.8444C62.9298 33.1797 62.106 33.3894 61.2301 33.4736C59.4781 33.6419 58.0584 33.0851 56.9708 31.8032C55.9012 30.4995 55.2412 28.5437 54.9906 25.9357C54.7993 23.9449 54.9113 22.2866 55.3264 20.9608C55.7415 19.635 56.4768 18.61 57.5324 17.8857C58.606 17.1396 59.9988 16.6844 61.7109 16.5199C62.1688 16.4759 62.6386 16.4508 63.1202 16.4448C63.6218 16.4368 64.1162 16.4596 64.6036 16.5132L64.0355 10.6004L68.0371 10.216L70.163 32.3441L66.6691 32.6798ZM65.7626 28.5777L64.8933 19.5293C64.3822 19.4378 63.9157 19.3922 63.4938 19.3925C63.07 19.373 62.669 19.3814 62.2907 19.4177C61.4347 19.5 60.7442 19.7371 60.2193 20.1291C59.7143 20.5192 59.3606 21.1257 59.1584 21.9489C58.9761 22.7701 58.9491 23.8476 59.0772 25.1814C59.1901 26.356 59.3923 27.3111 59.684 28.0465C59.9956 28.7801 60.3776 29.306 60.8301 29.6242C61.3025 29.9404 61.8473 30.0689 62.4645 30.0096C62.8228 29.9752 63.1773 29.901 63.528 29.7869C63.8787 29.6728 64.2356 29.518 64.5985 29.3224C64.9615 29.1268 65.3495 28.8785 65.7626 28.5777ZM71.8963 24.2211C71.7127 22.3099 71.8583 20.6886 72.3331 19.357C72.8279 18.0236 73.6519 16.98 74.8051 16.2263C75.9583 15.4726 77.4009 15.0125 79.1329 14.8461C79.7302 14.7887 80.3303 14.7612 80.9333 14.7635C81.5543 14.7441 82.1582 14.7564 82.7451 14.8004C83.3301 14.8246 83.8582 14.8844 84.3295 14.9797L84.1104 18.3461C83.643 18.2906 83.1675 18.2559 82.684 18.2421C82.1985 18.2083 81.715 18.1945 81.2333 18.2006C80.7716 18.2048 80.3218 18.2279 79.8838 18.27C78.9282 18.3618 78.1401 18.6284 77.5194 19.0697C76.9168 19.4893 76.4826 20.0936 76.2168 20.8826C75.9492 21.6518 75.8708 22.6137 75.9817 23.7683C76.085 24.8434 76.3403 25.723 76.7476 26.4072C77.1729 27.0696 77.7312 27.5484 78.4226 27.8436C79.132 28.117 79.9546 28.2088 80.8903 28.1189C81.3482 28.0749 81.8151 28.02 82.291 27.9542C82.7848 27.8665 83.2768 27.759 83.7669 27.6315C84.2569 27.5041 84.7361 27.3676 85.2043 27.2222L86.1057 30.3302C85.3304 30.6257 84.4218 30.8938 83.3801 31.1346C82.3583 31.3734 81.3596 31.5397 80.3841 31.6334C77.8159 31.8801 75.8217 31.4087 74.4014 30.219C72.9991 29.0076 72.1641 27.0083 71.8963 24.2211ZM90.3871 14.0662L90.5707 15.9774C91.0784 15.4063 91.5559 14.9385 92.0031 14.574C92.4683 14.1878 92.943 13.9011 93.4273 13.7139C93.9297 13.5049 94.4595 13.3736 95.017 13.3201C95.3753 13.2856 95.7365 13.2811 96.1006 13.3064C96.4827 13.3098 96.8587 13.3541 97.2285 13.4391L96.9457 17.0829C96.5797 17.0377 96.2056 17.0133 95.8235 17.0098C95.4594 16.9845 95.1181 16.9872 94.7996 17.0178C94.2223 17.0733 93.6355 17.2401 93.0394 17.5184C92.4433 17.7967 91.8326 18.2371 91.2074 18.8397L92.2976 30.1874L88.3259 30.569L86.7737 14.4134L90.3871 14.0662ZM98.4003 25.3517C98.3046 24.3562 98.4163 23.5318 98.7353 22.8783C99.0523 22.2049 99.5819 21.6517 100.324 21.2188C101.084 20.764 102.042 20.3806 103.197 20.0687C104.37 19.735 105.748 19.4319 107.329 19.1594L107.186 17.6663C107.117 16.9496 106.797 16.4478 106.227 16.161C105.655 15.8543 104.862 15.7497 103.846 15.8473C103.428 15.8874 102.962 15.9523 102.449 16.0418C101.935 16.1314 101.404 16.2527 100.856 16.4058C100.308 16.5589 99.7541 16.7528 99.194 16.9874L98.2031 13.888C99.0741 13.5431 99.9996 13.2432 100.98 12.9883C101.98 12.7315 102.918 12.561 103.794 12.4768C105.367 12.3257 106.681 12.4105 107.736 12.731C108.79 13.0316 109.595 13.5671 110.151 14.3374C110.725 15.0859 111.07 16.0575 111.184 17.252L111.804 23.7023C111.858 24.2597 111.974 24.6303 112.152 24.8141C112.33 24.9979 112.539 25.0783 112.778 25.0553C112.877 25.0458 112.996 25.0243 113.133 24.991C113.271 24.9577 113.396 24.9055 113.51 24.8343L114.117 27.6994C113.798 27.931 113.425 28.1276 112.998 28.2891C112.574 28.4705 112.112 28.5851 111.615 28.633C110.818 28.7095 110.166 28.6114 109.658 28.3388C109.147 28.0462 108.75 27.572 108.466 26.9162C108.005 27.3423 107.511 27.7414 106.984 28.1134C106.455 28.4656 105.88 28.752 105.258 28.9724C104.638 29.2128 103.94 29.3703 103.164 29.4449C102.507 29.508 101.91 29.4649 101.373 29.3155C100.836 29.1662 100.351 28.9215 99.9161 28.5815C99.4996 28.2197 99.1551 27.7706 98.8825 27.2342C98.6299 26.6959 98.4691 26.0684 98.4003 25.3517ZM102.406 24.6956C102.473 25.3924 102.683 25.9046 103.036 26.2324C103.407 26.5383 103.871 26.6645 104.428 26.6109C104.846 26.5708 105.258 26.4609 105.662 26.2814C106.087 26.1 106.488 25.8806 106.865 25.6234C107.26 25.3443 107.592 25.0312 107.86 24.684L107.541 21.3692C106.689 21.4913 105.93 21.6445 105.265 21.829C104.619 22.0116 104.067 22.2254 103.609 22.4704C103.17 22.7134 102.847 23.0157 102.641 23.3771C102.434 23.7385 102.356 24.178 102.406 24.6956ZM130.376 26.8305C129.54 26.9108 128.822 26.8592 128.222 26.6758C127.621 26.4924 127.12 26.1889 126.718 25.7655C126.314 25.3221 125.989 24.7706 125.745 24.1109C125.501 23.4512 125.337 22.6834 125.253 21.8074L124.547 14.4613L119.44 14.9519L120.642 27.4643L116.73 27.8401L115.528 15.3277L113.199 15.5515L112.958 13.043L115.259 12.5206L115.23 12.222C115.121 11.0872 115.205 10.0746 115.481 9.18411C115.757 8.29362 116.187 7.53906 116.77 6.92042C117.373 6.29987 118.1 5.80816 118.949 5.44528C119.818 5.0805 120.78 4.84742 121.835 4.74605C122.95 4.63894 124.013 4.6172 125.024 4.68084C126.034 4.74447 126.911 4.87127 127.652 5.06122L128.237 11.1532L132.448 10.7486L132.729 13.6752L128.519 14.0797L129.196 21.1272C129.232 21.5055 129.294 21.8411 129.383 22.134C129.471 22.4268 129.595 22.6661 129.753 22.8518C129.912 23.0375 130.126 23.1777 130.396 23.2723C130.665 23.3469 130.998 23.3651 131.396 23.3269C131.735 23.2944 132.089 23.2201 132.46 23.1042C132.83 22.9882 133.228 22.8395 133.652 22.658L134.483 25.6524C133.851 25.9743 133.182 26.2294 132.477 26.4177C131.773 26.6259 131.073 26.7635 130.376 26.8305ZM119.171 12.1448L124.277 11.6542L124.032 7.85018C123.684 7.78315 123.339 7.74599 122.997 7.73869C122.673 7.70956 122.331 7.71222 121.973 7.74664C120.938 7.8461 120.172 8.24114 119.676 8.93176C119.199 9.62047 119.024 10.6218 119.151 11.9358L119.171 12.1448ZM142.847 25.6324C141.632 25.7491 140.543 25.703 139.579 25.4943C138.612 25.2657 137.77 24.8644 137.052 24.2904C136.352 23.6947 135.785 22.9153 135.351 21.9524C134.934 20.9677 134.66 19.7785 134.526 18.385C134.371 16.7724 134.429 15.3905 134.7 14.2393C134.989 13.0663 135.46 12.1069 136.111 11.3611C136.761 10.5955 137.549 10.0174 138.476 9.62701C139.401 9.21667 140.431 8.95699 141.566 8.84797C143.815 8.63184 145.522 9.04047 146.687 10.0739C147.871 11.1054 148.586 12.9052 148.833 15.4734C148.85 15.6526 148.872 15.8815 148.899 16.1602C148.926 16.4389 148.931 16.7096 148.916 16.9722C148.462 17.056 147.88 17.1622 147.169 17.2908C146.458 17.4194 145.657 17.5566 144.767 17.7024C143.877 17.8482 142.916 17.9907 141.885 18.13C140.854 18.2693 139.792 18.4114 138.701 18.5564C138.687 18.6181 138.684 18.6887 138.691 18.7683C138.699 18.848 138.707 18.9276 138.714 19.0072C138.802 19.923 139.022 20.6453 139.375 21.174C139.745 21.6809 140.252 22.0441 140.896 22.2635C141.538 22.4631 142.327 22.5179 143.262 22.428C143.86 22.3706 144.464 22.2824 145.075 22.1634C145.705 22.0225 146.323 21.8727 146.931 21.7139C147.556 21.5332 148.161 21.3445 148.745 21.1478L149.504 24.0284C148.886 24.2887 148.226 24.5329 147.525 24.761C146.822 24.9692 146.085 25.1405 145.314 25.2748C144.545 25.429 143.723 25.5482 142.847 25.6324ZM138.484 15.9854C139.181 15.9184 139.847 15.8444 140.482 15.7633C141.135 15.6604 141.75 15.5712 142.325 15.4958C142.899 15.4005 143.393 15.3229 143.81 15.2628C144.224 15.1828 144.549 15.1214 144.786 15.0785C144.682 14.2045 144.495 13.5092 144.224 12.9927C143.974 12.4743 143.618 12.1167 143.157 11.9199C142.716 11.7212 142.177 11.6524 141.54 11.7136C141.142 11.7518 140.759 11.8489 140.392 12.0047C140.026 12.1604 139.697 12.403 139.407 12.7322C139.118 13.0614 138.887 13.4854 138.716 14.0041C138.565 14.521 138.487 15.1814 138.484 15.9854ZM162.41 23.4817L161.806 22.2136C161.021 22.8315 160.233 23.309 159.442 23.6462C158.671 23.9816 157.847 24.1913 156.971 24.2755C155.219 24.4438 153.799 23.887 152.712 22.6051C151.642 21.3014 150.982 19.3456 150.731 16.7376C150.54 14.7468 150.652 13.0885 151.067 11.7627C151.482 10.4369 152.218 9.41189 153.273 8.68762C154.347 7.94153 155.74 7.48625 157.452 7.32176C157.91 7.27777 158.379 7.25273 158.861 7.24664C159.363 7.23864 159.857 7.26146 160.344 7.3151L159.776 1.40232L163.778 1.01788L165.904 23.146L162.41 23.4817ZM161.503 19.3795L160.634 10.3312C160.123 10.2397 159.657 10.1941 159.235 10.1944C158.811 10.1749 158.41 10.1833 158.032 10.2196C157.175 10.3018 156.485 10.539 155.96 10.931C155.455 11.321 155.101 11.9276 154.899 12.7507C154.717 13.5719 154.69 14.6495 154.818 15.9833C154.931 17.1579 155.133 18.113 155.425 18.8484C155.736 19.582 156.118 20.1079 156.571 20.4261C157.043 20.7423 157.588 20.8708 158.205 20.8115C158.564 20.7771 158.918 20.7029 159.269 20.5888C159.62 20.4747 159.976 20.3199 160.339 20.1243C160.702 19.9287 161.09 19.6804 161.503 19.3795Z" fill="white"/>
</svg>
