<svg width="125" height="93" viewBox="0 0 125 93" fill="none" xmlns="http://www.w3.org/2000/svg">
<path d="M30.3778 49.9535L23.1421 30.2394L27.0005 28.8233L32.9957 45.1578L42.1205 41.8087L43.3609 45.1883L30.3778 49.9535ZM51.6956 42.4488C50.5503 42.8691 49.4847 43.1004 48.4989 43.1427C47.5062 43.1662 46.5898 42.9912 45.7497 42.6178C44.9215 42.2187 44.1755 41.6084 43.5118 40.7868C42.86 39.9395 42.2928 38.8587 41.8105 37.5444C41.2523 36.0236 40.9586 34.6721 40.9294 33.4897C40.9121 32.2817 41.1243 31.2345 41.5659 30.348C42.0006 29.4428 42.6169 28.684 43.4148 28.0716C44.2057 27.4404 45.1363 26.9284 46.2065 26.5356C48.3281 25.7569 50.0829 25.7201 51.4708 26.425C52.8774 27.1231 54.0252 28.6832 54.9142 31.1052C54.9762 31.2742 55.0554 31.4901 55.1519 31.7529C55.2484 32.0158 55.3227 32.2761 55.3747 32.534C54.9566 32.73 54.42 32.9803 53.7648 33.2847C53.1095 33.5891 52.3698 33.9245 51.5456 34.2909C50.7214 34.6573 49.828 35.0385 48.8654 35.4344C47.9029 35.8303 46.9122 36.2365 45.8934 36.6531C45.8953 36.7163 45.91 36.7854 45.9375 36.8605C45.9651 36.9357 45.9927 37.0108 46.0202 37.0859C46.3372 37.9495 46.733 38.5925 47.2076 39.0149C47.6941 39.4115 48.2766 39.6345 48.9551 39.6837C49.6267 39.7142 50.4037 39.5675 51.2862 39.2436C51.8494 39.0368 52.4117 38.7985 52.9731 38.5286C53.5463 38.2329 54.1067 37.9314 54.6543 37.6239C55.2138 37.2907 55.751 36.955 56.266 36.6169L57.7297 39.2115C57.1978 39.6197 56.6214 40.023 56.0006 40.4213C55.373 40.8008 54.7033 41.1531 53.9918 41.4782C53.2871 41.822 52.5217 42.1456 51.6956 42.4488ZM45.0326 34.2207C45.6897 33.9795 46.3152 33.7393 46.9091 33.5C47.5149 33.235 48.0866 32.9933 48.6242 32.7746C49.1549 32.5372 49.614 32.3368 50.0014 32.1733C50.3819 31.991 50.6813 31.8492 50.8997 31.7477C50.5778 30.9285 50.2205 30.3033 49.8279 29.8722C49.4541 29.4342 49.0193 29.1783 48.5235 29.1046C48.0466 29.024 47.5077 29.094 46.9069 29.3145C46.5314 29.4523 46.1859 29.643 45.8705 29.8866C45.5551 30.1302 45.2989 30.4479 45.1019 30.8398C44.9049 31.2317 44.7892 31.7002 44.755 32.2454C44.7395 32.7837 44.832 33.4421 45.0326 34.2207ZM57.994 35.3116C57.6494 34.3728 57.5487 33.547 57.6918 32.834C57.828 32.1022 58.2002 31.433 58.8084 30.8263C59.4285 30.1939 60.258 29.5806 61.2968 28.9863C62.3475 28.3663 63.6032 27.7243 65.0639 27.0603L64.5471 25.6522C64.299 24.9763 63.8629 24.5718 63.2388 24.4387C62.6078 24.2868 61.8136 24.3865 60.856 24.738C60.4618 24.8827 60.0274 25.0634 59.5531 25.2801C59.0787 25.4968 58.5959 25.7486 58.1046 26.0355C57.6134 26.3223 57.1265 26.6501 56.644 27.0189L54.9006 24.2714C55.6559 23.7172 56.4754 23.1927 57.359 22.698C58.2614 22.1963 59.1257 21.7939 59.9518 21.4907C61.4351 20.9463 62.7278 20.6955 63.8301 20.7384C64.9254 20.7624 65.8397 21.0766 66.5728 21.681C67.3178 22.2598 67.8971 23.1124 68.3106 24.2389L70.5433 30.3221C70.7362 30.8478 70.9423 31.177 71.1614 31.3096C71.3805 31.4423 71.6027 31.4672 71.828 31.3845C71.9219 31.3501 72.0311 31.2993 72.1556 31.2323C72.2802 31.1653 72.3884 31.083 72.4804 30.9853L73.7928 33.6034C73.5426 33.9083 73.2316 34.1929 72.8599 34.4571C72.4951 34.7402 72.078 34.9678 71.6086 35.1401C70.8576 35.4157 70.2016 35.4861 69.6408 35.351C69.073 35.1972 68.5687 34.8391 68.1279 34.2765C67.7894 34.8055 67.4125 35.3167 66.997 35.8101C66.5747 36.2846 66.0907 36.7073 65.545 37.078C65.0062 37.4675 64.3707 37.7966 63.6385 38.0654C63.0189 38.2928 62.4305 38.4022 61.8735 38.3936C61.3164 38.385 60.7846 38.2713 60.2782 38.0524C59.7837 37.8078 59.3366 37.4606 58.9372 37.0106C58.5565 36.5539 58.2421 35.9875 57.994 35.3116ZM61.703 33.6627C61.9441 34.3198 62.277 34.7622 62.7014 34.9899C63.1377 35.192 63.6188 35.1965 64.1445 35.0035C64.5387 34.8588 64.9089 34.6484 65.255 34.3723C65.6198 34.0892 65.952 33.7755 66.2517 33.4312C66.5633 33.0612 66.8048 32.6743 66.9762 32.2705L65.8288 29.1444C65.0353 29.4783 64.34 29.8187 63.743 30.1656C63.1647 30.5057 62.6847 30.8523 62.303 31.2054C61.9401 31.5517 61.7046 31.9257 61.5964 32.3276C61.4883 32.7295 61.5238 33.1745 61.703 33.6627ZM75.5316 33.3807L69.9395 18.1445L73.3472 16.8937L73.833 18.2174C74.3217 17.6333 74.8063 17.1252 75.2869 16.6931C75.7605 16.2423 76.2489 15.8607 76.7521 15.5482C77.2671 15.21 77.8344 14.9272 78.454 14.6998C79.4303 14.3415 80.3031 14.2235 81.0724 14.346C81.8536 14.4427 82.5209 14.7517 83.0744 15.2729C83.6279 15.7941 84.07 16.5054 84.4008 17.4066L88.5148 28.6154L84.7691 29.9902L81.0892 19.9642C80.7998 19.1756 80.3984 18.6625 79.8851 18.4248C79.3837 18.1615 78.7668 18.1642 78.0346 18.4329C77.6591 18.5708 77.3102 18.7521 76.9879 18.9769C76.6587 19.1829 76.3399 19.4171 76.0314 19.6795C75.7229 19.9418 75.4094 20.2486 75.091 20.5999L79.2773 32.0059L75.5316 33.3807ZM20.2157 92.0315L12.9593 72.2611C14.2154 71.7362 15.2965 71.2861 16.2027 70.9109C17.1277 70.5288 17.9094 70.2206 18.5477 69.9863C19.198 69.7263 19.7015 69.5309 20.0582 69.4C21.7667 68.7729 23.2231 68.3875 24.4274 68.2437C25.6435 68.0743 26.6612 68.1482 27.4806 68.4653C28.3189 68.7755 29.0313 69.3235 29.6181 70.1095C30.1979 70.8767 30.7152 71.8799 31.17 73.119C31.6386 74.3958 31.901 75.5458 31.957 76.5692C32.0249 77.5668 31.8653 78.467 31.4781 79.2695C31.1097 80.0652 30.489 80.783 29.6161 81.423C28.755 82.0373 27.6298 82.5994 26.2404 83.1093C25.8461 83.254 25.5082 83.3781 25.2265 83.4814C24.9449 83.5848 24.6914 83.6778 24.4661 83.7605C24.2408 83.8432 24.0155 83.9259 23.7902 84.0086C23.558 84.0725 23.2917 84.1596 22.9913 84.2699C22.684 84.3614 22.311 84.477 21.8723 84.6167L24.074 90.6154L20.2157 92.0315ZM17.9415 73.8199L20.7738 81.5366C21.1186 81.4313 21.4259 81.3398 21.6956 81.2621C21.9585 81.1657 22.206 81.0855 22.4382 81.0215C22.6823 80.932 22.917 80.8458 23.1423 80.7631C23.3864 80.6735 23.6586 80.5736 23.959 80.4634C24.9353 80.105 25.7057 79.737 26.2702 79.3594C26.8534 78.9749 27.252 78.5517 27.4659 78.0897C27.6986 77.6208 27.7842 77.0994 27.7226 76.5254C27.673 75.9258 27.5069 75.2411 27.2244 74.4713C26.9832 73.8142 26.7107 73.2751 26.407 72.8539C26.1033 72.4328 25.7368 72.1306 25.3073 71.9473C24.8779 71.7641 24.348 71.7135 23.7178 71.7957C23.0994 71.8523 22.349 72.0425 21.4665 72.3664C21.2224 72.4559 20.9877 72.5421 20.7624 72.6248C20.5559 72.7006 20.3247 72.7961 20.0687 72.9113C19.8059 73.0078 19.4995 73.1309 19.1497 73.2806C18.8186 73.4234 18.4159 73.6032 17.9415 73.8199ZM35.9022 68.9854L36.5637 70.7879C36.9103 70.1067 37.2537 69.5333 37.5941 69.0675C37.9463 68.576 38.333 68.1785 38.7542 67.8748C39.1872 67.5454 39.6666 67.2842 40.1923 67.0913C40.5302 66.9672 40.8785 66.8714 41.2371 66.8036C41.6076 66.7103 41.9826 66.6579 42.3619 66.6465L43.0108 70.2431C42.6453 70.2921 42.2773 70.3632 41.9068 70.4566C41.5482 70.5243 41.2186 70.6133 40.9182 70.7236C40.3738 70.9234 39.8484 71.2334 39.3422 71.6535C38.8359 72.0737 38.3567 72.6544 37.9044 73.3956L41.8323 84.0976L38.0866 85.4723L32.4945 70.2362L35.9022 68.9854ZM45.3101 74.1608C44.8346 72.8653 44.5303 71.688 44.3973 70.629C44.283 69.5631 44.3682 68.6051 44.6527 67.7551C44.956 66.8981 45.5056 66.1318 46.3016 65.4562C47.0906 64.7618 48.1611 64.1665 49.5129 63.6703C50.8835 63.1673 52.0849 62.9287 53.117 62.9547C54.161 62.955 55.0759 63.1838 55.8616 63.6411C56.6472 64.0984 57.3319 64.7738 57.9155 65.6674C58.5179 66.5542 59.0569 67.6453 59.5324 68.9408C60.0079 70.2363 60.2968 71.4298 60.3992 72.5214C60.5203 73.6061 60.4199 74.5803 60.0978 75.4442C59.7757 76.3081 59.2261 77.0744 58.4489 77.7431C57.6718 78.4118 56.626 78.9874 55.3118 79.4698C54.0163 79.9452 52.8465 80.1828 51.8025 80.1825C50.7772 80.1754 49.8624 79.9466 49.0579 79.4962C48.2722 79.0389 47.5654 78.3609 46.9373 77.4623C46.328 76.5568 45.7856 75.4563 45.3101 74.1608ZM49.1402 72.755C49.602 74.013 50.0833 74.9761 50.5842 75.6444C51.0783 76.294 51.628 76.6887 52.2333 76.8287C52.8386 76.9688 53.5167 76.9009 54.2678 76.6253C55.0563 76.3359 55.6267 75.9454 55.979 75.454C56.35 74.9556 56.5044 74.3024 56.4421 73.4944C56.3918 72.6607 56.1358 71.6148 55.6741 70.3569C55.2124 69.099 54.7439 68.1418 54.2686 67.4853C53.8121 66.822 53.2812 66.4203 52.6759 66.2803C52.0893 66.1334 51.383 66.2116 50.5569 66.5148C49.7495 66.8111 49.1604 67.2084 48.7894 67.7068C48.4371 68.1982 48.2921 68.848 48.3544 69.656C48.4166 70.4641 48.6785 71.4971 49.1402 72.755ZM70.1402 74.0273C69.1639 74.3856 68.2689 74.501 67.4552 74.3736C66.6602 74.2393 65.9525 73.8493 65.332 73.2035C64.7303 72.5509 64.2089 71.6238 63.7679 70.4221L60.9976 62.8745L58.6601 63.7324L57.7505 61.2541L59.995 60.1426L59.2052 56.5977L62.5002 55.3883L63.7406 58.7679L68.0496 57.1864L69.0626 59.9463L64.7536 61.5278L67.3998 68.7376C67.7168 69.6012 68.1004 70.1529 68.5505 70.3924C69.0006 70.632 69.5636 70.6278 70.2395 70.3797C70.615 70.2419 70.9896 70.0724 71.3632 69.8714C71.7299 69.6516 72.1085 69.4061 72.499 69.1349L74.0499 71.7934C73.3954 72.3318 72.7286 72.779 72.0496 73.1347C71.3963 73.5023 70.7598 73.7998 70.1402 74.0273ZM82.1003 69.6376C80.955 70.0579 79.8894 70.2892 78.9036 70.3315C77.9109 70.355 76.9945 70.18 76.1544 69.8066C75.3262 69.4075 74.5802 68.7972 73.9165 67.9756C73.2646 67.1283 72.6975 66.0475 72.2151 64.7332C71.6569 63.2124 71.3633 61.8608 71.3341 60.6785C71.3168 59.4705 71.529 58.4233 71.9706 57.5368C72.4053 56.6316 73.0216 55.8728 73.8194 55.2604C74.6104 54.6292 75.541 54.1172 76.6112 53.7244C78.7328 52.9457 80.4875 52.9089 81.8754 53.6138C83.2821 54.3119 84.4299 55.8719 85.3188 58.294C85.3809 58.4629 85.4601 58.6789 85.5566 58.9417C85.6531 59.2046 85.7273 59.4649 85.7793 59.7228C85.3613 59.9188 84.8247 60.1691 84.1694 60.4735C83.5142 60.7779 82.7744 61.1133 81.9502 61.4797C81.126 61.8461 80.2326 62.2273 79.2701 62.6232C78.3076 63.0191 77.3169 63.4253 76.298 63.8419C76.2999 63.9051 76.3146 63.9742 76.3422 64.0493C76.3698 64.1244 76.3973 64.1995 76.4249 64.2746C76.7419 65.1383 77.1377 65.7813 77.6123 66.2036C78.0987 66.6003 78.6812 66.8233 79.3597 66.8725C80.0313 66.903 80.8084 66.7562 81.6908 66.4324C82.2541 66.2256 82.8164 65.9873 83.3777 65.7173C83.951 65.4217 84.5114 65.1202 85.059 64.8127C85.6184 64.4795 86.1557 64.1438 86.6707 63.8057L88.1343 66.4003C87.6024 66.8085 87.0261 67.2118 86.4053 67.6101C85.7776 67.9896 85.108 68.3419 84.3964 68.667C83.6918 69.0108 82.9264 69.3343 82.1003 69.6376ZM75.4372 61.4095C76.0944 61.1683 76.7199 60.9281 77.3138 60.6888C77.9196 60.4238 78.4913 60.182 79.0289 59.9634C79.5596 59.726 80.0186 59.5256 80.406 59.3621C80.7865 59.1798 81.086 59.038 81.3044 58.9365C80.9824 58.1173 80.6251 57.4921 80.2325 57.061C79.8587 56.6229 79.424 56.3671 78.9282 56.2934C78.4512 56.2128 77.9123 56.2828 77.3115 56.5033C76.936 56.6411 76.5906 56.8318 76.2752 57.0754C75.9598 57.319 75.7036 57.6367 75.5066 58.0286C75.3095 58.4205 75.1939 58.889 75.1596 59.4342C75.1441 59.9725 75.2367 60.6309 75.4372 61.4095ZM86.3361 48.014C85.5475 48.3034 84.9197 48.3634 84.4527 48.1939C83.9976 47.9988 83.6495 47.5726 83.4083 46.9155C83.1602 46.2396 83.15 45.6894 83.3777 45.265C83.6242 44.8336 84.1417 44.4732 84.9303 44.1838C85.7188 43.8944 86.3372 43.8379 86.7854 44.0142C87.2524 44.1837 87.61 44.6064 87.858 45.2823C88.0992 45.9394 88.1 46.4931 87.8604 46.9432C87.6327 47.3676 87.1246 47.7246 86.3361 48.014ZM90.8372 66.1113L85.2451 50.8751L88.9907 49.5003L94.5829 64.7365L90.8372 66.1113ZM97.5204 63.6583L91.9283 48.4222L95.336 47.1714L95.8218 48.4951C96.3105 47.9109 96.7951 47.4028 97.2756 46.9708C97.7493 46.52 98.2377 46.1383 98.7409 45.8259C99.2559 45.4877 99.8232 45.2049 100.443 44.9775C101.419 44.6192 102.292 44.5012 103.061 44.6236C103.842 44.7204 104.51 45.0294 105.063 45.5506C105.617 46.0718 106.059 46.783 106.39 47.6843L110.504 58.8931L106.758 60.2679L103.078 50.2419C102.789 49.4533 102.387 48.9402 101.874 48.7025C101.372 48.4392 100.756 48.4419 100.023 48.7106C99.6478 48.8484 99.2989 49.0297 98.9767 49.2546C98.6475 49.4606 98.3287 49.6948 98.0202 49.9571C97.7117 50.2195 97.3982 50.5263 97.0797 50.8775L101.266 62.2835L97.5204 63.6583ZM112.354 57.5427L111.792 54.6173C112.171 54.6059 112.588 54.5808 113.043 54.5418C113.49 54.4841 113.953 54.4101 114.431 54.3198C114.928 54.2226 115.409 54.1101 115.873 53.9823C116.338 53.8544 116.767 53.7182 117.161 53.5734C118.062 53.2427 118.671 52.8701 118.988 52.4556C119.298 52.0224 119.352 51.5335 119.153 50.989C119.042 50.6886 118.865 50.4662 118.62 50.3216C118.387 50.1515 118.074 50.0533 117.681 50.0271C117.3 49.9753 116.841 49.9733 116.305 50.021C115.78 50.0431 115.181 50.0927 114.506 50.1699C113.794 50.2609 113.149 50.274 112.571 50.209C111.986 50.1254 111.45 49.9706 110.962 49.7448C110.494 49.5121 110.088 49.1921 109.747 48.7847C109.425 48.3705 109.153 47.8629 108.933 47.2621C108.361 45.7038 108.434 44.3349 109.151 43.1554C109.869 41.976 111.223 41.021 113.213 40.2905C113.832 40.0631 114.428 39.8871 115 39.7623C115.565 39.6188 116.113 39.5138 116.642 39.4473C117.184 39.3551 117.688 39.3083 118.157 39.3069L118.711 42.2989C118.25 42.3191 117.796 42.358 117.348 42.4158C116.901 42.4735 116.423 42.5638 115.914 42.6866C115.424 42.8026 114.878 42.9708 114.277 43.1913C113.47 43.4877 112.908 43.843 112.591 44.2575C112.268 44.6532 112.199 45.1045 112.385 45.6114C112.496 45.9118 112.664 46.1377 112.89 46.2891C113.109 46.4218 113.383 46.5021 113.713 46.5302C114.043 46.5582 114.435 46.5528 114.89 46.5138C115.344 46.4749 115.845 46.4187 116.394 46.3453C117.15 46.2593 117.855 46.235 118.508 46.2723C119.154 46.2909 119.736 46.3968 120.254 46.59C120.792 46.7764 121.269 47.0911 121.687 47.5341C122.118 47.9514 122.467 48.5262 122.736 49.2585C122.991 49.9531 123.106 50.6141 123.08 51.2413C123.066 51.8428 122.931 52.4036 122.675 52.9238C122.419 53.4441 122.072 53.9227 121.636 54.3597C121.193 54.778 120.673 55.1606 120.076 55.5075C119.479 55.8545 118.833 56.1554 118.139 56.4104C117.463 56.6585 116.801 56.8587 116.154 57.011C115.514 57.1821 114.869 57.3122 114.22 57.4012C113.59 57.4834 112.968 57.5306 112.354 57.5427Z" fill="#FFF0E0"/>
</svg>
