<svg width="1918" height="934" viewBox="0 0 1918 934" fill="none" xmlns="http://www.w3.org/2000/svg">
<rect x="-9" width="1936.66" height="934" fill="#FFC700"/>
<path d="M307.446 662C300.513 662 295.18 660.133 291.446 656.4C287.713 652.533 285.846 647.133 285.846 640.2V553.8H258.646C252.913 553.8 248.513 552.333 245.446 549.4C242.513 546.333 241.046 542 241.046 536.4C241.046 530.8 242.513 526.533 245.446 523.6C248.513 520.533 252.913 519 258.646 519H356.046C361.78 519 366.113 520.533 369.046 523.6C372.113 526.533 373.646 530.8 373.646 536.4C373.646 542 372.113 546.333 369.046 549.4C366.113 552.333 361.78 553.8 356.046 553.8H328.846V640.2C328.846 647.133 327.046 652.533 323.446 656.4C319.846 660.133 314.513 662 307.446 662ZM434.092 662C427.158 662 421.825 660.133 418.092 656.4C414.358 652.533 412.492 647.067 412.492 640V539C412.492 531.933 414.358 526.533 418.092 522.8C421.825 518.933 427.158 517 434.092 517C441.025 517 446.292 518.933 449.892 522.8C453.625 526.533 455.492 531.933 455.492 539V571H505.492V539C505.492 531.933 507.358 526.533 511.092 522.8C514.825 518.933 520.158 517 527.092 517C534.025 517 539.292 518.933 542.892 522.8C546.625 526.533 548.492 531.933 548.492 539V640C548.492 647.067 546.625 652.533 542.892 656.4C539.292 660.133 534.025 662 527.092 662C520.158 662 514.825 660.133 511.092 656.4C507.358 652.533 505.492 647.067 505.492 640V606.2H455.492V640C455.492 647.067 453.692 652.533 450.092 656.4C446.492 660.133 441.158 662 434.092 662ZM621.481 660C614.281 660 608.747 658.133 604.881 654.4C601.147 650.533 599.281 645 599.281 637.8V541.2C599.281 534 601.147 528.533 604.881 524.8C608.747 520.933 614.281 519 621.481 519H687.481C692.947 519 697.081 520.4 699.881 523.2C702.681 526 704.081 530.067 704.081 535.4C704.081 540.733 702.681 544.8 699.881 547.6C697.081 550.4 692.947 551.8 687.481 551.8H640.281V572H682.881C688.347 572 692.481 573.4 695.281 576.2C698.081 579 699.481 583.067 699.481 588.4C699.481 593.733 698.081 597.8 695.281 600.6C692.481 603.4 688.347 604.8 682.881 604.8H640.281V627.2H687.481C692.947 627.2 697.081 628.6 699.881 631.4C702.681 634.2 704.081 638.267 704.081 643.6C704.081 648.933 702.681 653 699.881 655.8C697.081 658.6 692.947 660 687.481 660H621.481ZM913.47 662.4C896.937 662.4 882.87 659.333 871.27 653.2C859.803 647.067 851.003 638.6 844.87 627.8C838.87 617 835.87 604.533 835.87 590.4C835.87 579.2 837.67 569.067 841.27 560C845.003 550.933 850.337 543.2 857.27 536.8C864.337 530.267 872.87 525.267 882.87 521.8C893.003 518.333 904.47 516.6 917.27 516.6C923.537 516.6 929.937 517.133 936.47 518.2C943.003 519.133 949.67 521.067 956.47 524C960.47 525.733 963.27 528.267 964.87 531.6C966.47 534.8 967.07 538.267 966.67 542C966.27 545.733 965.003 549.133 962.87 552.2C960.87 555.267 958.07 557.4 954.47 558.6C951.003 559.8 947.003 559.467 942.47 557.6C939.137 556.267 935.27 555.2 930.87 554.4C926.603 553.6 922.203 553.2 917.67 553.2C909.27 553.2 902.27 554.6 896.67 557.4C891.203 560.2 887.137 564.4 884.47 570C881.803 575.467 880.47 582.267 880.47 590.4C880.47 602.4 883.47 611.467 889.47 617.6C895.603 623.6 904.47 626.6 916.07 626.6C919.403 626.6 923.203 626.267 927.47 625.6C931.737 624.933 936.137 623.933 940.67 622.6L933.07 638V608.4H923.67C918.337 608.4 914.203 607.133 911.27 604.6C908.47 602.067 907.07 598.4 907.07 593.6C907.07 588.8 908.47 585.133 911.27 582.6C914.203 580.067 918.337 578.8 923.67 578.8H951.27C956.737 578.8 960.87 580.2 963.67 583C966.47 585.8 967.87 589.933 967.87 595.4V637.2C967.87 641.867 966.87 645.8 964.87 649C963.003 652.2 959.937 654.533 955.67 656C949.137 658.133 942.27 659.733 935.07 660.8C928.003 661.867 920.803 662.4 913.47 662.4ZM1039.45 662C1032.52 662 1027.18 660.133 1023.45 656.4C1019.72 652.533 1017.85 647.133 1017.85 640.2V540.8C1017.85 533.733 1019.72 528.333 1023.45 524.6C1027.32 520.867 1032.72 519 1039.65 519H1089.45C1105.72 519 1118.25 523.067 1127.05 531.2C1135.98 539.2 1140.45 550.2 1140.45 564.2C1140.45 573.4 1138.45 581.4 1134.45 588.2C1130.45 594.867 1124.65 600.067 1117.05 603.8C1109.58 607.4 1100.38 609.2 1089.45 609.2L1090.85 605.4H1102.25C1108.12 605.4 1113.32 606.8 1117.85 609.6C1122.38 612.267 1126.12 616.333 1129.05 621.8L1136.05 634.4C1138.58 638.933 1139.72 643.333 1139.45 647.6C1139.32 651.733 1137.65 655.2 1134.45 658C1131.38 660.667 1126.72 662 1120.45 662C1114.45 662 1109.52 660.8 1105.65 658.4C1101.78 655.867 1098.38 651.933 1095.45 646.6L1078.25 615.2C1077.18 613.2 1075.65 611.8 1073.65 611C1071.65 610.067 1069.58 609.6 1067.45 609.6H1060.85V640.2C1060.85 647.133 1059.05 652.533 1055.45 656.4C1051.85 660.133 1046.52 662 1039.45 662ZM1060.85 579.6H1081.45C1087.32 579.6 1091.78 578.467 1094.85 576.2C1098.05 573.933 1099.65 570.4 1099.65 565.6C1099.65 560.933 1098.05 557.467 1094.85 555.2C1091.78 552.933 1087.32 551.8 1081.45 551.8H1060.85V579.6ZM1211.01 662C1204.07 662 1198.74 660.133 1195.01 656.4C1191.27 652.533 1189.41 647.067 1189.41 640V539C1189.41 531.933 1191.27 526.533 1195.01 522.8C1198.74 518.933 1204.07 517 1211.01 517C1217.94 517 1223.21 518.933 1226.81 522.8C1230.54 526.533 1232.41 531.933 1232.41 539V640C1232.41 647.067 1230.61 652.533 1227.01 656.4C1223.41 660.133 1218.07 662 1211.01 662ZM1305.03 660C1298.09 660 1292.69 658.133 1288.83 654.4C1285.09 650.533 1283.23 645.133 1283.23 638.2V540.8C1283.23 533.733 1285.09 528.333 1288.83 524.6C1292.56 520.867 1297.89 519 1304.83 519C1311.76 519 1317.03 520.867 1320.63 524.6C1324.36 528.333 1326.23 533.733 1326.23 540.8V624.4H1370.03C1375.89 624.4 1380.36 625.933 1383.43 629C1386.63 632.067 1388.23 636.467 1388.23 642.2C1388.23 647.933 1386.63 652.333 1383.43 655.4C1380.36 658.467 1375.89 660 1370.03 660H1305.03ZM1452.56 660C1445.62 660 1440.22 658.133 1436.36 654.4C1432.62 650.533 1430.76 645.133 1430.76 638.2V540.8C1430.76 533.733 1432.62 528.333 1436.36 524.6C1440.09 520.867 1445.42 519 1452.36 519C1459.29 519 1464.56 520.867 1468.16 524.6C1471.89 528.333 1473.76 533.733 1473.76 540.8V624.4H1517.56C1523.42 624.4 1527.89 625.933 1530.96 629C1534.16 632.067 1535.76 636.467 1535.76 642.2C1535.76 647.933 1534.16 652.333 1530.96 655.4C1527.89 658.467 1523.42 660 1517.56 660H1452.56ZM1630.94 662.4C1625.87 662.4 1620.47 662 1614.74 661.2C1609 660.533 1603.47 659.6 1598.14 658.4C1592.94 657.067 1588.27 655.6 1584.14 654C1579.87 652.267 1576.87 649.8 1575.14 646.6C1573.4 643.267 1572.74 639.733 1573.14 636C1573.54 632.267 1574.8 628.933 1576.94 626C1579.07 623.067 1581.94 621.067 1585.54 620C1589.14 618.8 1593.2 619.133 1597.74 621C1602.4 622.867 1607.87 624.4 1614.14 625.6C1620.54 626.8 1626.14 627.4 1630.94 627.4C1638.67 627.4 1643.94 626.533 1646.74 624.8C1649.54 623.067 1650.94 621.067 1650.94 618.8C1650.94 616.667 1649.94 614.933 1647.94 613.6C1646.07 612.133 1642.54 610.867 1637.34 609.8L1613.34 604.6C1600.4 601.8 1590.8 597 1584.54 590.2C1578.27 583.4 1575.14 574.667 1575.14 564C1575.14 556.8 1576.6 550.333 1579.54 544.6C1582.6 538.733 1586.87 533.733 1592.34 529.6C1597.8 525.467 1604.34 522.267 1611.94 520C1619.54 517.733 1628 516.6 1637.34 516.6C1643.6 516.6 1650.27 517.267 1657.34 518.6C1664.4 519.933 1670.47 521.867 1675.54 524.4C1679.14 526.133 1681.74 528.6 1683.34 531.8C1685.07 535 1685.8 538.333 1685.54 541.8C1685.27 545.267 1684.14 548.4 1682.14 551.2C1680.27 553.867 1677.6 555.733 1674.14 556.8C1670.67 557.733 1666.47 557.333 1661.54 555.6C1658.2 554.4 1654.2 553.467 1649.54 552.8C1644.87 552 1640.6 551.6 1636.74 551.6C1632.47 551.6 1628.87 552.067 1625.94 553C1623 553.8 1620.8 555 1619.34 556.6C1617.87 558.067 1617.14 559.8 1617.14 561.8C1617.14 563.533 1618.07 565.133 1619.94 566.6C1621.8 567.933 1625.4 569.133 1630.74 570.2L1654.74 575.4C1667.54 578.2 1677.07 582.933 1683.34 589.6C1689.74 596.267 1692.94 604.8 1692.94 615.2C1692.94 622.4 1691.47 628.933 1688.54 634.8C1685.6 640.533 1681.4 645.467 1675.94 649.6C1670.6 653.733 1664.14 656.933 1656.54 659.2C1648.94 661.333 1640.4 662.4 1630.94 662.4Z" fill="#0B8F2C"/>
<mask id="path-3-outside-1_260_74" maskUnits="userSpaceOnUse" x="641.32" y="225.738" width="594" height="153" fill="black">
<rect fill="white" x="641.32" y="225.738" width="594" height="153"/>
<path d="M670.041 367.538C664.401 367.538 660.081 366.038 657.081 363.038C654.081 359.918 652.581 355.538 652.581 349.898V254.678C652.581 249.038 654.201 244.718 657.441 241.718C660.681 238.598 665.241 237.038 671.121 237.038C676.041 237.038 679.941 237.998 682.821 239.918C685.701 241.838 688.341 244.958 690.741 249.278L726.021 311.558H719.541L754.821 249.278C757.221 244.958 759.861 241.838 762.741 239.918C765.741 237.998 769.641 237.038 774.441 237.038C780.081 237.038 784.401 238.598 787.401 241.718C790.521 244.718 792.081 249.038 792.081 254.678V349.898C792.081 355.538 790.581 359.918 787.581 363.038C784.581 366.038 780.261 367.538 774.621 367.538C768.981 367.538 764.661 366.038 761.661 363.038C758.661 359.918 757.161 355.538 757.161 349.898V300.038H760.761L736.641 339.998C734.841 342.998 732.801 345.278 730.521 346.838C728.361 348.278 725.541 348.998 722.061 348.998C718.581 348.998 715.701 348.278 713.421 346.838C711.261 345.278 709.281 342.998 707.481 339.998L683.361 300.038H687.501V349.898C687.501 355.538 686.001 359.918 683.001 363.038C680.001 366.038 675.681 367.538 670.041 367.538ZM858.065 365.738C851.585 365.738 846.605 364.058 843.125 360.698C839.765 357.218 838.085 352.238 838.085 345.758V258.818C838.085 252.338 839.765 247.418 843.125 244.058C846.605 240.578 851.585 238.838 858.065 238.838H917.465C922.385 238.838 926.105 240.098 928.625 242.618C931.145 245.138 932.405 248.798 932.405 253.598C932.405 258.398 931.145 262.058 928.625 264.578C926.105 267.098 922.385 268.358 917.465 268.358H874.985V286.538H913.325C918.245 286.538 921.965 287.798 924.485 290.318C927.005 292.838 928.265 296.498 928.265 301.298C928.265 306.098 927.005 309.758 924.485 312.278C921.965 314.798 918.245 316.058 913.325 316.058H874.985V336.218H917.465C922.385 336.218 926.105 337.478 928.625 339.998C931.145 342.518 932.405 346.178 932.405 350.978C932.405 355.778 931.145 359.438 928.625 361.958C926.105 364.478 922.385 365.738 917.465 365.738H858.065ZM995.589 365.738C989.109 365.738 984.129 364.058 980.649 360.698C977.289 357.218 975.609 352.238 975.609 345.758V258.818C975.609 252.338 977.289 247.418 980.649 244.058C984.129 240.578 989.109 238.838 995.589 238.838H1054.99C1059.91 238.838 1063.63 240.098 1066.15 242.618C1068.67 245.138 1069.93 248.798 1069.93 253.598C1069.93 258.398 1068.67 262.058 1066.15 264.578C1063.63 267.098 1059.91 268.358 1054.99 268.358H1012.51V286.538H1050.85C1055.77 286.538 1059.49 287.798 1062.01 290.318C1064.53 292.838 1065.79 296.498 1065.79 301.298C1065.79 306.098 1064.53 309.758 1062.01 312.278C1059.49 314.798 1055.77 316.058 1050.85 316.058H1012.51V336.218H1054.99C1059.91 336.218 1063.63 337.478 1066.15 339.998C1068.67 342.518 1069.93 346.178 1069.93 350.978C1069.93 355.778 1068.67 359.438 1066.15 361.958C1063.63 364.478 1059.91 365.738 1054.99 365.738H995.589ZM1164.03 367.538C1157.79 367.538 1152.99 365.858 1149.63 362.498C1146.27 359.018 1144.59 354.158 1144.59 347.918V270.158H1120.11C1114.95 270.158 1110.99 268.838 1108.23 266.198C1105.59 263.438 1104.27 259.538 1104.27 254.498C1104.27 249.458 1105.59 245.618 1108.23 242.978C1110.99 240.218 1114.95 238.838 1120.11 238.838H1207.77C1212.93 238.838 1216.83 240.218 1219.47 242.978C1222.23 245.618 1223.61 249.458 1223.61 254.498C1223.61 259.538 1222.23 263.438 1219.47 266.198C1216.83 268.838 1212.93 270.158 1207.77 270.158H1183.29V347.918C1183.29 354.158 1181.67 359.018 1178.43 362.498C1175.19 365.858 1170.39 367.538 1164.03 367.538Z"/>
</mask>
<path d="M657.081 363.038L649.198 370.618L649.272 370.695L649.348 370.771L657.081 363.038ZM657.441 241.718L664.872 249.743L664.95 249.67L665.027 249.596L657.441 241.718ZM682.821 239.918L688.888 230.818L688.888 230.818L682.821 239.918ZM690.741 249.278L681.181 254.589L681.203 254.629L681.225 254.668L690.741 249.278ZM726.021 311.558V322.495H744.786L735.537 306.167L726.021 311.558ZM719.541 311.558L710.025 306.167L700.776 322.495H719.541V311.558ZM754.821 249.278L764.337 254.668L764.36 254.629L764.382 254.589L754.821 249.278ZM762.741 239.918L756.846 230.706L756.76 230.761L756.675 230.818L762.741 239.918ZM787.401 241.718L779.518 249.298L779.666 249.453L779.821 249.601L787.401 241.718ZM787.581 363.038L795.315 370.771L795.39 370.695L795.465 370.618L787.581 363.038ZM761.661 363.038L753.778 370.618L753.852 370.695L753.928 370.771L761.661 363.038ZM757.161 300.038V289.101H746.224V300.038H757.161ZM760.761 300.038L770.124 305.69L780.137 289.101H760.761V300.038ZM736.641 339.998L727.278 334.346L727.27 334.358L727.263 334.371L736.641 339.998ZM730.521 346.838L736.588 355.938L736.643 355.901L736.697 355.864L730.521 346.838ZM713.421 346.838L707.018 355.704L707.293 355.903L707.581 356.085L713.421 346.838ZM707.481 339.998L716.859 334.371L716.852 334.358L716.844 334.346L707.481 339.998ZM683.361 300.038V289.101H663.985L673.998 305.69L683.361 300.038ZM687.501 300.038H698.438V289.101H687.501V300.038ZM683.001 363.038L690.735 370.771L690.81 370.695L690.885 370.618L683.001 363.038ZM670.041 356.601C666.314 356.601 665.157 355.647 664.815 355.304L649.348 370.771C655.005 376.429 662.489 378.475 670.041 378.475V356.601ZM664.965 355.457C664.463 354.935 663.518 353.598 663.518 349.898H641.644C641.644 357.477 643.7 364.9 649.198 370.618L664.965 355.457ZM663.518 349.898V254.678H641.644V349.898H663.518ZM663.518 254.678C663.518 251.188 664.45 250.133 664.872 249.743L650.011 233.693C643.953 239.302 641.644 246.888 641.644 254.678H663.518ZM665.027 249.596C665.663 248.984 667.171 247.975 671.121 247.975V226.101C663.311 226.101 655.7 228.212 649.855 233.84L665.027 249.596ZM671.121 247.975C674.753 247.975 676.28 248.701 676.755 249.018L688.888 230.818C683.602 227.294 677.329 226.101 671.121 226.101V247.975ZM676.755 249.018C677.699 249.647 679.289 251.183 681.181 254.589L700.302 243.966C697.394 238.732 693.703 234.028 688.888 230.818L676.755 249.018ZM681.225 254.668L716.505 316.948L735.537 306.167L700.257 243.887L681.225 254.668ZM726.021 300.621H719.541V322.495H726.021V300.621ZM729.057 316.948L764.337 254.668L745.305 243.887L710.025 306.167L729.057 316.948ZM764.382 254.589C766.274 251.183 767.863 249.647 768.808 249.018L756.675 230.818C751.859 234.028 748.169 238.732 745.261 243.966L764.382 254.589ZM768.637 249.13C769.364 248.664 771.024 247.975 774.441 247.975V226.101C768.258 226.101 762.119 227.331 756.846 230.706L768.637 249.13ZM774.441 247.975C778.051 247.975 779.154 248.92 779.518 249.298L795.285 234.137C789.649 228.276 782.111 226.101 774.441 226.101V247.975ZM779.821 249.601C780.199 249.965 781.144 251.068 781.144 254.678H803.018C803.018 247.008 800.843 239.47 794.982 233.834L779.821 249.601ZM781.144 254.678V349.898H803.018V254.678H781.144ZM781.144 349.898C781.144 353.598 780.2 354.935 779.698 355.457L795.465 370.618C800.963 364.901 803.018 357.477 803.018 349.898H781.144ZM779.848 355.304C779.505 355.647 778.349 356.601 774.621 356.601V378.475C782.174 378.475 789.657 376.429 795.315 370.771L779.848 355.304ZM774.621 356.601C770.894 356.601 769.737 355.647 769.395 355.304L753.928 370.771C759.585 376.429 767.069 378.475 774.621 378.475V356.601ZM769.545 355.457C769.043 354.935 768.098 353.598 768.098 349.898H746.224C746.224 357.477 748.28 364.9 753.778 370.618L769.545 355.457ZM768.098 349.898V300.038H746.224V349.898H768.098ZM757.161 310.975H760.761V289.101H757.161V310.975ZM751.398 294.386L727.278 334.346L746.004 345.65L770.124 305.69L751.398 294.386ZM727.263 334.371C726.064 336.368 725.028 337.345 724.345 337.812L736.697 355.864C740.575 353.211 743.618 349.627 746.019 345.625L727.263 334.371ZM724.455 337.738C724.608 337.635 724.101 338.061 722.061 338.061V359.935C726.981 359.935 732.114 358.92 736.588 355.938L724.455 337.738ZM722.061 338.061C720.057 338.061 719.353 337.649 719.261 337.591L707.581 356.085C712.05 358.907 717.106 359.935 722.061 359.935V338.061ZM719.825 337.972C719.178 337.504 718.124 336.479 716.859 334.371L698.103 345.625C700.438 349.516 703.345 353.051 707.018 355.704L719.825 337.972ZM716.844 334.346L692.724 294.386L673.998 305.69L698.118 345.65L716.844 334.346ZM683.361 310.975H687.501V289.101H683.361V310.975ZM676.564 300.038V349.898H698.438V300.038H676.564ZM676.564 349.898C676.564 353.598 675.62 354.935 675.118 355.457L690.885 370.618C696.383 364.901 698.438 357.477 698.438 349.898H676.564ZM675.268 355.304C674.925 355.647 673.769 356.601 670.041 356.601V378.475C677.594 378.475 685.077 376.429 690.735 370.771L675.268 355.304ZM843.125 360.698L835.257 368.294L835.391 368.432L835.529 368.566L843.125 360.698ZM843.125 244.058L835.392 236.324L835.392 236.324L843.125 244.058ZM928.625 242.618L920.892 250.351L920.892 250.351L928.625 242.618ZM928.625 264.578L920.892 256.844L920.892 256.844L928.625 264.578ZM874.985 268.358V257.421H864.048V268.358H874.985ZM874.985 286.538H864.048V297.475H874.985V286.538ZM924.485 290.318L916.752 298.051L916.752 298.051L924.485 290.318ZM924.485 312.278L916.752 304.544L916.752 304.544L924.485 312.278ZM874.985 316.058V305.121H864.048V316.058H874.985ZM874.985 336.218H864.048V347.155H874.985V336.218ZM928.625 339.998L920.892 347.731L920.892 347.731L928.625 339.998ZM928.625 361.958L920.892 354.224L920.892 354.224L928.625 361.958ZM858.065 354.801C853.432 354.801 851.549 353.628 850.722 352.83L835.529 368.566C841.662 374.487 849.738 376.675 858.065 376.675V354.801ZM850.993 353.101C850.195 352.274 849.022 350.391 849.022 345.758H827.148C827.148 354.085 829.336 362.161 835.257 368.294L850.993 353.101ZM849.022 345.758V258.818H827.148V345.758H849.022ZM849.022 258.818C849.022 254.157 850.205 252.445 850.859 251.791L835.392 236.324C829.325 242.391 827.148 250.518 827.148 258.818H849.022ZM850.859 251.791C851.7 250.95 853.533 249.775 858.065 249.775V227.901C849.638 227.901 841.511 230.205 835.392 236.324L850.859 251.791ZM858.065 249.775H917.465V227.901H858.065V249.775ZM917.465 249.775C919.02 249.775 919.951 249.977 920.437 250.141C920.67 250.221 920.794 250.288 920.844 250.318C920.87 250.334 920.883 250.344 920.887 250.348C920.89 250.349 920.891 250.35 920.891 250.351C920.892 250.351 920.892 250.351 920.892 250.351L936.359 234.884C931.109 229.635 924.16 227.901 917.465 227.901V249.775ZM920.892 250.351C920.902 250.361 920.919 250.38 920.949 250.428C920.98 250.479 921.045 250.597 921.119 250.813C921.273 251.26 921.468 252.13 921.468 253.598H943.342C943.342 246.933 941.561 240.087 936.359 234.884L920.892 250.351ZM921.468 253.598C921.468 255.066 921.273 255.935 921.119 256.383C921.045 256.599 920.98 256.716 920.949 256.767C920.919 256.816 920.902 256.835 920.892 256.844L936.359 272.311C941.561 267.109 943.342 260.263 943.342 253.598H921.468ZM920.892 256.844C920.892 256.844 920.892 256.845 920.891 256.845C920.891 256.845 920.89 256.846 920.887 256.848C920.883 256.851 920.87 256.861 920.844 256.877C920.794 256.907 920.67 256.975 920.437 257.054C919.951 257.219 919.02 257.421 917.465 257.421V279.295C924.16 279.295 931.109 277.561 936.359 272.311L920.892 256.844ZM917.465 257.421H874.985V279.295H917.465V257.421ZM864.048 268.358V286.538H885.922V268.358H864.048ZM874.985 297.475H913.325V275.601H874.985V297.475ZM913.325 297.475C914.88 297.475 915.811 297.677 916.297 297.841C916.53 297.921 916.654 297.988 916.704 298.018C916.73 298.034 916.743 298.044 916.747 298.048C916.75 298.049 916.751 298.05 916.751 298.051C916.752 298.051 916.752 298.051 916.752 298.051L932.219 282.584C926.969 277.335 920.02 275.601 913.325 275.601V297.475ZM916.752 298.051C916.762 298.061 916.779 298.08 916.809 298.128C916.84 298.179 916.905 298.297 916.979 298.513C917.133 298.96 917.328 299.83 917.328 301.298H939.202C939.202 294.633 937.421 287.787 932.219 282.584L916.752 298.051ZM917.328 301.298C917.328 302.766 917.133 303.635 916.979 304.083C916.905 304.299 916.84 304.416 916.809 304.467C916.779 304.516 916.762 304.535 916.752 304.544L932.219 320.011C937.421 314.809 939.202 307.963 939.202 301.298H917.328ZM916.752 304.544C916.752 304.544 916.752 304.545 916.751 304.545C916.751 304.545 916.75 304.546 916.747 304.548C916.743 304.551 916.73 304.561 916.704 304.577C916.654 304.607 916.53 304.675 916.297 304.754C915.811 304.919 914.88 305.121 913.325 305.121V326.995C920.02 326.995 926.969 325.261 932.219 320.011L916.752 304.544ZM913.325 305.121H874.985V326.995H913.325V305.121ZM864.048 316.058V336.218H885.922V316.058H864.048ZM874.985 347.155H917.465V325.281H874.985V347.155ZM917.465 347.155C919.02 347.155 919.951 347.357 920.437 347.521C920.67 347.601 920.794 347.668 920.844 347.698C920.87 347.714 920.883 347.724 920.887 347.728C920.89 347.729 920.891 347.731 920.891 347.731C920.892 347.731 920.892 347.731 920.892 347.731L936.359 332.264C931.109 327.015 924.16 325.281 917.465 325.281V347.155ZM920.892 347.731C920.902 347.741 920.919 347.76 920.949 347.808C920.98 347.859 921.045 347.977 921.119 348.193C921.273 348.64 921.468 349.51 921.468 350.978H943.342C943.342 344.313 941.561 337.467 936.359 332.264L920.892 347.731ZM921.468 350.978C921.468 352.446 921.273 353.315 921.119 353.763C921.045 353.979 920.98 354.096 920.949 354.147C920.919 354.196 920.902 354.215 920.892 354.224L936.359 369.691C941.561 364.489 943.342 357.643 943.342 350.978H921.468ZM920.892 354.224C920.892 354.224 920.892 354.225 920.891 354.225C920.891 354.225 920.89 354.226 920.887 354.228C920.883 354.231 920.87 354.241 920.844 354.257C920.794 354.287 920.67 354.355 920.437 354.434C919.951 354.599 919.02 354.801 917.465 354.801V376.675C924.16 376.675 931.109 374.941 936.359 369.691L920.892 354.224ZM917.465 354.801H858.065V376.675H917.465V354.801ZM980.649 360.698L972.782 368.294L972.915 368.432L973.053 368.566L980.649 360.698ZM980.649 244.058L972.916 236.324L972.916 236.324L980.649 244.058ZM1066.15 242.618L1058.42 250.351L1058.42 250.351L1066.15 242.618ZM1066.15 264.578L1058.42 256.844L1058.42 256.844L1066.15 264.578ZM1012.51 268.358V257.421H1001.57V268.358H1012.51ZM1012.51 286.538H1001.57V297.475H1012.51V286.538ZM1062.01 290.318L1054.28 298.051L1054.28 298.051L1062.01 290.318ZM1062.01 312.278L1054.28 304.544L1054.28 304.544L1062.01 312.278ZM1012.51 316.058V305.121H1001.57V316.058H1012.51ZM1012.51 336.218H1001.57V347.155H1012.51V336.218ZM1066.15 339.998L1058.42 347.731L1058.42 347.731L1066.15 339.998ZM1066.15 361.958L1058.42 354.224L1058.42 354.224L1066.15 361.958ZM995.589 354.801C990.956 354.801 989.073 353.628 988.246 352.83L973.053 368.566C979.186 374.487 987.263 376.675 995.589 376.675V354.801ZM988.517 353.101C987.719 352.274 986.546 350.391 986.546 345.758H964.673C964.673 354.085 966.86 362.161 972.782 368.294L988.517 353.101ZM986.546 345.758V258.818H964.673V345.758H986.546ZM986.546 258.818C986.546 254.157 987.729 252.445 988.383 251.791L972.916 236.324C966.85 242.391 964.673 250.518 964.673 258.818H986.546ZM988.383 251.791C989.224 250.95 991.057 249.775 995.589 249.775V227.901C987.162 227.901 979.035 230.205 972.916 236.324L988.383 251.791ZM995.589 249.775H1054.99V227.901H995.589V249.775ZM1054.99 249.775C1056.54 249.775 1057.48 249.977 1057.96 250.141C1058.19 250.221 1058.32 250.288 1058.37 250.318C1058.39 250.334 1058.41 250.344 1058.41 250.348C1058.41 250.349 1058.42 250.35 1058.42 250.351C1058.42 250.351 1058.42 250.351 1058.42 250.351L1073.88 234.884C1068.63 229.635 1061.68 227.901 1054.99 227.901V249.775ZM1058.42 250.351C1058.43 250.361 1058.44 250.38 1058.47 250.428C1058.5 250.479 1058.57 250.597 1058.64 250.813C1058.8 251.26 1058.99 252.13 1058.99 253.598H1080.87C1080.87 246.933 1079.09 240.087 1073.88 234.884L1058.42 250.351ZM1058.99 253.598C1058.99 255.066 1058.8 255.935 1058.64 256.383C1058.57 256.599 1058.5 256.716 1058.47 256.767C1058.44 256.816 1058.43 256.835 1058.42 256.844L1073.88 272.311C1079.09 267.109 1080.87 260.263 1080.87 253.598H1058.99ZM1058.42 256.844C1058.42 256.844 1058.42 256.845 1058.42 256.845C1058.42 256.845 1058.41 256.846 1058.41 256.848C1058.41 256.851 1058.39 256.861 1058.37 256.877C1058.32 256.907 1058.19 256.975 1057.96 257.054C1057.48 257.219 1056.54 257.421 1054.99 257.421V279.295C1061.68 279.295 1068.63 277.561 1073.88 272.311L1058.42 256.844ZM1054.99 257.421H1012.51V279.295H1054.99V257.421ZM1001.57 268.358V286.538H1023.45V268.358H1001.57ZM1012.51 297.475H1050.85V275.601H1012.51V297.475ZM1050.85 297.475C1052.4 297.475 1053.34 297.677 1053.82 297.841C1054.05 297.921 1054.18 297.988 1054.23 298.018C1054.25 298.034 1054.27 298.044 1054.27 298.048C1054.27 298.049 1054.28 298.05 1054.28 298.051C1054.28 298.051 1054.28 298.051 1054.28 298.051L1069.74 282.584C1064.49 277.335 1057.54 275.601 1050.85 275.601V297.475ZM1054.28 298.051C1054.29 298.061 1054.3 298.08 1054.33 298.128C1054.36 298.179 1054.43 298.297 1054.5 298.513C1054.66 298.96 1054.85 299.83 1054.85 301.298H1076.73C1076.73 294.633 1074.95 287.787 1069.74 282.584L1054.28 298.051ZM1054.85 301.298C1054.85 302.766 1054.66 303.635 1054.5 304.083C1054.43 304.299 1054.36 304.416 1054.33 304.467C1054.3 304.516 1054.29 304.535 1054.28 304.544L1069.74 320.011C1074.95 314.809 1076.73 307.963 1076.73 301.298H1054.85ZM1054.28 304.544C1054.28 304.544 1054.28 304.545 1054.28 304.545C1054.28 304.545 1054.27 304.546 1054.27 304.548C1054.27 304.551 1054.25 304.561 1054.23 304.577C1054.18 304.607 1054.05 304.675 1053.82 304.754C1053.34 304.919 1052.4 305.121 1050.85 305.121V326.995C1057.54 326.995 1064.49 325.261 1069.74 320.011L1054.28 304.544ZM1050.85 305.121H1012.51V326.995H1050.85V305.121ZM1001.57 316.058V336.218H1023.45V316.058H1001.57ZM1012.51 347.155H1054.99V325.281H1012.51V347.155ZM1054.99 347.155C1056.54 347.155 1057.48 347.357 1057.96 347.521C1058.19 347.601 1058.32 347.668 1058.37 347.698C1058.39 347.714 1058.41 347.724 1058.41 347.728C1058.41 347.729 1058.42 347.731 1058.42 347.731C1058.42 347.731 1058.42 347.731 1058.42 347.731L1073.88 332.264C1068.63 327.015 1061.68 325.281 1054.99 325.281V347.155ZM1058.42 347.731C1058.43 347.741 1058.44 347.76 1058.47 347.808C1058.5 347.859 1058.57 347.977 1058.64 348.193C1058.8 348.64 1058.99 349.51 1058.99 350.978H1080.87C1080.87 344.313 1079.09 337.467 1073.88 332.264L1058.42 347.731ZM1058.99 350.978C1058.99 352.446 1058.8 353.315 1058.64 353.763C1058.57 353.979 1058.5 354.096 1058.47 354.147C1058.44 354.196 1058.43 354.215 1058.42 354.224L1073.88 369.691C1079.09 364.489 1080.87 357.643 1080.87 350.978H1058.99ZM1058.42 354.224C1058.42 354.224 1058.42 354.225 1058.42 354.225C1058.42 354.225 1058.41 354.226 1058.41 354.228C1058.41 354.231 1058.39 354.241 1058.37 354.257C1058.32 354.287 1058.19 354.355 1057.96 354.434C1057.48 354.599 1056.54 354.801 1054.99 354.801V376.675C1061.68 376.675 1068.63 374.941 1073.88 369.691L1058.42 354.224ZM1054.99 354.801H995.589V376.675H1054.99V354.801ZM1149.63 362.498L1141.76 370.094L1141.83 370.163L1141.89 370.231L1149.63 362.498ZM1144.59 270.158H1155.52V259.221H1144.59V270.158ZM1108.23 266.198L1100.32 273.758L1100.49 273.933L1100.67 274.101L1108.23 266.198ZM1108.23 242.978L1100.49 235.244L1100.49 235.244L1108.23 242.978ZM1219.47 242.978L1211.56 250.538L1211.73 250.713L1211.91 250.881L1219.47 242.978ZM1183.29 270.158V259.221H1172.35V270.158H1183.29ZM1178.43 362.498L1186.3 370.089L1186.37 370.02L1186.43 369.95L1178.43 362.498ZM1164.03 356.601C1159.74 356.601 1158.09 355.491 1157.36 354.764L1141.89 370.231C1147.89 376.225 1155.83 378.475 1164.03 378.475V356.601ZM1157.5 354.901C1156.63 354.002 1155.52 352.178 1155.52 347.918H1133.65C1133.65 356.138 1135.91 364.034 1141.76 370.094L1157.5 354.901ZM1155.52 347.918V270.158H1133.65V347.918H1155.52ZM1144.59 259.221H1120.11V281.095H1144.59V259.221ZM1120.11 259.221C1116.75 259.221 1115.88 258.387 1115.79 258.294L1100.67 274.101C1106.09 279.289 1113.14 281.095 1120.11 281.095V259.221ZM1116.13 258.638C1116 258.497 1115.2 257.648 1115.2 254.498H1093.33C1093.33 261.427 1095.18 268.379 1100.32 273.758L1116.13 258.638ZM1115.2 254.498C1115.2 252.907 1115.42 251.931 1115.6 251.393C1115.77 250.906 1115.92 250.755 1115.96 250.711L1100.49 235.244C1095.17 240.571 1093.33 247.601 1093.33 254.498H1115.2ZM1115.96 250.711C1116.07 250.598 1116.88 249.775 1120.11 249.775V227.901C1113.01 227.901 1105.9 229.838 1100.49 235.244L1115.96 250.711ZM1120.11 249.775H1207.77V227.901H1120.11V249.775ZM1207.77 249.775C1209.4 249.775 1210.38 249.996 1210.91 250.183C1211.39 250.35 1211.52 250.496 1211.56 250.538L1227.37 235.418C1222.02 229.826 1214.83 227.901 1207.77 227.901V249.775ZM1211.91 250.881C1211.98 250.951 1212.12 251.099 1212.28 251.537C1212.46 252.028 1212.67 252.953 1212.67 254.498H1234.54C1234.54 247.469 1232.57 240.378 1227.03 235.074L1211.91 250.881ZM1212.67 254.498C1212.67 257.52 1211.89 258.305 1211.73 258.464L1227.2 273.931C1232.56 268.571 1234.54 261.556 1234.54 254.498H1212.67ZM1211.73 258.464C1211.72 258.478 1211.58 258.631 1211.06 258.808C1210.48 259.003 1209.44 259.221 1207.77 259.221V281.095C1214.7 281.095 1221.83 279.303 1227.2 273.931L1211.73 258.464ZM1207.77 259.221H1183.29V281.095H1207.77V259.221ZM1172.35 270.158V347.918H1194.22V270.158H1172.35ZM1172.35 347.918C1172.35 352.28 1171.25 354.157 1170.42 355.045L1186.43 369.95C1192.08 363.879 1194.22 356.036 1194.22 347.918H1172.35ZM1170.55 354.906C1170.04 355.443 1168.53 356.601 1164.03 356.601V378.475C1172.25 378.475 1180.34 376.272 1186.3 370.089L1170.55 354.906Z" fill="#009141" mask="url(#path-3-outside-1_260_74)"/>
</svg>
