<svg width="148" height="61" viewBox="0 0 148 61" fill="none" xmlns="http://www.w3.org/2000/svg">
<path d="M5.86796 53.7379L1.24172 33.1923L5.04646 32.3356L17.1955 44.6373L13.9861 30.3842L17.5568 29.5802L22.183 50.1258L18.4075 50.9759L6.30459 38.8791L9.46783 52.9273L5.86796 53.7379ZM22.8965 41.5701C22.5934 40.2238 22.4447 39.017 22.4503 37.9496C22.4755 36.8779 22.6844 35.9391 23.077 35.1332C23.489 34.3229 24.1335 33.6345 25.0105 33.068C25.8831 32.482 27.0218 32.0309 28.4267 31.7145C29.851 31.3938 31.0732 31.3134 32.0932 31.4732C33.1283 31.6091 34.0057 31.9549 34.7253 32.5103C35.4449 33.0658 36.036 33.8245 36.4986 34.7864C36.9807 35.7439 37.3733 36.8958 37.6765 38.2421C37.9796 39.5884 38.111 40.8093 38.0707 41.9049C38.0499 42.9962 37.8237 43.9491 37.3922 44.7638C36.9606 45.5785 36.3161 46.2669 35.4586 46.829C34.6011 47.3911 33.4895 47.8259 32.1237 48.1335C30.7774 48.4366 29.5867 48.5202 28.5515 48.3843C27.5359 48.2439 26.6585 47.8982 25.9194 47.3471C25.1998 46.7916 24.587 46.0276 24.081 45.055C23.5945 44.078 23.1997 42.9163 22.8965 41.5701ZM26.8769 40.6738C27.1712 41.9811 27.5233 42.9986 27.9332 43.7263C28.3387 44.4345 28.8324 44.8974 29.4144 45.1149C29.9964 45.3323 30.6776 45.3532 31.4581 45.1775C32.2776 44.9929 32.8939 44.6799 33.307 44.2384C33.7396 43.7925 33.9775 43.1649 34.0208 42.3556C34.0792 41.5224 33.9612 40.4522 33.6669 39.1449C33.3725 37.8376 33.0324 36.8277 32.6464 36.1151C32.2799 35.3981 31.8057 34.9308 31.2237 34.7133C30.6612 34.4915 29.9508 34.4772 29.0923 34.6705C28.2533 34.8594 27.6175 35.1769 27.1848 35.6228C26.7717 36.0643 26.5436 36.6897 26.5003 37.499C26.457 38.3083 26.5825 39.3665 26.8769 40.6738ZM46.4765 44.9016C45.5595 45.1081 44.7222 45.1224 43.9646 44.9445C43.207 44.7666 42.5659 44.3779 42.0415 43.7784C41.517 43.179 41.1383 42.3623 40.9055 41.3281L38.309 29.7969L42.2015 28.9204L44.5937 39.5444C44.7607 40.2858 45.0734 40.8099 45.532 41.1167C46.0057 41.3995 46.5938 41.4619 47.2962 41.3037C47.6864 41.2158 48.0483 41.0933 48.382 40.9362C48.7156 40.7791 49.0427 40.5927 49.3631 40.377C49.6792 40.1419 50.0103 39.8828 50.3566 39.5998L47.6745 27.688L51.567 26.8115L54.1503 38.2843C54.225 38.616 54.3136 38.8728 54.4161 39.0547C54.538 39.2323 54.6783 39.3545 54.8369 39.4213C54.991 39.4686 55.1559 39.4724 55.3315 39.4329C55.5656 39.3802 55.7888 39.2787 56.001 39.1284L56.949 41.8363C56.7651 42.0212 56.5475 42.1932 56.2964 42.3522C56.0452 42.5113 55.7603 42.6575 55.4418 42.7907C55.1428 42.9195 54.8177 43.0235 54.4665 43.1025C53.8226 43.2475 53.2455 43.234 52.7352 43.0618C52.2206 42.8702 51.7771 42.5396 51.4048 42.0699C50.9137 42.529 50.4138 42.9491 49.905 43.3301C49.3963 43.7112 48.8625 44.0261 48.3035 44.275C47.7489 44.5434 47.1399 44.7523 46.4765 44.9016ZM58.6561 25.2153L59.0779 27.0884C59.51 26.4581 59.925 25.9341 60.323 25.5165C60.7361 25.075 61.1711 24.731 61.6282 24.4846C62.1003 24.2143 62.6096 24.0176 63.1559 23.8946C63.5071 23.8155 63.8649 23.7657 64.2293 23.7451C64.6088 23.7007 64.9873 23.6975 65.3649 23.7354L65.5411 27.3859C65.1723 27.3869 64.7982 27.4097 64.4187 27.4541C64.0543 27.4747 63.716 27.5201 63.4038 27.5904C62.838 27.7178 62.2768 27.9569 61.7203 28.3077C61.1637 28.6586 60.6131 29.1721 60.0683 29.8482L62.5725 40.9698L58.68 41.8463L55.1148 26.0127L58.6561 25.2153ZM68.458 20.6404C67.6386 20.8249 67.0083 20.8028 66.5673 20.5741C66.1414 20.3215 65.8516 19.8537 65.6978 19.1708C65.5396 18.4684 65.601 17.9216 65.8819 17.5303C66.1824 17.1346 66.7423 16.8446 67.5618 16.66C68.3813 16.4755 69.0018 16.4998 69.4233 16.7329C69.8643 16.9616 70.1639 17.4272 70.322 18.1296C70.4758 18.8125 70.4047 19.3615 70.1086 19.7767C69.8277 20.168 69.2775 20.4559 68.458 20.6404ZM70.5698 39.1691L67.0046 23.3355L70.8971 22.459L74.4623 38.2926L70.5698 39.1691ZM76.4694 37.1949L76.2918 34.2213C76.6694 34.2592 77.086 34.2884 77.5416 34.3089C77.9928 34.3098 78.4614 34.2965 78.9472 34.2691C79.4526 34.2373 79.9438 34.1882 80.4208 34.1218C80.8979 34.0554 81.3413 33.9761 81.751 33.8838C82.6876 33.6729 83.3397 33.3826 83.7075 33.0127C84.0708 32.6234 84.1888 32.1458 84.0614 31.58C83.9911 31.2678 83.844 31.0242 83.6201 30.8491C83.4113 30.6501 83.1137 30.5121 82.7273 30.4351C82.3561 30.3342 81.9014 30.2725 81.3634 30.2502C80.8405 30.2039 80.2395 30.1753 79.5604 30.1641C78.8424 30.1618 78.2012 30.0909 77.6368 29.9515C77.0679 29.7926 76.5564 29.5695 76.1023 29.2823C75.6676 28.9906 75.3075 28.6207 75.0221 28.1724C74.7561 27.7198 74.5529 27.1813 74.4123 26.5569C74.0477 24.9375 74.2977 23.5896 75.1624 22.5134C76.0271 21.4372 77.4936 20.6662 79.5618 20.2005C80.2056 20.0555 80.8193 19.9583 81.4027 19.909C81.9817 19.8401 82.538 19.8071 83.0717 19.8099C83.6205 19.7889 84.1271 19.808 84.5915 19.8675L84.7529 22.9062C84.2929 22.8663 83.8373 22.8459 83.3861 22.845C82.9349 22.8441 82.449 22.8715 81.9285 22.9272C81.4276 22.9785 80.8649 23.0744 80.2405 23.215C79.4016 23.4039 78.7982 23.6833 78.4304 24.0531C78.0583 24.4034 77.9315 24.842 78.0502 25.3688C78.1205 25.681 78.2578 25.9268 78.4622 26.1063C78.6623 26.2662 78.924 26.3816 79.2474 26.4522C79.5708 26.5229 79.9604 26.5685 80.416 26.5889C80.8716 26.6093 81.376 26.6187 81.9291 26.6172C82.6906 26.6302 83.3926 26.6977 84.035 26.8195C84.6731 26.9219 85.2365 27.1025 85.7254 27.3614C86.2337 27.616 86.6664 27.9901 87.0236 28.4837C87.3959 28.9534 87.6677 29.5687 87.839 30.3296C88.0016 31.0516 88.0295 31.7218 87.9227 32.3404C87.8311 32.935 87.6244 33.4736 87.3025 33.9561C86.9806 34.4386 86.5751 34.8681 86.0859 35.2448C85.5923 35.602 85.027 35.9138 84.39 36.1802C83.7529 36.4466 83.0734 36.6611 82.3515 36.8237C81.6491 36.9819 80.9672 37.0944 80.3057 37.1613C79.6487 37.2478 78.9926 37.293 78.3374 37.297C77.7018 37.2966 77.0791 37.2626 76.4694 37.1949ZM91.0054 34.5676L86.1288 12.9098L90.0506 12.0268L91.652 19.1387C92.1582 18.6557 92.6484 18.2378 93.1225 17.8851C93.5966 17.5323 94.0936 17.2359 94.6136 16.9958C95.153 16.7513 95.7252 16.561 96.3301 16.4248C97.3251 16.2007 98.1939 16.1896 98.9364 16.3914C99.694 16.5694 100.325 16.9602 100.83 17.5641C101.331 18.1484 101.691 18.9283 101.911 19.9039L104.527 31.523L100.605 32.406L98.259 21.9869C98.0745 21.1674 97.7432 20.6065 97.2651 20.3041C96.787 20.0018 96.1772 19.9341 95.4358 20.101C95.0455 20.1889 94.6663 20.3255 94.298 20.511C93.9449 20.6725 93.5983 20.8633 93.2584 21.0833C92.9379 21.299 92.6045 21.5483 92.2583 21.8313L94.9272 33.6845L91.0054 34.5676ZM105.442 12.3127C104.623 12.4972 103.992 12.4751 103.551 12.2464C103.126 11.9938 102.836 11.526 102.682 10.8431C102.524 10.1407 102.585 9.59387 102.866 9.20261C103.167 8.80695 103.726 8.51686 104.546 8.33234C105.365 8.14781 105.986 8.1721 106.407 8.40521C106.848 8.63392 107.148 9.09948 107.306 9.80189C107.46 10.4848 107.389 11.0338 107.093 11.449C106.812 11.8403 106.262 12.1282 105.442 12.3127ZM107.554 30.8414L103.989 15.0078L107.881 14.1313L111.447 29.9649L107.554 30.8414ZM114.499 29.2775L110.934 13.4439L114.475 12.6465L114.785 14.0221C115.345 13.5064 115.892 13.0656 116.425 12.6996C116.953 12.3142 117.487 11.9992 118.026 11.7547C118.581 11.4864 119.18 11.2797 119.824 11.1347C120.838 10.9062 121.719 10.9027 122.466 11.124C123.228 11.3215 123.85 11.7145 124.331 12.3032C124.812 12.8919 125.158 13.6546 125.369 14.5911L127.991 26.2395L124.099 27.116L121.753 16.6968C121.568 15.8773 121.237 15.3164 120.759 15.0141C120.296 14.6878 119.684 14.6103 118.923 14.7817C118.533 14.8695 118.163 15.004 117.815 15.185C117.461 15.3465 117.115 15.5373 116.775 15.7574C116.435 15.9774 116.084 16.2409 115.723 16.5478L118.392 28.401L114.499 29.2775ZM138.439 30.6523C136.137 31.1707 134.311 31.2127 132.963 30.7783C131.638 30.359 130.825 29.4762 130.521 28.1299C130.398 27.5836 130.374 27.0663 130.449 26.578C130.547 26.1048 130.742 25.6508 131.034 25.2162C131.341 24.7576 131.748 24.3378 132.257 23.9567L134.623 24.2234C134.346 24.4498 134.113 24.6869 133.923 24.9347C133.732 25.1826 133.605 25.4367 133.541 25.6972C133.476 25.9577 133.482 26.2538 133.556 26.5855C133.662 27.0538 133.886 27.4133 134.23 27.6639C134.577 27.9341 135.071 28.0792 135.711 28.0991C136.351 28.119 137.149 28.0213 138.105 27.806C139.062 27.5907 139.851 27.3206 140.475 26.9956C141.119 26.6662 141.576 26.2864 141.849 25.8561C142.125 25.4454 142.211 25.0058 142.105 24.5376C142.026 24.1863 141.884 23.921 141.68 23.7415C141.499 23.5772 141.203 23.4901 140.791 23.4804C140.398 23.4664 139.88 23.5318 139.236 23.6768L135.783 24.4544C134.729 24.6917 133.793 24.7691 132.975 24.6868C132.153 24.585 131.477 24.3168 130.949 23.8823C130.44 23.4433 130.102 22.8531 129.935 22.1117C129.755 21.3117 129.801 20.6044 130.072 19.9897C130.359 19.3512 130.819 18.7555 131.453 18.2027L133.742 18.3948C133.341 18.7104 133.043 19.0236 132.846 19.3344C132.669 19.6408 132.624 19.9891 132.712 20.3793C132.805 20.789 133.033 21.0758 133.398 21.2397C133.763 21.4035 134.287 21.4086 134.97 21.2548L139.77 20.174C141.389 19.8094 142.702 19.9033 143.708 20.4558C144.729 20.9844 145.391 21.9219 145.694 23.2682C145.953 24.4194 145.843 25.4794 145.365 26.4482C144.886 27.4171 144.06 28.2589 142.889 28.9738C141.737 29.6842 140.253 30.2437 138.439 30.6523ZM136.124 18.5963C133.997 19.0752 132.286 18.9889 130.992 18.3374C129.697 17.6859 128.854 16.4919 128.463 14.7554C128.072 13.0188 128.322 11.5788 129.212 10.4352C130.103 9.29168 131.612 8.48046 133.738 8.00158C135.865 7.5227 137.576 7.60901 138.871 8.26051C140.185 8.90762 141.038 10.0994 141.429 11.836C141.82 13.5725 141.56 15.0147 140.65 16.1627C139.759 17.3062 138.251 18.1174 136.124 18.5963ZM135.551 16.0501C136.487 15.8392 137.134 15.4784 137.49 14.9676C137.842 14.4373 137.906 13.6746 137.682 12.6795C137.458 11.6844 137.074 11.0228 136.528 10.6945C135.983 10.3663 135.242 10.3077 134.305 10.5186C133.408 10.7207 132.773 11.0891 132.401 11.6237C132.049 12.154 131.985 12.9167 132.209 13.9118C132.433 14.9069 132.818 15.5686 133.364 15.8968C133.924 16.2011 134.653 16.2522 135.551 16.0501ZM139.787 10.1452L137.775 8.44581C137.894 7.7014 138.189 7.10184 138.661 6.64713C139.152 6.18803 139.788 5.87061 140.569 5.69487C140.842 5.63336 141.1 5.59576 141.343 5.58206C141.581 5.54886 141.805 5.53955 142.013 5.55415L142.246 8.63826C142.101 8.62999 141.928 8.63807 141.729 8.66249C141.549 8.68252 141.371 8.7123 141.195 8.75184C140.844 8.83092 140.54 8.98146 140.282 9.20345C140.044 9.42105 139.879 9.73498 139.787 10.1452Z" fill="white"/>
</svg>
