<svg width="137" height="40" viewBox="0 0 137 40" fill="none" xmlns="http://www.w3.org/2000/svg">
<path d="M0.882973 23.2348L3.4031 2.32608L7.27507 2.79277L14.6039 18.4523L16.3521 3.94727L19.9858 4.38524L17.4657 25.2939L13.6235 24.8308L6.26962 9.37979L4.54646 23.6763L0.882973 23.2348ZM25.2943 26.4792C24.361 26.3667 23.5673 26.0998 22.913 25.6785C22.2587 25.2572 21.7848 24.6763 21.4913 23.9359C21.1978 23.1954 21.1145 22.299 21.2413 21.2466L22.6557 9.51156L26.6171 9.98902L25.3139 20.8008C25.223 21.5553 25.3422 22.1539 25.6716 22.5965C26.0233 23.0216 26.5565 23.2773 27.2713 23.3634C27.6685 23.4113 28.0505 23.417 28.4175 23.3807C28.7845 23.3443 29.1551 23.2782 29.5292 23.1823C29.9058 23.0665 30.3046 22.9333 30.7257 22.7826L32.1868 10.6603L36.1481 11.1378L34.7408 22.8133C34.7001 23.1509 34.6976 23.4225 34.7333 23.6282C34.7888 23.8364 34.88 23.9985 35.007 24.1145C35.1365 24.2107 35.2905 24.2695 35.4692 24.2911C35.7075 24.3198 35.9518 24.2989 36.202 24.2283L36.1886 27.0973C35.9534 27.21 35.6909 27.2992 35.4009 27.365C35.111 27.4308 34.7936 27.4731 34.4489 27.492C34.124 27.5133 33.7828 27.5024 33.4254 27.4593C32.7702 27.3803 32.2309 27.1743 31.8078 26.8413C31.387 26.4884 31.0798 26.0283 30.8863 25.4611C30.2698 25.7292 29.658 25.9577 29.0511 26.1464C28.4442 26.3351 27.8357 26.4531 27.2256 26.5005C26.6132 26.5677 25.9694 26.5606 25.2943 26.4792ZM43.4437 28.6668C42.4112 28.5423 41.5614 28.2385 40.8945 27.7552C40.2474 27.2743 39.7942 26.6052 39.5349 25.7481C39.2954 24.8933 39.2523 23.8305 39.4055 22.5597L40.3676 14.5774L37.8955 14.2795L38.2114 11.6584L40.7158 11.6883L41.6231 8.17165L45.1079 8.59167L44.6771 12.1658L49.2342 12.7151L48.8823 15.6339L44.3253 15.0847L43.4063 22.7095C43.2962 23.6229 43.3872 24.2886 43.6793 24.7065C43.9714 25.1245 44.4748 25.3765 45.1897 25.4627C45.5868 25.5105 45.9974 25.5298 46.4216 25.5205C46.8481 25.4913 47.297 25.4447 47.768 25.3806L47.9415 28.4535C47.1138 28.6357 46.3167 28.731 45.5502 28.7394C44.8011 28.7699 44.099 28.7458 43.4437 28.6668ZM55.2006 13.4342L54.9708 15.3404C55.589 14.8911 56.1556 14.5364 56.6704 14.2761C57.2075 13.9984 57.7326 13.82 58.2458 13.7408C58.7812 13.6442 59.3269 13.6294 59.8829 13.6964C60.2403 13.7395 60.5941 13.8123 60.9443 13.915C61.3168 14.0002 61.6746 14.1239 62.0176 14.2861L60.9614 17.7848C60.6135 17.6623 60.2534 17.5585 59.8809 17.4733C59.5306 17.3706 59.1967 17.3002 58.879 17.2619C58.3031 17.1925 57.6943 17.2299 57.0524 17.3741C56.4106 17.5183 55.7198 17.8178 54.98 18.2726L53.6158 29.5907L49.6545 29.1132L51.5967 12.9998L55.2006 13.4342ZM65.9686 12.4053C65.1346 12.3048 64.5481 12.073 64.2092 11.7098C63.8924 11.3292 63.776 10.7914 63.8597 10.0964C63.9459 9.38157 64.1868 8.88685 64.5825 8.61222C64.9981 8.34 65.6228 8.25414 66.4568 8.35466C67.2908 8.45518 67.8673 8.68583 68.1864 9.0466C68.5254 9.40978 68.6518 9.94878 68.5657 10.6636C68.4819 11.3586 68.231 11.8521 67.8131 12.1442C67.4174 12.4188 66.8025 12.5059 65.9686 12.4053ZM61.7544 30.5716L63.6966 14.4582L67.6579 14.9357L65.7158 31.0491L61.7544 30.5716ZM74.6243 32.425C73.5918 32.3005 72.742 31.9967 72.075 31.5134C71.4279 31.0325 70.9747 30.3634 70.7155 29.5063C70.476 28.6515 70.4329 27.5887 70.5861 26.3179L71.5482 18.3356L69.0761 18.0377L69.392 15.4166L71.8964 15.4465L72.8037 11.9298L76.2885 12.3499L75.8577 15.924L80.4147 16.4733L80.0629 19.3921L75.5059 18.8429L74.5869 26.4677C74.4768 27.3811 74.5678 28.0468 74.8599 28.4647C75.152 28.8827 75.6554 29.1347 76.3702 29.2209C76.7674 29.2687 77.178 29.288 77.6022 29.2787C78.0287 29.2495 78.4775 29.2029 78.9486 29.1388L79.1221 32.2117C78.2944 32.3939 77.4972 32.4892 76.7307 32.4976C75.9817 32.5281 75.2795 32.504 74.6243 32.425ZM85.0492 14.7051C84.2153 14.6046 83.6288 14.3728 83.2898 14.0096C82.9731 13.629 82.8566 13.0912 82.9404 12.3962C83.0265 11.6814 83.2675 11.1866 83.6632 10.912C84.0787 10.6398 84.7035 10.5539 85.5375 10.6545C86.3714 10.755 86.948 10.9856 87.2671 11.3464C87.6061 11.7096 87.7325 12.2486 87.6463 12.9634C87.5625 13.6584 87.3117 14.1519 86.8937 14.444C86.498 14.7186 85.8832 14.8057 85.0492 14.7051ZM80.8351 32.8714L82.7772 16.758L86.7386 17.2355L84.7964 33.3489L80.8351 32.8714ZM88.2505 25.5763C88.4156 24.2062 88.6795 23.0193 89.0423 22.0155C89.4249 21.0141 89.936 20.1994 90.5758 19.5714C91.2354 18.9459 92.0732 18.513 93.0892 18.2729C94.1076 18.0129 95.3317 17.969 96.7613 18.1413C98.2108 18.3161 99.3894 18.6495 100.297 19.1416C101.227 19.6163 101.938 20.2358 102.43 21.0002C102.922 21.7646 103.225 22.6774 103.339 23.7386C103.472 24.8023 103.457 26.0192 103.292 27.3892C103.126 28.7593 102.841 29.9538 102.437 30.9727C102.052 31.9939 101.519 32.8162 100.84 33.4393C100.161 34.0625 99.3228 34.4954 98.3266 34.7379C97.3304 34.9804 96.1373 35.0179 94.7474 34.8504C93.3773 34.6853 92.2273 34.3654 91.2974 33.8907C90.3874 33.4184 89.6764 32.7989 89.1645 32.0321C88.6725 31.2677 88.3509 30.3426 88.1997 29.2567C88.0684 28.1732 88.0853 26.9464 88.2505 25.5763ZM92.3012 26.0646C92.1408 27.3949 92.1319 28.4716 92.2745 29.2946C92.4194 30.0977 92.7297 30.6991 93.2052 31.0989C93.6808 31.4987 94.3157 31.7465 95.11 31.8422C95.9439 31.9427 96.6295 31.8541 97.1666 31.5764C97.7235 31.301 98.1579 30.7893 98.4696 30.0413C98.8036 29.2757 99.0508 28.2278 99.2112 26.8974C99.3715 25.567 99.3891 24.5015 99.2641 23.7008C99.1588 22.9024 98.8684 22.3034 98.3929 21.9036C97.9371 21.5062 97.2724 21.2549 96.3988 21.1496C95.5449 21.0467 94.8395 21.1329 94.2826 21.4082C93.7455 21.6859 93.3211 22.1988 93.0093 22.9469C92.6976 23.695 92.4615 24.7342 92.3012 26.0646ZM109.354 36.6109C108.421 36.4984 107.627 36.2315 106.973 35.8102C106.318 35.3889 105.844 34.808 105.551 34.0676C105.257 33.3271 105.174 32.4307 105.301 31.3783L106.715 19.6433L110.677 20.1207L109.374 30.9325C109.283 31.687 109.402 32.2856 109.731 32.7282C110.083 33.1533 110.616 33.409 111.331 33.4951C111.728 33.543 112.11 33.5488 112.477 33.5124C112.844 33.4761 113.215 33.4099 113.589 33.314C113.965 33.1982 114.364 33.065 114.785 32.9143L116.246 20.792L120.208 21.2695L118.8 32.945C118.76 33.2826 118.757 33.5542 118.793 33.76C118.848 33.9681 118.94 34.1302 119.067 34.2462C119.196 34.3424 119.35 34.4012 119.529 34.4228C119.767 34.4515 120.011 34.4306 120.262 34.36L120.248 37.229C120.013 37.3417 119.75 37.4309 119.46 37.4967C119.171 37.5625 118.853 37.6048 118.508 37.6237C118.184 37.645 117.842 37.6341 117.485 37.591C116.83 37.512 116.291 37.306 115.867 36.973C115.447 36.6201 115.139 36.16 114.946 35.5928C114.329 35.8609 113.718 36.0894 113.111 36.2781C112.504 36.4668 111.895 36.5849 111.285 36.6322C110.673 36.6994 110.029 36.6923 109.354 36.6109ZM121.173 37.0988L122.002 34.2374C122.345 34.3996 122.728 34.5666 123.15 34.7384C123.575 34.8903 124.021 35.0347 124.488 35.1716C124.975 35.3108 125.454 35.429 125.926 35.5262C126.398 35.6234 126.842 35.6971 127.259 35.7473C128.212 35.8622 128.924 35.807 129.394 35.5816C129.867 35.3364 130.138 34.9259 130.207 34.3501C130.246 34.0324 130.189 33.7536 130.036 33.5136C129.906 33.2562 129.672 33.0265 129.334 32.8246C129.018 32.6052 128.61 32.3949 128.11 32.1937C127.633 31.975 127.076 31.7467 126.44 31.5089C125.764 31.2663 125.184 30.9848 124.699 30.6644C124.216 30.3242 123.809 29.9427 123.477 29.52C123.165 29.0997 122.95 28.6305 122.831 28.1126C122.732 27.597 122.72 27.0215 122.797 26.3861C122.996 24.7381 123.683 23.5517 124.858 22.8271C126.033 22.1026 127.673 21.8671 129.778 22.1208C130.433 22.1998 131.044 22.3137 131.61 22.4625C132.179 22.5915 132.714 22.7467 133.216 22.928C133.74 23.0919 134.211 23.2796 134.628 23.4911L133.763 26.4085C133.343 26.2169 132.921 26.0451 132.496 25.8932C132.071 25.7412 131.604 25.6044 131.095 25.4826C130.606 25.3632 130.043 25.2652 129.408 25.1886C128.554 25.0857 127.892 25.1469 127.422 25.3722C126.954 25.5777 126.687 25.9485 126.623 26.4846C126.584 26.8023 126.632 27.08 126.764 27.3175C126.899 27.5352 127.107 27.7315 127.388 27.9064C127.669 28.0813 128.021 28.2547 128.443 28.4265C128.866 28.5982 129.338 28.776 129.86 28.9598C130.573 29.227 131.212 29.5256 131.776 29.8556C132.343 30.1656 132.814 30.5245 133.188 30.9322C133.581 31.3422 133.864 31.8396 134.035 32.4243C134.229 32.9916 134.279 33.6624 134.186 34.4368C134.097 35.1714 133.899 35.8123 133.591 36.3595C133.306 36.8891 132.931 37.3274 132.466 37.6742C132.001 38.0211 131.475 38.2901 130.888 38.4812C130.303 38.6525 129.666 38.757 128.977 38.7948C128.287 38.8325 127.575 38.8071 126.84 38.7186C126.126 38.6324 125.445 38.5101 124.8 38.3517C124.152 38.2132 123.518 38.0361 122.899 37.8205C122.301 37.6074 121.725 37.3668 121.173 37.0988Z" fill="white"/>
</svg>
