<svg width="1109" height="617" viewBox="0 0 1109 617" fill="none" xmlns="http://www.w3.org/2000/svg">
<path d="M530 614.253C564.14 583.229 586.633 568.379 628.566 549.174C705.673 513.862 759.714 531.347 843.481 518.16C903.094 508.776 943.646 522.939 995.903 492.739C1036.98 469.004 1058.94 447.693 1080.24 405.29C1106.12 353.785 1114.17 312.529 1094.47 258.356C1071.43 195.027 1057.89 133.792 961.862 148.028C865.836 162.264 891.744 105.862 843.481 86" stroke="#0B8F2C" stroke-width="6.02569"/>
<g filter="url(#filter0_d_699_95)">
<path d="M63.2497 153.657C52.8052 153.657 43.616 151.397 35.6822 146.878C27.8488 142.258 21.7226 135.831 17.3038 127.596C12.9854 119.361 10.8262 109.77 10.8262 98.8233C10.8262 90.4877 12.0313 83.0058 14.4416 76.3775C16.9523 69.6489 20.5175 63.9244 25.1372 59.2043C29.7569 54.3838 35.2805 50.6679 41.7079 48.0568C48.2357 45.4457 55.4163 44.1401 63.2497 44.1401C73.8951 44.1401 83.1345 46.3997 90.9679 50.919C98.8013 55.4383 104.877 61.8154 109.196 70.0506C113.614 78.1853 115.824 87.7259 115.824 98.6726C115.824 107.008 114.569 114.54 112.058 121.269C109.547 127.998 105.982 133.772 101.362 138.593C96.7425 143.413 91.219 147.129 84.7916 149.74C78.3642 152.351 71.1836 153.657 63.2497 153.657ZM63.2497 133.772C69.175 133.772 74.1964 132.416 78.314 129.705C82.5319 126.893 85.7456 122.876 87.9551 117.654C90.2649 112.331 91.4198 106.054 91.4198 98.8233C91.4198 87.7761 88.9593 79.2397 84.0384 73.2141C79.1174 67.0879 72.1878 64.0249 63.2497 64.0249C57.4249 64.0249 52.4035 65.3807 48.1855 68.0922C43.9675 70.8038 40.7538 74.7707 38.5444 79.993C36.335 85.2152 35.2302 91.492 35.2302 98.8233C35.2302 109.77 37.6907 118.357 42.6117 124.583C47.5327 130.709 54.412 133.772 63.2497 133.772ZM177.873 153.657C170.341 153.657 163.663 152.703 157.838 150.795C152.113 148.786 147.293 145.874 143.376 142.058C139.459 138.241 136.497 133.471 134.488 127.747C132.58 121.922 131.626 115.193 131.626 107.561V56.3421C131.626 52.4254 132.63 49.4628 134.639 47.4542C136.647 45.4457 139.56 44.4414 143.376 44.4414C147.092 44.4414 149.954 45.4457 151.963 47.4542C153.971 49.4628 154.976 52.4254 154.976 56.3421V107.711C154.976 116.348 156.934 122.876 160.851 127.295C164.767 131.613 170.442 133.772 177.873 133.772C185.305 133.772 190.929 131.613 194.745 127.295C198.662 122.876 200.62 116.348 200.62 107.711V56.3421C200.62 52.4254 201.625 49.4628 203.633 47.4542C205.642 45.4457 208.504 44.4414 212.22 44.4414C215.936 44.4414 218.748 45.4457 220.656 47.4542C222.664 49.4628 223.669 52.4254 223.669 56.3421V107.561C223.669 117.704 221.911 126.24 218.396 133.17C214.981 139.999 209.86 145.121 203.031 148.535C196.302 151.95 187.916 153.657 177.873 153.657ZM254.575 153.356C250.759 153.356 247.846 152.301 245.838 150.192C243.829 148.083 242.825 145.121 242.825 141.304V57.6979C242.825 53.7812 243.829 50.8186 245.838 48.81C247.947 46.8014 250.909 45.7971 254.726 45.7971H291.332C303.182 45.7971 312.321 48.6594 318.749 54.3838C325.176 60.1082 328.39 68.0922 328.39 78.3359C328.39 84.9642 326.933 90.6886 324.021 95.5091C321.109 100.33 316.891 104.046 311.367 106.657C305.944 109.268 299.265 110.573 291.332 110.573L292.537 108.012H298.713C302.931 108.012 306.597 109.067 309.71 111.176C312.924 113.184 315.685 116.298 317.995 120.516L327.335 137.84C328.741 140.35 329.394 142.811 329.293 145.221C329.193 147.631 328.289 149.59 326.582 151.096C324.875 152.603 322.364 153.356 319.05 153.356C315.736 153.356 313.024 152.653 310.915 151.247C308.907 149.841 307.099 147.682 305.492 144.769L291.03 118.105C289.524 115.293 287.666 113.385 285.457 112.381C283.348 111.377 280.736 110.875 277.623 110.875H266.174V141.304C266.174 145.121 265.17 148.083 263.162 150.192C261.253 152.301 258.391 153.356 254.575 153.356ZM266.174 94.0027H287.114C293.34 94.0027 298.01 92.7473 301.123 90.2366C304.337 87.7259 305.944 83.9599 305.944 78.9385C305.944 74.0175 304.337 70.3016 301.123 67.7909C298.01 65.2802 293.34 64.0249 287.114 64.0249H266.174V94.0027Z" fill="#F5C004"/>
<path d="M424.738 153.657C420.52 153.657 416.202 153.306 411.783 152.603C407.465 152 403.297 151.096 399.28 149.891C395.363 148.686 391.848 147.179 388.735 145.372C386.525 144.167 384.969 142.61 384.065 140.702C383.161 138.693 382.81 136.685 383.01 134.676C383.312 132.668 384.065 130.91 385.27 129.404C386.576 127.797 388.182 126.793 390.091 126.391C392.099 125.889 394.309 126.24 396.719 127.445C400.836 129.755 405.305 131.462 410.126 132.567C415.047 133.672 419.918 134.224 424.738 134.224C432.07 134.224 437.292 133.119 440.405 130.91C443.518 128.6 445.075 125.738 445.075 122.323C445.075 119.411 443.97 117.101 441.761 115.394C439.552 113.687 435.685 112.23 430.161 111.025L413.139 107.41C403.498 105.401 396.317 101.987 391.597 97.1662C386.977 92.2452 384.667 85.8178 384.667 77.884C384.667 72.8626 385.722 68.2931 387.831 64.1755C389.94 60.058 392.903 56.4928 396.719 53.4799C400.535 50.4671 405.054 48.1572 410.277 46.5504C415.599 44.9435 421.424 44.1401 427.751 44.1401C433.375 44.1401 438.899 44.8431 444.322 46.2491C449.745 47.5546 454.515 49.513 458.633 52.1241C460.641 53.3293 461.997 54.8859 462.7 56.794C463.504 58.6017 463.755 60.4597 463.453 62.3678C463.253 64.1755 462.499 65.7824 461.194 67.1884C459.989 68.5944 458.432 69.4982 456.524 69.8999C454.616 70.3016 452.306 69.8497 449.594 68.5441C446.28 66.8369 442.765 65.5815 439.049 64.7781C435.334 63.9747 431.517 63.5729 427.601 63.5729C423.383 63.5729 419.767 64.1253 416.754 65.23C413.842 66.3347 411.582 67.8914 409.975 69.8999C408.469 71.9085 407.716 74.2183 407.716 76.8295C407.716 79.7419 408.77 82.102 410.879 83.9097C412.988 85.7174 416.654 87.1736 421.876 88.2783L438.899 91.8937C448.741 94.0027 456.072 97.4173 460.893 102.137C465.713 106.757 468.123 112.883 468.123 120.516C468.123 125.537 467.119 130.107 465.11 134.224C463.102 138.241 460.19 141.706 456.373 144.619C452.557 147.531 447.987 149.791 442.665 151.397C437.342 152.904 431.367 153.657 424.738 153.657ZM516.627 153.356C512.81 153.356 509.898 152.301 507.889 150.192C505.881 148.083 504.877 145.121 504.877 141.304V65.0794H478.213C475.1 65.0794 472.689 64.2257 470.982 62.5184C469.275 60.8112 468.421 58.4511 468.421 55.4383C468.421 52.325 469.275 49.9649 470.982 48.3581C472.689 46.6508 475.1 45.7971 478.213 45.7971H554.89C558.003 45.7971 560.413 46.6508 562.121 48.3581C563.828 49.9649 564.682 52.325 564.682 55.4383C564.682 58.4511 563.828 60.8112 562.121 62.5184C560.413 64.2257 558.003 65.0794 554.89 65.0794H528.226V141.304C528.226 145.121 527.222 148.083 525.213 150.192C523.305 152.301 520.443 153.356 516.627 153.356ZM616.178 153.657C605.733 153.657 596.544 151.397 588.61 146.878C580.777 142.258 574.651 135.831 570.232 127.596C565.913 119.361 563.754 109.77 563.754 98.8233C563.754 90.4877 564.959 83.0058 567.37 76.3775C569.88 69.6489 573.445 63.9244 578.065 59.2043C582.685 54.3838 588.208 50.6679 594.636 48.0568C601.164 45.4457 608.344 44.1401 616.178 44.1401C626.823 44.1401 636.062 46.3997 643.896 50.919C651.729 55.4383 657.805 61.8154 662.124 70.0506C666.542 78.1853 668.752 87.7259 668.752 98.6726C668.752 107.008 667.497 114.54 664.986 121.269C662.475 127.998 658.91 133.772 654.29 138.593C649.671 143.413 644.147 147.129 637.72 149.74C631.292 152.351 624.112 153.657 616.178 153.657ZM616.178 133.772C622.103 133.772 627.124 132.416 631.242 129.705C635.46 126.893 638.674 122.876 640.883 117.654C643.193 112.331 644.348 106.054 644.348 98.8233C644.348 87.7761 641.887 79.2397 636.966 73.2141C632.045 67.0879 625.116 64.0249 616.178 64.0249C610.353 64.0249 605.331 65.3807 601.113 68.0922C596.895 70.8038 593.682 74.7707 591.472 79.993C589.263 85.2152 588.158 91.492 588.158 98.8233C588.158 109.77 590.619 118.357 595.54 124.583C600.461 130.709 607.34 133.772 616.178 133.772ZM697.057 153.356C693.241 153.356 690.329 152.301 688.32 150.192C686.312 148.083 685.307 145.121 685.307 141.304V57.6979C685.307 53.7812 686.312 50.8186 688.32 48.81C690.429 46.8014 693.392 45.7971 697.208 45.7971H733.814C745.665 45.7971 754.804 48.6594 761.231 54.3838C767.658 60.1082 770.872 68.0922 770.872 78.3359C770.872 84.9642 769.416 90.6886 766.503 95.5091C763.591 100.33 759.373 104.046 753.85 106.657C748.426 109.268 741.748 110.573 733.814 110.573L735.019 108.012H741.196C745.414 108.012 749.079 109.067 752.192 111.176C755.406 113.184 758.168 116.298 760.478 120.516L769.818 137.84C771.224 140.35 771.876 142.811 771.776 145.221C771.676 147.631 770.772 149.59 769.064 151.096C767.357 152.603 764.846 153.356 761.532 153.356C758.218 153.356 755.507 152.653 753.398 151.247C751.389 149.841 749.581 147.682 747.974 144.769L733.513 118.105C732.006 115.293 730.148 113.385 727.939 112.381C725.83 111.377 723.219 110.875 720.106 110.875H708.657V141.304C708.657 145.121 707.653 148.083 705.644 150.192C703.736 152.301 700.874 153.356 697.057 153.356ZM708.657 94.0027H729.596C735.823 94.0027 740.493 92.7473 743.606 90.2366C746.82 87.7259 748.426 83.9599 748.426 78.9385C748.426 74.0175 746.82 70.3016 743.606 67.7909C740.493 65.2802 735.823 64.0249 729.596 64.0249H708.657V94.0027ZM824.275 153.356C820.459 153.356 817.546 152.301 815.538 150.192C813.529 148.083 812.525 145.07 812.525 141.154V97.4675L817.345 110.875L781.794 60.4095C780.388 58.3005 779.785 56.0408 779.986 53.6305C780.187 51.1198 781.191 48.9606 782.999 47.1529C784.807 45.3452 787.367 44.4414 790.682 44.4414C793.092 44.4414 795.251 45.0439 797.159 46.2491C799.168 47.4542 801.076 49.3623 802.884 51.9735L826.986 86.7719H822.166L846.269 51.9735C848.177 49.2619 850.035 47.3538 851.842 46.2491C853.75 45.0439 855.96 44.4414 858.471 44.4414C861.684 44.4414 864.195 45.295 866.003 47.0023C867.81 48.6091 868.764 50.6679 868.865 53.1786C868.965 55.5889 868.112 58.0996 866.304 60.7107L831.204 110.875L835.874 97.4675V141.154C835.874 149.288 832.008 153.356 824.275 153.356Z" fill="#0B8F2C"/>
</g>
<defs>
<filter id="filter0_d_699_95" x="0.78335" y="38.1144" width="878.275" height="129.603" filterUnits="userSpaceOnUse" color-interpolation-filters="sRGB">
<feFlood flood-opacity="0" result="BackgroundImageFix"/>
<feColorMatrix in="SourceAlpha" type="matrix" values="0 0 0 0 0 0 0 0 0 0 0 0 0 0 0 0 0 0 127 0" result="hardAlpha"/>
<feOffset dy="4.01713"/>
<feGaussianBlur stdDeviation="5.02141"/>
<feComposite in2="hardAlpha" operator="out"/>
<feColorMatrix type="matrix" values="0 0 0 0 0 0 0 0 0 0 0 0 0 0 0 0 0 0 0.8 0"/>
<feBlend mode="normal" in2="BackgroundImageFix" result="effect1_dropShadow_699_95"/>
<feBlend mode="normal" in="SourceGraphic" in2="effect1_dropShadow_699_95" result="shape"/>
</filter>
</defs>
</svg>
