<svg width="879" height="131" viewBox="0 0 879 131" fill="none" xmlns="http://www.w3.org/2000/svg">
<g filter="url(#filter0_d_212_322)">
<path d="M62.6316 116.014C52.187 116.014 42.9978 113.754 35.064 109.235C27.2306 104.615 21.1045 98.188 16.6856 89.9529C12.3672 81.7178 10.208 72.1269 10.208 61.1802C10.208 52.8446 11.4132 45.3627 13.8234 38.7345C16.3341 32.0058 19.8993 26.2814 24.519 21.5612C29.1387 16.7407 34.6623 13.0249 41.0897 10.4137C47.6175 7.80258 54.7982 6.49702 62.6316 6.49702C73.2769 6.49702 82.5163 8.75666 90.3497 13.2759C98.1831 17.7952 104.259 24.1724 108.577 32.4075C112.996 40.5422 115.206 50.0829 115.206 61.0295C115.206 69.3651 113.95 76.8972 111.44 83.6259C108.929 90.3546 105.364 96.1292 100.744 100.95C96.1244 105.77 90.6008 109.486 84.1734 112.097C77.746 114.708 70.5654 116.014 62.6316 116.014ZM62.6316 96.1292C68.5568 96.1292 73.5782 94.7734 77.6958 92.0619C81.9138 89.2499 85.1275 85.2327 87.3369 80.0105C89.6467 74.6878 90.8017 68.411 90.8017 61.1802C90.8017 50.1331 88.3412 41.5967 83.4202 35.571C78.4992 29.4449 71.5697 26.3818 62.6316 26.3818C56.8067 26.3818 51.7853 27.7376 47.5673 30.4491C43.3493 33.1607 40.1356 37.1276 37.9262 42.3499C35.7168 47.5722 34.6121 53.8489 34.6121 61.1802C34.6121 72.1269 37.0726 80.7135 41.9936 86.94C46.9145 93.0661 53.7939 96.1292 62.6316 96.1292ZM177.255 116.014C169.723 116.014 163.044 115.06 157.22 113.152C151.495 111.143 146.675 108.231 142.758 104.415C138.841 100.598 135.879 95.8279 133.87 90.1035C131.962 84.2787 131.008 77.55 131.008 69.9174V18.699C131.008 14.7823 132.012 11.8197 134.021 9.81115C136.029 7.80258 138.942 6.7983 142.758 6.7983C146.474 6.7983 149.336 7.80258 151.345 9.81115C153.353 11.8197 154.357 14.7823 154.357 18.699V70.0681C154.357 78.7049 156.316 85.2327 160.232 89.6516C164.149 93.97 169.823 96.1292 177.255 96.1292C184.687 96.1292 190.311 93.97 194.127 89.6516C198.044 85.2327 200.002 78.7049 200.002 70.0681V18.699C200.002 14.7823 201.006 11.8197 203.015 9.81115C205.023 7.80258 207.886 6.7983 211.602 6.7983C215.317 6.7983 218.129 7.80258 220.037 9.81115C222.046 11.8197 223.05 14.7823 223.05 18.699V69.9174C223.05 80.0607 221.293 88.5971 217.778 95.5266C214.363 102.356 209.241 107.478 202.412 110.892C195.684 114.307 187.298 116.014 177.255 116.014ZM253.957 115.713C250.14 115.713 247.228 114.658 245.219 112.549C243.211 110.44 242.207 107.478 242.207 103.661V20.0548C242.207 16.1381 243.211 13.1755 245.219 11.1669C247.328 9.15836 250.291 8.15408 254.107 8.15408H290.713C302.564 8.15408 311.703 11.0163 318.13 16.7407C324.558 22.4651 327.771 30.4492 327.771 40.6928C327.771 47.3211 326.315 53.0455 323.403 57.8661C320.49 62.6866 316.272 66.4025 310.749 69.0136C305.326 71.6247 298.647 72.9303 290.713 72.9303L291.919 70.3694H298.095C302.313 70.3694 305.979 71.4239 309.092 73.5329C312.306 75.5414 315.067 78.6547 317.377 82.8727L326.717 100.197C328.123 102.707 328.776 105.168 328.675 107.578C328.575 109.988 327.671 111.947 325.964 113.453C324.256 114.96 321.746 115.713 318.432 115.713C315.118 115.713 312.406 115.01 310.297 113.604C308.288 112.198 306.481 110.039 304.874 107.126L290.412 80.4624C288.906 77.6504 287.048 75.7423 284.838 74.738C282.729 73.7337 280.118 73.2316 277.005 73.2316H265.556V103.661C265.556 107.478 264.552 110.44 262.543 112.549C260.635 114.658 257.773 115.713 253.957 115.713ZM265.556 56.3596H286.495C292.722 56.3596 297.392 55.1043 300.505 52.5936C303.719 50.0829 305.326 46.3168 305.326 41.2954C305.326 36.3744 303.719 32.6586 300.505 30.1479C297.392 27.6372 292.722 26.3818 286.495 26.3818H265.556V56.3596Z" fill="#F5C004"/>
<path d="M424.12 116.014C419.902 116.014 415.584 115.663 411.165 114.96C406.847 114.357 402.679 113.453 398.662 112.248C394.745 111.043 391.23 109.536 388.117 107.729C385.907 106.524 384.351 104.967 383.447 103.059C382.543 101.05 382.191 99.0416 382.392 97.0331C382.694 95.0245 383.447 93.267 384.652 91.7606C385.957 90.1537 387.564 89.1494 389.472 88.7477C391.481 88.2456 393.69 88.5971 396.101 89.8022C400.218 92.1121 404.687 93.8194 409.508 94.9241C414.429 96.0288 419.3 96.5811 424.12 96.5811C431.451 96.5811 436.674 95.4764 439.787 93.267C442.9 90.9572 444.457 88.095 444.457 84.6804C444.457 81.768 443.352 79.4581 441.143 77.7508C438.933 76.0436 435.067 74.5874 429.543 73.3822L412.521 69.7668C402.88 67.7582 395.699 64.3437 390.979 59.5231C386.359 54.6021 384.049 48.1747 384.049 40.2409C384.049 35.2195 385.104 30.65 387.213 26.5325C389.322 22.4149 392.284 18.8497 396.101 15.8368C399.917 12.824 404.436 10.5141 409.659 8.90729C414.981 7.30044 420.806 6.49702 427.133 6.49702C432.757 6.49702 438.281 7.20002 443.704 8.60601C449.127 9.91158 453.897 11.8699 458.015 14.4811C460.023 15.6862 461.379 17.2428 462.082 19.151C462.885 20.9587 463.137 22.8166 462.835 24.7247C462.634 26.5324 461.881 28.1393 460.576 29.5453C459.37 30.9513 457.814 31.8551 455.906 32.2569C453.998 32.6586 451.688 32.2066 448.976 30.9011C445.662 29.1938 442.147 27.9384 438.431 27.135C434.715 26.3316 430.899 25.9299 426.982 25.9299C422.764 25.9299 419.149 26.4822 416.136 27.5869C413.224 28.6917 410.964 30.2483 409.357 32.2569C407.851 34.2654 407.098 36.5753 407.098 39.1864C407.098 42.0988 408.152 44.4589 410.261 46.2666C412.37 48.0743 416.036 49.5305 421.258 50.6352L438.281 54.2506C448.123 56.3596 455.454 59.7742 460.274 64.4943C465.095 69.114 467.505 75.2401 467.505 82.8727C467.505 87.8941 466.501 92.4636 464.492 96.5811C462.484 100.598 459.571 104.063 455.755 106.975C451.939 109.888 447.369 112.148 442.047 113.754C436.724 115.261 430.748 116.014 424.12 116.014ZM516.008 115.713C512.192 115.713 509.28 114.658 507.271 112.549C505.263 110.44 504.258 107.478 504.258 103.661V27.4363H477.595C474.481 27.4363 472.071 26.5827 470.364 24.8754C468.657 23.1681 467.803 20.808 467.803 17.7952C467.803 14.6819 468.657 12.3219 470.364 10.715C472.071 9.00772 474.481 8.15408 477.595 8.15408H554.272C557.385 8.15408 559.795 9.00772 561.502 10.715C563.21 12.3219 564.063 14.6819 564.063 17.7952C564.063 20.808 563.21 23.1681 561.502 24.8754C559.795 26.5827 557.385 27.4363 554.272 27.4363H527.608V103.661C527.608 107.478 526.604 110.44 524.595 112.549C522.687 114.658 519.825 115.713 516.008 115.713ZM615.56 116.014C605.115 116.014 595.926 113.754 587.992 109.235C580.159 104.615 574.032 98.188 569.614 89.9529C565.295 81.7178 563.136 72.1269 563.136 61.1802C563.136 52.8446 564.341 45.3627 566.751 38.7345C569.262 32.0058 572.827 26.2814 577.447 21.5612C582.067 16.7407 587.59 13.0249 594.018 10.4137C600.546 7.80258 607.726 6.49702 615.56 6.49702C626.205 6.49702 635.444 8.75666 643.278 13.2759C651.111 17.7952 657.187 24.1724 661.505 32.4075C665.924 40.5422 668.134 50.0829 668.134 61.0295C668.134 69.3651 666.878 76.8972 664.368 83.6259C661.857 90.3546 658.292 96.1292 653.672 100.95C649.052 105.77 643.529 109.486 637.101 112.097C630.674 114.708 623.493 116.014 615.56 116.014ZM615.56 96.1292C621.485 96.1292 626.506 94.7734 630.624 92.0619C634.842 89.2499 638.055 85.2327 640.265 80.0105C642.575 74.6878 643.73 68.411 643.73 61.1802C643.73 50.1331 641.269 41.5967 636.348 35.571C631.427 29.4449 624.498 26.3818 615.56 26.3818C609.735 26.3818 604.713 27.7376 600.495 30.4491C596.277 33.1607 593.064 37.1276 590.854 42.3499C588.645 47.5722 587.54 53.8489 587.54 61.1802C587.54 72.1269 590.001 80.7135 594.922 86.94C599.843 93.0661 606.722 96.1292 615.56 96.1292ZM696.439 115.713C692.623 115.713 689.71 114.658 687.702 112.549C685.693 110.44 684.689 107.478 684.689 103.661V20.0548C684.689 16.1381 685.693 13.1755 687.702 11.1669C689.811 9.15836 692.774 8.15408 696.59 8.15408H733.196C745.046 8.15408 754.185 11.0163 760.613 16.7407C767.04 22.4651 770.254 30.4492 770.254 40.6928C770.254 47.3211 768.798 53.0455 765.885 57.8661C762.973 62.6866 758.755 66.4025 753.231 69.0136C747.808 71.6247 741.13 72.9303 733.196 72.9303L734.401 70.3694H740.577C744.795 70.3694 748.461 71.4239 751.574 73.5329C754.788 75.5414 757.55 78.6547 759.86 82.8727L769.199 100.197C770.605 102.707 771.258 105.168 771.158 107.578C771.057 109.988 770.153 111.947 768.446 113.453C766.739 114.96 764.228 115.713 760.914 115.713C757.6 115.713 754.888 115.01 752.779 113.604C750.771 112.198 748.963 110.039 747.356 107.126L732.895 80.4624C731.388 77.6504 729.53 75.7423 727.321 74.738C725.212 73.7337 722.601 73.2316 719.487 73.2316H708.039V103.661C708.039 107.478 707.034 110.44 705.026 112.549C703.118 114.658 700.255 115.713 696.439 115.713ZM708.039 56.3596H728.978C735.204 56.3596 739.874 55.1043 742.988 52.5936C746.201 50.0829 747.808 46.3168 747.808 41.2954C747.808 36.3744 746.201 32.6586 742.988 30.1479C739.874 27.6372 735.204 26.3818 728.978 26.3818H708.039V56.3596ZM823.657 115.713C819.84 115.713 816.928 114.658 814.919 112.549C812.911 110.44 811.907 107.427 811.907 103.511V59.8244L816.727 73.2316L781.175 22.7664C779.769 20.6574 779.167 18.3978 779.368 15.9875C779.569 13.4768 780.573 11.3176 782.381 9.50986C784.188 7.70215 786.749 6.7983 790.063 6.7983C792.474 6.7983 794.633 7.40087 796.541 8.60601C798.55 9.81115 800.458 11.7193 802.265 14.3304L826.368 49.1288H821.548L845.65 14.3304C847.559 11.6189 849.416 9.71072 851.224 8.60601C853.132 7.40087 855.342 6.7983 857.852 6.7983C861.066 6.7983 863.577 7.65194 865.385 9.35922C867.192 10.9661 868.146 13.0249 868.247 15.5356C868.347 17.9458 867.494 20.4565 865.686 23.0677L830.586 73.2316L835.256 59.8244V103.511C835.256 111.645 831.39 115.713 823.657 115.713Z" fill="#0B8F2C"/>
</g>
<defs>
<filter id="filter0_d_212_322" x="0.165186" y="0.471377" width="878.275" height="129.603" filterUnits="userSpaceOnUse" color-interpolation-filters="sRGB">
<feFlood flood-opacity="0" result="BackgroundImageFix"/>
<feColorMatrix in="SourceAlpha" type="matrix" values="0 0 0 0 0 0 0 0 0 0 0 0 0 0 0 0 0 0 127 0" result="hardAlpha"/>
<feOffset dy="4.01713"/>
<feGaussianBlur stdDeviation="5.02141"/>
<feComposite in2="hardAlpha" operator="out"/>
<feColorMatrix type="matrix" values="0 0 0 0 0 0 0 0 0 0 0 0 0 0 0 0 0 0 0.8 0"/>
<feBlend mode="normal" in2="BackgroundImageFix" result="effect1_dropShadow_212_322"/>
<feBlend mode="normal" in="SourceGraphic" in2="effect1_dropShadow_212_322" result="shape"/>
</filter>
</defs>
</svg>
