<svg width="159" height="88" viewBox="0 0 159 88" fill="none" xmlns="http://www.w3.org/2000/svg">
<path d="M42.6248 38.134C42.9666 38.7904 43.3003 39.3266 43.626 39.7427C43.9547 40.1785 44.3035 40.4798 44.6725 40.6467C45.0445 40.8333 45.4382 40.8952 45.8535 40.8326C46.1106 40.7938 46.3716 40.714 46.6365 40.5931C46.9044 40.492 47.1763 40.3499 47.452 40.1667L48.4323 43.4472C47.9648 43.6998 47.4912 43.9128 47.0117 44.0862C46.552 44.2567 46.0947 44.3763 45.6399 44.4449C44.7104 44.5851 43.8767 44.4884 43.1386 44.1547C42.4036 43.8408 41.7217 43.2762 41.0931 42.4609C40.4674 41.6653 39.8668 40.6333 39.2912 39.365L42.6248 38.134ZM38.3114 36.6912C38.9245 36.5988 39.4776 36.4445 39.9709 36.2285C40.4613 35.9927 40.8887 35.6754 41.2533 35.2766C41.6377 34.8748 41.9364 34.3746 42.1495 33.7761C42.3794 33.1549 42.5094 32.4071 42.5393 31.5329C42.586 30.6359 42.5214 29.604 42.3454 28.4372C42.1664 27.2506 41.9238 26.2456 41.6175 25.422C41.331 24.5955 40.9863 23.9194 40.5834 23.3936C40.2002 22.8648 39.7771 22.4736 39.3141 22.2198C38.8481 21.9462 38.3376 21.7805 37.7828 21.7226C37.2447 21.642 36.6692 21.6479 36.0561 21.7404C35.5024 21.8239 34.969 21.9752 34.4559 22.1941C33.9626 22.4101 33.5238 22.719 33.1394 23.1209C32.7748 23.5197 32.4776 24.0297 32.2477 24.651C32.0148 25.2525 31.875 26.0017 31.8282 26.8987C31.7983 27.7729 31.8728 28.8034 32.0518 29.9899C32.2308 31.1765 32.4635 32.183 32.75 33.0096C33.0563 33.8331 33.4109 34.5078 33.8138 35.0335C34.2168 35.5593 34.6512 35.959 35.1172 36.2325C35.6001 36.4833 36.1105 36.649 36.6485 36.7297C37.2034 36.7876 37.7577 36.7748 38.3114 36.6912ZM38.8243 39.8905C37.6575 40.0665 36.5732 40.1188 35.5714 40.0475C34.5863 39.9533 33.6708 39.7173 32.825 39.3392C31.9959 38.9384 31.2533 38.3728 30.597 37.6425C29.9575 36.8895 29.4098 35.9406 28.954 34.7958C28.4952 33.6312 28.1434 32.238 27.8988 30.6164C27.6572 29.0145 27.5754 27.6009 27.6535 26.3755C27.7484 25.1274 27.9903 24.0493 28.3792 23.1411C28.7681 22.2329 29.301 21.475 29.9779 20.8672C30.6518 20.2397 31.4569 19.744 32.3931 19.3803C33.3462 18.9939 34.4159 18.7111 35.6025 18.5321C36.7693 18.3561 37.8536 18.3038 38.8555 18.3752C39.8574 18.4465 40.7728 18.6826 41.6019 19.0835C42.4507 19.4813 43.1934 20.0469 43.8299 20.7801C44.4664 21.5134 45.0026 22.4539 45.4387 23.6017C45.8946 24.7465 46.2448 26.1298 46.4894 27.7514C46.7341 29.3731 46.8104 30.8178 46.7185 32.0857C46.6236 33.3338 46.3718 34.4135 45.9632 35.3246C45.5713 36.213 45.0384 36.971 44.3644 37.5985C43.6875 38.2063 42.8824 38.7019 41.9492 39.0854C41.013 39.4491 39.9714 39.7175 38.8243 39.8905ZM55.238 37.4146C54.3085 37.5548 53.4723 37.509 52.7295 37.2772C51.9866 37.0454 51.3751 36.6118 50.8949 35.9763C50.4147 35.3408 50.0956 34.499 49.9375 33.4509L48.1745 21.7631L52.1198 21.1679L53.7441 31.9361C53.8575 32.6876 54.1319 33.2328 54.5673 33.5716C55.0195 33.8877 55.6016 33.9921 56.3135 33.8847C56.7091 33.825 57.0788 33.7288 57.4229 33.596C57.7669 33.4632 58.1065 33.3007 58.4416 33.1086C58.7737 32.8967 59.1226 32.662 59.4883 32.4046L57.6671 20.3312L61.6124 19.736L63.3665 31.3645C63.4172 31.7007 63.4872 31.9632 63.5763 32.152C63.6853 32.3378 63.8164 32.4697 63.9698 32.5477C64.1201 32.606 64.2843 32.6216 64.4623 32.5948C64.6996 32.559 64.9295 32.4738 65.1519 32.3391L65.9033 35.108C65.7066 35.2792 65.4773 35.4352 65.2154 35.5758C64.9534 35.7165 64.6588 35.8418 64.3316 35.9518C64.0241 36.0589 63.6924 36.1393 63.3364 36.193C62.6838 36.2914 62.1092 36.2365 61.6125 36.0283C61.1129 35.8002 60.6943 35.4386 60.3567 34.9435C59.8339 35.3662 59.3051 35.7493 58.7704 36.0929C58.2357 36.4365 57.6806 36.7124 57.1052 36.9206C56.5328 37.1485 55.9104 37.3132 55.238 37.4146ZM66.1097 31.1934C65.9605 30.2046 66.0276 29.3753 66.3108 28.7056C66.5911 28.016 67.0901 27.4351 67.8076 26.9628C68.542 26.4677 69.4777 26.0333 70.6146 25.6595C71.7684 25.263 73.1274 24.8861 74.6916 24.5288L74.4679 23.0456C74.3605 22.3336 74.0144 21.8498 73.4298 21.5942C72.8421 21.3187 72.044 21.2571 71.0354 21.4092C70.6201 21.4719 70.1583 21.5618 69.6501 21.6789C69.1419 21.796 68.6184 21.9458 68.0795 22.1282C67.5407 22.3106 66.998 22.534 66.4513 22.7985L65.2947 19.757C66.1459 19.3657 67.0539 19.0163 68.0189 18.709C69.0036 18.3986 69.931 18.1778 70.8012 18.0466C72.3635 17.8109 73.6803 17.8246 74.7515 18.0878C75.8198 18.3312 76.6524 18.8225 77.2493 19.5617C77.8631 20.2782 78.2594 21.2297 78.4384 22.4163L79.4049 28.8238C79.4885 29.3775 79.6243 29.7414 79.8123 29.9152C80.0003 30.0891 80.213 30.1582 80.4503 30.1224C80.5492 30.1075 80.6664 30.0797 80.8018 30.039C80.9373 29.9984 81.0599 29.9394 81.1696 29.8622L81.9299 32.6904C81.6236 32.9389 81.2618 33.1553 80.8446 33.3396C80.4304 33.5436 79.9761 33.683 79.4817 33.7575C78.6907 33.8769 78.034 33.8141 77.5116 33.5693C76.9863 33.3047 76.5641 32.8526 76.2451 32.213C75.8074 32.6634 75.3355 33.0885 74.8295 33.4884C74.3205 33.8686 73.7616 34.1855 73.1526 34.4392C72.5466 34.7127 71.858 34.9075 71.0867 35.0239C70.4341 35.1223 69.8358 35.1115 69.2917 34.9913C68.7477 34.8711 68.2496 34.6529 67.7974 34.3368C67.362 33.998 66.9938 33.5681 66.6927 33.0472C66.4114 32.5233 66.2171 31.9053 66.1097 31.1934ZM70.0741 30.3223C70.1785 31.0145 70.4158 31.5147 70.7859 31.823C71.1728 32.1084 71.6431 32.2094 72.1968 32.1259C72.6121 32.0632 73.017 31.9314 73.4114 31.7303C73.8256 31.5262 74.2141 31.2856 74.5768 31.0084C74.9563 30.7084 75.2705 30.3779 75.5194 30.0167L75.0227 26.724C74.1783 26.8918 73.4289 27.0857 72.7744 27.3058C72.1396 27.5229 71.5999 27.7662 71.1551 28.0355C70.7301 28.3019 70.4242 28.6211 70.2376 28.9931C70.051 29.3651 69.9965 29.8081 70.0741 30.3223ZM84.1673 10.2962L86.6955 27.0566C86.782 27.6301 86.9085 28.0661 87.0748 28.3646C87.258 28.6404 87.4658 28.8113 87.6983 28.8774C87.9505 28.9405 88.2151 28.9511 88.4919 28.9094C88.6897 28.8795 88.9043 28.8269 89.1356 28.7516C89.367 28.6762 89.6151 28.5781 89.88 28.4573L90.6924 31.4293C90.3238 31.667 89.9012 31.8824 89.4247 32.0757C88.9481 32.2689 88.4231 32.4088 87.8496 32.4953C86.9399 32.6325 86.1349 32.5921 85.4345 32.3742C84.754 32.1532 84.1889 31.6923 83.7393 30.9915C83.3096 30.2878 82.9977 29.2932 82.8038 28.0077L80.2219 10.8913L84.1673 10.2962ZM91.475 12.8953C90.6444 13.0206 90.0174 12.9533 89.5939 12.6936C89.1872 12.4111 88.9317 11.9238 88.8273 11.2316C88.7199 10.5196 88.8203 9.97861 89.1285 9.60849C89.4566 9.23539 90.0359 8.9862 90.8665 8.8609C91.6971 8.73561 92.3142 8.80433 92.7179 9.06705C93.1414 9.32679 93.4069 9.81263 93.5143 10.5246C93.6187 11.2167 93.5083 11.7593 93.1833 12.1521C92.8751 12.5223 92.3056 12.77 91.475 12.8953ZM92.2529 31.5277L89.8321 15.4792L93.7775 14.8841L96.1983 30.9325L92.2529 31.5277ZM105.151 29.8854C104.123 30.0405 103.223 29.974 102.451 29.6859C101.7 29.3948 101.085 28.8706 100.606 28.1135C100.148 27.3534 99.823 26.3405 99.6321 25.0748L98.4329 17.1248L95.9707 17.4962L95.577 14.8857L97.9988 14.2473L97.9365 10.616L101.407 10.0924L101.944 13.6522L106.483 12.9675L106.921 15.8747L102.383 16.5593L103.528 24.1534C103.665 25.0631 103.931 25.6805 104.323 26.0055C104.716 26.3305 105.269 26.4393 105.981 26.332C106.376 26.2723 106.777 26.1815 107.183 26.0595C107.587 25.9177 108.007 25.7532 108.444 25.566L109.43 28.4815C108.681 28.8777 107.938 29.1819 107.201 29.3942C106.487 29.6232 105.804 29.7869 105.151 29.8854ZM115.341 34.3859L116.393 27.8862L115.711 27.9891L107.332 12.8697L111.65 12.1274L117.533 24.377L119.274 10.9774L123.351 10.4534L119.419 33.8618L115.341 34.3859ZM9.02672 80.4892L5.89441 59.7241L9.95843 59.1111L13.0907 79.8762L9.02672 80.4892ZM16.3207 79.389L13.8999 63.3405L17.4893 62.7991L17.6996 64.1933C18.2955 63.7191 18.8722 63.3186 19.4297 62.9918C19.9842 62.6452 20.5393 62.3693 21.0949 62.1642C21.6673 61.9362 22.2798 61.773 22.9324 61.6746C23.9608 61.5195 24.8395 61.5791 25.5686 61.8534C26.3144 62.105 26.9062 62.5416 27.3438 63.1633C27.7814 63.7849 28.0718 64.5704 28.215 65.5197L29.996 77.3261L26.0506 77.9212L24.4576 67.3607C24.3323 66.5301 24.0421 65.9469 23.5869 65.611C23.1485 65.2524 22.5437 65.1313 21.7724 65.2476C21.3769 65.3073 20.9987 65.4149 20.6378 65.5704C20.274 65.7062 19.9147 65.8717 19.5598 66.0668C19.205 66.2619 18.8363 66.4995 18.4538 66.7797L20.2661 78.7938L16.3207 79.389ZM40.1001 82.4766C37.7665 82.8286 35.9429 82.7396 34.6291 82.2097C33.3381 81.6965 32.5897 80.7576 32.3839 79.3931C32.3004 78.8393 32.3133 78.3216 32.4227 77.8399C32.5548 77.375 32.7819 76.9362 33.1039 76.5236C33.4428 76.0881 33.8796 75.6986 34.4143 75.355L36.7555 75.7907C36.4629 75.9966 36.2129 76.2164 36.0054 76.45C35.7979 76.6835 35.6528 76.9279 35.5699 77.1831C35.487 77.4383 35.471 77.734 35.5217 78.0702C35.5933 78.5449 35.7914 78.9195 36.116 79.1942C36.4435 79.4886 36.9258 79.6687 37.5627 79.7344C38.1997 79.8001 39.0026 79.7599 39.9717 79.6137C40.9407 79.4676 41.748 79.2548 42.3936 78.9754C43.0589 78.693 43.5427 78.3469 43.845 77.9373C44.1502 77.5474 44.267 77.1151 44.1954 76.6405C44.1418 76.2845 44.0194 76.0097 43.8284 75.816C43.6601 75.6391 43.3707 75.5311 42.9603 75.4919C42.5696 75.4497 42.048 75.4778 41.3954 75.5762L37.895 76.1042C36.8271 76.2653 35.8881 76.2755 35.078 76.1348C34.265 75.9742 33.6105 75.6583 33.1147 75.187C32.6386 74.7127 32.3439 74.0998 32.2305 73.3483C32.1082 72.5375 32.2046 71.8353 32.5196 71.2416C32.8513 70.6252 33.3532 70.0641 34.0253 69.5582L36.2937 69.9138C35.8717 70.2 35.5515 70.491 35.3332 70.7869C35.1347 71.0798 35.0652 71.424 35.1249 71.8195C35.1875 72.2348 35.395 72.5372 35.7472 72.7268C36.0994 72.9164 36.6216 72.959 37.3138 72.8546L42.1787 72.1207C43.8202 71.8731 45.1227 72.0609 46.0865 72.6842C47.067 73.2846 47.6602 74.2671 47.866 75.6317C48.042 76.7985 47.8565 77.8479 47.3094 78.7799C46.7623 79.712 45.8788 80.4925 44.659 81.1215C43.459 81.7475 41.9393 82.1992 40.1001 82.4766ZM38.6556 70.2857C36.5 70.6109 34.7998 70.4021 33.5551 69.6595C32.3105 68.9168 31.5554 67.6654 31.2899 65.9054C31.0244 64.1453 31.3767 62.7268 32.347 61.6501C33.3172 60.5733 34.8801 59.8723 37.0358 59.5472C39.1914 59.222 40.8915 59.4308 42.1362 60.1734C43.4007 60.9131 44.1657 62.163 44.4312 63.923C44.6967 65.6831 44.3344 67.1031 43.3444 68.1828C42.3742 69.2596 40.8112 69.9605 38.6556 70.2857ZM38.2663 67.7049C39.2156 67.5617 39.8863 67.2481 40.2785 66.7642C40.6677 66.2605 40.7863 65.5044 40.6341 64.4958C40.482 63.4872 40.1457 62.7997 39.6252 62.4332C39.1047 62.0668 38.3698 61.9551 37.4206 62.0983C36.5109 62.2355 35.8515 62.5575 35.4425 63.0642C35.0533 63.5679 34.9348 64.324 35.0869 65.3326C35.239 66.3412 35.5753 67.0287 36.0958 67.3952C36.6331 67.7389 37.3566 67.8421 38.2663 67.7049ZM42.9151 62.119L41.0297 60.2796C41.2021 59.5457 41.5399 58.9689 42.0429 58.5492C42.5657 58.1265 43.2226 57.8554 44.0137 57.7361C44.2906 57.6943 44.5506 57.6753 44.7939 57.6791C45.0342 57.6631 45.2577 57.6698 45.4644 57.6993L45.4759 60.7922C45.3315 60.7735 45.1589 60.7692 44.9582 60.7793C44.7772 60.7863 44.5977 60.8033 44.4197 60.8302C44.0638 60.8839 43.7494 61.0122 43.4766 61.2151C43.2236 61.4151 43.0364 61.7164 42.9151 62.119ZM50.9776 57.7475L51.264 59.646C51.7401 59.0483 52.1917 58.5555 52.6186 58.1674C53.0623 57.7567 53.5209 57.4448 53.9944 57.2318C54.4847 56.996 55.0067 56.8363 55.5605 56.7528C55.9165 56.6991 56.2769 56.6751 56.6418 56.6807C57.0235 56.6636 57.4013 56.6875 57.7752 56.7525L57.6892 60.4062C57.3213 60.3808 56.9465 60.3766 56.5648 60.3937C56.1999 60.3881 55.8592 60.4092 55.5428 60.4569C54.9693 60.5434 54.3924 60.7417 53.8121 61.0517C53.2319 61.3617 52.6458 61.8344 52.054 62.4698L53.7544 73.7423L49.809 74.3374L47.3882 58.289L50.9776 57.7475ZM67.918 71.9091C66.7116 72.0911 65.6214 72.1039 64.6471 71.9475C63.6699 71.7712 62.8073 71.4159 62.0592 70.8815C61.3279 70.3244 60.7196 69.5768 60.2342 68.6387C59.7657 67.6778 59.427 66.5052 59.2182 65.1209C58.9765 63.519 58.96 62.136 59.1687 60.9718C59.3942 59.7849 59.8122 58.8016 60.4227 58.0218C61.0303 57.2222 61.7863 56.6025 62.6908 56.1627C63.5923 55.7031 64.6067 55.3882 65.734 55.2182C67.9687 54.8811 69.6952 55.1971 70.9133 56.1663C72.1513 57.1324 72.9627 58.8911 73.3475 61.4422C73.3744 61.6202 73.4087 61.8476 73.4504 62.1245C73.4922 62.4014 73.5127 62.6713 73.5119 62.9344C73.063 63.0425 72.4871 63.18 71.7841 63.3467C71.0811 63.5134 70.2891 63.6936 69.4081 63.8871C68.5271 64.0807 67.5755 64.2748 66.5531 64.4695C65.5307 64.6642 64.4786 64.8633 63.3969 65.067C63.386 65.1293 63.3866 65.2 63.3985 65.2791C63.4105 65.3582 63.4224 65.4373 63.4343 65.5164C63.5715 66.4261 63.8302 67.1355 64.2104 67.6445C64.6074 68.1307 65.1333 68.466 65.7881 68.6504C66.4399 68.815 67.2306 68.8272 68.1601 68.687C68.7534 68.5975 69.3521 68.4768 69.9562 68.325C70.5771 68.1505 71.1866 67.9675 71.7848 67.7761C72.3997 67.562 72.9934 67.341 73.5658 67.1131L74.479 69.9486C73.876 70.2418 73.2304 70.5212 72.5423 70.7868C71.8513 71.0327 71.1246 71.2434 70.3622 71.4191C69.6029 71.6145 68.7882 71.7779 67.918 71.9091ZM63.0417 62.5114C63.7339 62.4069 64.3949 62.2971 65.0247 62.1819C65.6714 62.0439 66.28 61.9217 66.8505 61.8155C67.4181 61.6894 67.908 61.5851 68.3203 61.5027C68.7296 61.4005 69.0515 61.3216 69.2858 61.2661C69.1348 60.3989 68.9102 59.7147 68.6121 59.2136C68.3338 58.7095 67.9592 58.3716 67.4883 58.1999C67.0372 58.0252 66.4953 57.9856 65.8624 58.0811C65.4669 58.1407 65.0902 58.2582 64.7324 58.4336C64.3745 58.6089 64.0598 58.8688 63.7881 59.2131C63.5164 59.5575 63.3091 59.9933 63.1661 60.5205C63.043 61.0448 63.0015 61.7084 63.0417 62.5114ZM87.3366 68.7069L86.6651 67.4732C85.9151 68.1325 85.154 68.6518 84.382 69.0312C83.6297 69.4076 82.8185 69.6615 81.9483 69.7927C80.208 70.0553 78.7603 69.5758 77.6052 68.3545C76.4669 67.1103 75.7024 65.1929 75.3116 62.6022C75.0133 60.6246 75.0356 58.9627 75.3787 57.6164C75.7217 56.2702 76.4007 55.207 77.4157 54.4269C78.4475 53.624 79.8138 53.0943 81.5145 52.8378C81.9694 52.7692 82.4371 52.7188 82.9177 52.6868C83.4181 52.6518 83.913 52.6479 84.4026 52.6752L83.5166 46.8016L87.4916 46.202L90.8074 68.1833L87.3366 68.7069ZM86.2104 64.6596L84.8545 55.6713C84.3392 55.6074 83.871 55.587 83.4497 55.6101C83.0254 55.6135 82.6254 55.6435 82.2497 55.7001C81.3993 55.8284 80.7226 56.1024 80.2196 56.5221C79.7363 56.9389 79.4159 57.5637 79.2584 58.3965C79.1206 59.2263 79.1517 60.3037 79.3516 61.6287C79.5276 62.7955 79.781 63.7383 80.1119 64.457C80.4626 65.1727 80.8724 65.6772 81.3414 65.9705C81.8302 66.2608 82.3811 66.3598 82.9942 66.2673C83.3502 66.2136 83.7002 66.1204 84.0442 65.9876C84.3882 65.8548 84.7362 65.6809 85.0881 65.466C85.44 65.2511 85.8141 64.9823 86.2104 64.6596ZM93.1222 49.0541C92.2916 49.1794 91.6645 49.1121 91.2411 48.8524C90.8344 48.5699 90.5788 48.0826 90.4744 47.3904C90.367 46.6785 90.4674 46.1374 90.7757 45.7673C91.1037 45.3942 91.683 45.145 92.5136 45.0197C93.3442 44.8944 93.9614 44.9631 94.3651 45.2259C94.7886 45.4856 95.054 45.9714 95.1614 46.6834C95.2658 47.3756 95.1555 47.9181 94.8305 48.311C94.5222 48.6811 93.9528 48.9288 93.1222 49.0541ZM93.9001 67.6865L91.4792 51.638L95.4246 51.0429L97.8454 67.0913L93.9001 67.6865ZM99.4201 62.576C99.2709 61.5871 99.338 60.7579 99.6213 60.0881C99.9015 59.3986 100.4 58.8177 101.118 58.3454C101.852 57.8503 102.788 57.4159 103.925 57.0421C105.079 56.6456 106.438 56.2687 108.002 55.9113L107.778 54.4281C107.671 53.7162 107.325 53.2324 106.74 52.9767C106.153 52.7013 105.354 52.6397 104.346 52.7918C103.93 52.8544 103.469 52.9443 102.961 53.0614C102.452 53.1786 101.929 53.3283 101.39 53.5107C100.851 53.6931 100.308 53.9166 99.7617 54.1811L98.6051 51.1396C99.4563 50.7482 100.364 50.3989 101.329 50.0915C102.314 49.7812 103.241 49.5604 104.112 49.4291C105.674 49.1934 106.991 49.2072 108.062 49.4703C109.13 49.7137 109.963 50.205 110.56 50.9443C111.173 51.6607 111.57 52.6123 111.749 53.7988L112.715 60.2064C112.799 60.7601 112.935 61.1239 113.123 61.2978C113.311 61.4717 113.523 61.5408 113.761 61.505C113.86 61.49 113.977 61.4623 114.112 61.4216C114.248 61.3809 114.37 61.322 114.48 61.2448L115.24 64.073C114.934 64.3215 114.572 64.5378 114.155 64.7221C113.741 64.9262 113.287 65.0655 112.792 65.1401C112.001 65.2594 111.344 65.1967 110.822 64.9519C110.297 64.6873 109.875 64.2352 109.556 63.5956C109.118 64.0459 108.646 64.471 108.14 64.871C107.631 65.2512 107.072 65.5681 106.463 65.8218C105.857 66.0952 105.168 66.2901 104.397 66.4064C103.744 66.5049 103.146 66.494 102.602 66.3738C102.058 66.2536 101.56 66.0355 101.108 65.7194C100.672 65.3805 100.304 64.9507 100.003 64.4297C99.7218 63.9058 99.5275 63.2879 99.4201 62.576ZM103.385 61.7049C103.489 62.3971 103.726 62.8973 104.096 63.2055C104.483 63.491 104.954 63.592 105.507 63.5084C105.923 63.4458 106.327 63.3139 106.722 63.1129C107.136 62.9088 107.524 62.6682 107.887 62.391C108.267 62.091 108.581 61.7604 108.83 61.3993L108.333 58.1065C107.489 58.2743 106.739 58.4683 106.085 58.6884C105.45 58.9055 104.91 59.1487 104.465 59.4181C104.04 59.6844 103.735 60.0036 103.548 60.3756C103.361 60.7476 103.307 61.1907 103.385 61.7049ZM116.988 64.2037L114.568 48.1553L118.157 47.6138L118.367 49.008C118.963 48.5339 119.54 48.1334 120.097 47.8065C120.652 47.46 121.207 47.1841 121.763 46.9789C122.335 46.751 122.948 46.5878 123.6 46.4894C124.629 46.3342 125.507 46.3938 126.236 46.6682C126.982 46.9197 127.574 47.3563 128.012 47.978C128.449 48.5997 128.74 49.3852 128.883 50.3344L130.664 62.1409L126.718 62.736L125.125 52.1755C125 51.3449 124.71 50.7616 124.255 50.4258C123.816 50.0671 123.211 49.946 122.44 50.0624C122.045 50.122 121.666 50.2296 121.306 50.3852C120.942 50.521 120.582 50.6864 120.228 50.8815C119.873 51.0767 119.504 51.3143 119.122 51.5945L120.934 63.6086L116.988 64.2037ZM139.621 61.0932C138.592 61.2483 137.692 61.1818 136.921 60.8936C136.169 60.6025 135.554 60.0784 135.075 59.3213C134.617 58.5612 134.292 57.5483 134.101 56.2826L132.902 48.3325L130.44 48.7039L130.046 46.0935L132.468 45.4551L132.406 41.8238L135.876 41.3002L136.413 44.8599L140.952 44.1753L141.391 47.0824L136.852 47.7671L137.997 55.3611C138.135 56.2708 138.4 56.8882 138.793 57.2133C139.185 57.5383 139.738 57.6471 140.45 57.5397C140.845 57.4801 141.246 57.3892 141.653 57.2673C142.056 57.1255 142.476 56.961 142.913 56.7737L143.899 59.6893C143.15 60.0855 142.407 60.3897 141.67 60.6019C140.956 60.831 140.273 60.9947 139.621 61.0932ZM144.828 59.3671L144.864 56.3884C145.238 56.4533 145.652 56.5123 146.105 56.5654C146.555 56.5986 147.023 56.619 147.509 56.6265C148.016 56.631 148.509 56.6173 148.99 56.5852C149.47 56.5532 149.918 56.5059 150.334 56.4432C151.283 56.3 151.954 56.0572 152.347 55.7147C152.738 55.3524 152.89 54.8845 152.803 54.311C152.755 53.9946 152.626 53.741 152.415 53.5503C152.221 53.3369 151.934 53.1779 151.555 53.0734C151.192 52.9461 150.743 52.852 150.207 52.7912C149.689 52.7075 149.092 52.6358 148.415 52.5761C147.699 52.5223 147.065 52.4056 146.512 52.2261C145.956 52.0268 145.462 51.7676 145.029 51.4485C144.617 51.1265 144.284 50.7317 144.031 50.2641C143.799 49.7936 143.635 49.2419 143.539 48.609C143.291 46.9676 143.638 45.6411 144.577 44.6297C145.517 43.6182 147.035 42.9544 149.131 42.6381C149.784 42.5397 150.403 42.4868 150.988 42.4794C151.571 42.4522 152.128 42.4591 152.66 42.5002C153.209 42.5186 153.713 42.574 154.172 42.6666L154.115 45.7091C153.659 45.6363 153.206 45.5833 152.756 45.55C152.306 45.5168 151.819 45.5093 151.296 45.5275C150.793 45.5428 150.225 45.5981 149.592 45.6936C148.742 45.8219 148.12 46.0572 147.726 46.3997C147.33 46.7225 147.172 47.1508 147.253 47.6848C147.301 48.0012 147.42 48.2562 147.611 48.4499C147.799 48.6238 148.052 48.7576 148.369 48.8513C148.687 48.945 149.072 49.0183 149.525 49.0713C149.978 49.1244 150.48 49.1699 151.032 49.2081C151.791 49.2757 152.486 49.3933 153.118 49.5609C153.747 49.7087 154.296 49.9293 154.765 50.2226C155.254 50.5129 155.659 50.9171 155.98 51.435C156.317 51.9302 156.544 52.5634 156.661 53.3347C156.771 54.0664 156.751 54.7369 156.6 55.3462C156.466 55.9328 156.221 56.4552 155.866 56.9133C155.51 57.3715 155.075 57.7709 154.56 58.1115C154.042 58.4324 153.456 58.7028 152.801 58.9229C152.147 59.143 151.454 59.3082 150.722 59.4186C150.01 59.526 149.322 59.5894 148.657 59.6087C147.995 59.6478 147.338 59.6459 146.684 59.6029C146.05 59.557 145.432 59.4783 144.828 59.3671Z" fill="#FFF0E0"/>
</svg>
