<svg width="108" height="109" viewBox="0 0 108 109" fill="none" xmlns="http://www.w3.org/2000/svg">
<path d="M106.738 47.2077H94.5936C93.9039 47.2077 93.2441 47.5076 92.7793 48.0324L59.9581 85.8615V1.43192C59.9581 0.772195 59.4183 0.232422 58.7586 0.232422H49.7624C49.1026 0.232422 48.5629 0.772195 48.5629 1.43192V85.8615L15.7416 48.0324C15.2918 47.5076 14.6321 47.2077 13.9274 47.2077H1.78249C0.762921 47.2077 0.208154 48.4222 0.882871 49.1869L50.647 106.538C51.0968 107.057 51.653 107.473 52.2777 107.758C52.9024 108.043 53.5812 108.191 54.268 108.191C54.9548 108.191 55.6335 108.043 56.2582 107.758C56.883 107.473 57.4391 107.057 57.889 106.538L107.638 49.1869C108.313 48.4072 107.758 47.2077 106.738 47.2077Z" fill="black"/>
</svg>
