<svg width="89" height="72" viewBox="0 0 89 72" fill="none" xmlns="http://www.w3.org/2000/svg">
<path d="M22.5662 27.7767L18.2931 28.1564L13.6338 14.0233L11.3902 28.7697L7.32626 29.1309L1.01775 8.6388L5.40513 8.18871L9.26076 24.8027L11.4148 8.70884L15.0903 8.38224L19.9261 23.8248L20.7945 6.82123L25.1925 6.49066L22.5662 27.7767ZM28.7049 27.2312L26.74 5.11831L30.7442 4.7625L31.3895 12.0239C31.9552 11.6122 32.4964 11.2629 33.0131 10.9761C33.5297 10.6892 34.0616 10.4612 34.6088 10.2921C35.1759 10.1213 35.7683 10.0084 36.3858 9.95354C37.4018 9.86325 38.2644 9.96731 38.9736 10.2657C39.701 10.5424 40.2749 11.0135 40.6954 11.6789C41.1142 12.3243 41.3679 13.1451 41.4564 14.1412L42.5105 26.0044L38.5063 26.3602L37.561 15.7222C37.4867 14.8855 37.2326 14.2856 36.7987 13.9226C36.3649 13.5595 35.7695 13.4117 35.0125 13.4789C34.614 13.5143 34.22 13.5995 33.8304 13.7345C33.459 13.8479 33.0902 13.9911 32.7241 14.1642C32.3779 14.3355 32.0145 14.5384 31.6337 14.7731L32.7091 26.8754L28.7049 27.2312ZM44.2541 17.6875C44.132 16.3129 44.1444 15.097 44.2914 14.0398C44.4583 12.9809 44.7897 12.078 45.2856 11.3312C45.8013 10.5826 46.5314 9.98568 47.4757 9.54035C48.4182 9.0751 49.6066 8.77875 51.041 8.6513C52.4952 8.52207 53.7173 8.60423 54.7072 8.89777C55.7152 9.16962 56.539 9.6285 57.1787 10.2744C57.8184 10.9203 58.3038 11.7506 58.6349 12.7653C58.9859 13.7782 59.2225 14.972 59.3447 16.3465C59.4668 17.7211 59.4353 18.9487 59.2503 20.0293C59.0851 21.1082 58.7347 22.0228 58.199 22.7732C57.6633 23.5235 56.9333 24.1205 56.0089 24.564C55.0845 25.0076 53.9251 25.2913 52.5306 25.4152C51.156 25.5374 49.9647 25.4625 48.9567 25.1907C47.9686 24.9171 47.1447 24.4582 46.4851 23.814C45.8455 23.1681 45.3393 22.3296 44.9665 21.2986C44.6137 20.2658 44.3763 19.062 44.2541 17.6875ZM48.3181 17.3263C48.4367 18.6611 48.6509 19.7163 48.9608 20.4919C49.2689 21.2476 49.697 21.7717 50.245 22.0644C50.7931 22.357 51.4655 22.4679 52.2624 22.3971C53.0991 22.3228 53.7514 22.0942 54.2194 21.7112C54.7072 21.3265 55.0262 20.736 55.1763 19.9396C55.3446 19.1215 55.3694 18.0451 55.2508 16.7103C55.1322 15.3756 54.9288 14.3295 54.6406 13.572C54.3724 12.8128 53.9642 12.2868 53.4162 11.9942C52.888 11.6998 52.1857 11.5915 51.3091 11.6694C50.4525 11.7455 49.7803 11.9759 49.2924 12.3606C48.8245 12.7435 48.5154 13.3332 48.3653 14.1296C48.2153 14.926 48.1995 15.9916 48.3181 17.3263ZM64.5653 1.7572L66.0656 18.6407C66.1169 19.2184 66.2165 19.6613 66.3644 19.9694C66.5304 20.2559 66.7274 20.4392 66.9553 20.5193C67.2033 20.5977 67.4667 20.6245 67.7456 20.5997C67.9448 20.582 68.1621 20.5426 68.3977 20.4815C68.6332 20.4204 68.8868 20.3376 69.1587 20.2332L69.7881 23.2493C69.4056 23.464 68.9706 23.6532 68.4832 23.817C67.9958 23.9808 67.4632 24.0883 66.8855 24.1397C65.9691 24.2211 65.1681 24.1317 64.4823 23.8713C63.8165 23.6092 63.2806 23.1147 62.8747 22.3878C62.4887 21.6591 62.2382 20.6473 62.1231 19.3524L60.591 2.11035L64.5653 1.7572ZM78.0946 23.1437C76.8794 23.2516 75.7904 23.1978 74.8275 22.9822C73.8629 22.7467 73.0235 22.3393 72.3095 21.7603C71.6136 21.1595 71.052 20.3761 70.6249 19.4102C70.2158 18.4225 69.9494 17.2314 69.8255 15.8369C69.6821 14.2232 69.7501 12.8418 70.0294 11.6926C70.327 10.5216 70.8042 9.56564 71.4612 8.82458C72.1164 8.0636 72.9089 7.49121 73.8386 7.10742C74.7665 6.70371 75.7982 6.4514 76.9337 6.3505C79.1848 6.15047 80.8888 6.5713 82.0455 7.61301C83.2222 8.65294 83.9247 10.4578 84.153 13.0277C84.169 13.207 84.1893 13.4361 84.2141 13.715C84.2389 13.9939 84.2429 14.2646 84.226 14.5271C83.7714 14.6077 83.1881 14.7097 82.4763 14.8332C81.7644 14.9567 80.9629 15.0882 80.0717 15.2276C79.1806 15.367 78.2188 15.5027 77.1864 15.6346C76.1541 15.7665 75.0918 15.901 73.9997 16.0382C73.985 16.0997 73.9813 16.1704 73.9884 16.25C73.9954 16.3297 74.0025 16.4094 74.0096 16.4891C74.091 17.4055 74.3059 18.1293 74.6543 18.6606C75.0209 19.1701 75.5253 19.5369 76.1677 19.7609C76.8082 19.965 77.5967 20.0255 78.533 19.9423C79.1306 19.8892 79.7356 19.8053 80.3478 19.6907C80.9783 19.5543 81.5978 19.4089 82.2065 19.2544C82.8334 19.0783 83.4395 18.8939 84.0247 18.7013L84.763 21.5873C84.1433 21.8432 83.4819 22.0827 82.7789 22.3058C82.0741 22.5089 81.3359 22.6749 80.5642 22.8037C79.7944 22.9525 78.9712 23.0658 78.0946 23.1437ZM73.8012 13.4657C74.4984 13.4037 75.1649 13.3345 75.8006 13.2579C76.4545 13.1596 77.0694 13.0749 77.6454 13.0036C78.2196 12.9124 78.7149 12.8383 79.1315 12.7812C79.5463 12.7042 79.8724 12.6451 80.1097 12.6039C80.0119 11.7292 79.8295 11.0326 79.5626 10.5142C79.3155 9.99398 78.9623 9.63384 78.5028 9.43372C78.0632 9.23184 77.5246 9.15922 76.8871 9.21587C76.4887 9.25127 76.1056 9.34555 75.7377 9.49872C75.3698 9.65188 75.0397 9.89203 74.7475 10.2192C74.4554 10.5463 74.2218 10.9687 74.0469 11.4862C73.892 12.0019 73.8101 12.6617 73.8012 13.4657ZM14.6853 71.2448C12.3346 71.4537 10.5198 71.2535 9.24083 70.6443C7.98358 70.0533 7.29388 69.0705 7.17174 67.6959C7.12217 67.1381 7.16668 66.6221 7.30526 66.148C7.46553 65.692 7.71899 65.2679 8.06563 64.8757C8.43043 64.4618 8.89018 64.0997 9.44489 63.7894L11.7551 64.3672C11.4505 64.5549 11.1875 64.7589 10.9662 64.9794C10.7448 65.1998 10.585 65.4349 10.4867 65.6846C10.3884 65.9343 10.3543 66.2284 10.3844 66.5671C10.4269 67.0452 10.6018 67.4313 10.909 67.7252C11.218 68.0391 11.6884 68.2483 12.3201 68.3528C12.9518 68.4573 13.7558 68.4662 14.7319 68.3794C15.7081 68.2927 16.5268 68.1296 17.1882 67.8901C17.8696 67.6488 18.3736 67.333 18.7003 66.9425C19.0288 66.572 19.1718 66.1477 19.1293 65.6696C19.0975 65.311 18.9921 65.0292 18.8133 64.8242C18.6561 64.6374 18.3739 64.5119 17.9666 64.4477C17.5792 64.3817 17.0569 64.3779 16.3995 64.4364L12.8733 64.7497C11.7976 64.8453 10.8597 64.7981 10.0598 64.6082C9.25806 64.3983 8.62412 64.043 8.15798 63.5423C7.71175 63.0398 7.455 62.4101 7.38774 61.6531C7.31516 60.8363 7.45419 60.1412 7.80482 59.568C8.17361 58.973 8.70885 58.4435 9.41054 57.9796L11.653 58.4731C11.2143 58.7329 10.8769 59.0038 10.641 59.2858C10.4249 59.566 10.3346 59.9054 10.37 60.3038C10.4072 60.7222 10.5958 61.0367 10.9358 61.2474C11.2757 61.4582 11.7944 61.5326 12.4916 61.4706L17.3923 61.0351C19.0458 60.8882 20.3345 61.1552 21.2584 61.8361C22.2004 62.4953 22.7325 63.5122 22.8547 64.8868C22.9591 66.0621 22.7098 67.0983 22.1068 67.9952C21.5039 68.8921 20.5744 69.6172 19.3184 70.1705C18.0824 70.7221 16.538 71.0802 14.6853 71.2448ZM13.9878 58.9884C11.8163 59.1814 10.1321 58.8692 8.93508 58.052C7.73804 57.2347 7.06075 55.9396 6.9032 54.1666C6.74566 52.3936 7.18397 50.9993 8.21815 49.9838C9.25232 48.9682 10.8551 48.364 13.0266 48.1711C15.198 47.9781 16.8823 48.2903 18.0793 49.1075C19.2962 49.923 19.9835 51.2173 20.141 52.9903C20.2986 54.7633 19.8503 56.1584 18.7962 57.1757C17.762 58.1912 16.1592 58.7955 13.9878 58.9884ZM13.7568 56.3887C14.713 56.3037 15.4016 56.0317 15.8227 55.5726C16.2419 55.0936 16.4064 54.3461 16.3161 53.3301C16.2258 52.3141 15.9321 51.6074 15.435 51.2098C14.9378 50.8123 14.2112 50.656 13.2549 50.7409C12.3385 50.8224 11.6608 51.1035 11.2216 51.5842C10.8023 52.0632 10.6379 52.8107 10.7281 53.8267C10.8184 54.8427 11.1121 55.5495 11.6093 55.947C12.1246 56.3229 12.8404 56.4701 13.7568 56.3887ZM18.738 51.097L16.9683 49.146C17.1853 48.424 17.5576 47.8688 18.0853 47.4806C18.6329 47.0906 19.3052 46.8602 20.1021 46.7894C20.381 46.7646 20.6417 46.7615 20.8843 46.7801C21.1251 46.7788 21.3478 46.7992 21.5523 46.8412L21.3749 49.929C21.2319 49.9016 21.06 49.8868 20.859 49.8845C20.6779 49.8805 20.4977 49.8865 20.3184 49.9024C19.9599 49.9343 19.6382 50.0432 19.3536 50.2291C19.0888 50.4133 18.8836 50.7026 18.738 51.097ZM27.0523 47.2259L27.2222 49.1384C27.734 48.5709 28.2148 48.1065 28.6646 47.7453C29.1325 47.3623 29.6093 47.079 30.0949 46.8953C30.5987 46.6899 31.1295 46.5624 31.6873 46.5129C32.0459 46.481 32.4072 46.479 32.7711 46.5069C33.1531 46.5131 33.5288 46.5601 33.898 46.6478L33.5891 50.2894C33.2234 50.2416 32.8495 50.2145 32.4675 50.2083C32.1036 50.1804 31.7623 50.1806 31.4435 50.209C30.8658 50.2603 30.2779 50.423 29.6798 50.697C29.0817 50.971 28.4679 51.407 27.8384 52.0051L28.8474 63.3604L24.873 63.7135L23.4365 47.5472L27.0523 47.2259ZM34.9845 58.5684C34.896 57.5723 35.0136 56.7487 35.3372 56.0975C35.6591 55.4263 36.1925 54.877 36.9376 54.4493C37.7008 54 38.6613 53.6235 39.8189 53.3199C40.9948 52.9945 42.3742 52.7013 43.9573 52.4401L43.8245 50.946C43.7608 50.2288 43.445 49.7248 42.877 49.434C42.3072 49.1232 41.5144 49.0129 40.4984 49.1032C40.08 49.1404 39.6136 49.2019 39.0992 49.2877C38.5848 49.3736 38.0531 49.4911 37.5042 49.6403C36.9552 49.7895 36.3998 49.9794 35.8381 50.21L34.8693 47.1036C35.7428 46.7649 36.6704 46.4717 37.6524 46.2238C38.6542 45.9741 39.5934 45.8104 40.4699 45.7325C42.0437 45.5926 43.3572 45.6867 44.4104 46.0148C45.4618 46.323 46.2628 46.8642 46.8135 47.6385C47.3824 48.3911 47.7199 49.365 47.8261 50.5603L48.3997 57.0149C48.4492 57.5727 48.5625 57.9441 48.7396 58.1292C48.9167 58.3142 49.1248 58.3961 49.3638 58.3749C49.4634 58.366 49.5821 58.3455 49.7197 58.3131C49.8574 58.2808 49.9834 58.2295 50.0976 58.1591L50.6839 61.0285C50.3629 61.2578 49.9886 61.4517 49.5609 61.6101C49.1351 61.7885 48.6731 61.8999 48.1751 61.9441C47.3782 62.0149 46.7266 61.9122 46.2201 61.6359C45.7119 61.3398 45.3181 60.8627 45.0388 60.2049C44.5744 60.6276 44.0775 61.0232 43.548 61.3915C43.0167 61.7399 42.4395 62.0221 41.8161 62.2381C41.1946 62.474 40.4953 62.6265 39.7184 62.6956C39.061 62.754 38.4644 62.7066 37.9288 62.5534C37.3931 62.4002 36.9093 62.1521 36.4772 61.809C36.0633 61.4442 35.722 60.9926 35.4533 60.4543C35.2045 59.9142 35.0482 59.2855 34.9845 58.5684ZM38.9947 57.941C39.0567 58.6382 39.263 59.152 39.6136 59.4822C39.9823 59.7908 40.4456 59.9203 41.0034 59.8707C41.4218 59.8336 41.8339 59.7267 42.2399 59.55C42.6658 59.3717 43.0682 59.1552 43.4471 58.9006C43.8442 58.6244 44.178 58.3136 44.4485 57.9683L44.1538 54.6514C43.3007 54.7674 42.5408 54.9152 41.8741 55.0949C41.2273 55.2729 40.6737 55.4827 40.2133 55.7244C39.7728 55.9643 39.4481 56.2643 39.2391 56.6242C39.0302 56.9841 38.9487 57.423 38.9947 57.941ZM52.7235 42.6257C51.8868 42.7001 51.265 42.5947 50.8582 42.3096C50.4695 42.0028 50.2442 41.5007 50.1823 40.8035C50.1185 40.0863 50.2518 39.5524 50.5821 39.2018C50.9322 38.8494 51.5257 38.6361 52.3624 38.5617C53.1991 38.4874 53.8109 38.5936 54.1978 38.8805C54.6046 39.1656 54.8399 39.6668 54.9036 40.384C54.9656 41.0812 54.8224 41.616 54.474 41.9883C54.1437 42.3389 53.5602 42.5514 52.7235 42.6257ZM52.3624 61.2709L50.9259 45.1046L54.9002 44.7514L56.3367 60.9177L52.3624 61.2709ZM59.4536 60.6407L58.0171 44.4744L61.6328 44.1531L61.7576 45.5576C62.3814 45.1207 62.9815 44.7561 63.5579 44.464C64.1325 44.1519 64.7034 43.9104 65.2705 43.7396C65.8557 43.547 66.4771 43.4215 67.1345 43.3631C68.1704 43.271 69.0438 43.3842 69.7548 43.7025C70.4839 43.9991 71.0479 44.4711 71.4468 45.1183C71.8456 45.7655 72.0875 46.5673 72.1725 47.5235L73.2293 59.4166L69.255 59.7698L68.3097 49.1317C68.2353 48.295 67.9812 47.6952 67.5474 47.3321C67.1317 46.9474 66.5354 46.7896 65.7585 46.8586C65.36 46.894 64.976 46.9783 64.6063 47.1116C64.2349 47.2249 63.8661 47.3681 63.5 47.5412C63.1339 47.7143 62.7514 47.929 62.3525 48.1853L63.4279 60.2876L59.4536 60.6407ZM75.3678 58.5941L75.5857 55.6232C75.9549 55.7109 76.3639 55.795 76.8128 55.8756C77.26 55.9362 77.7261 55.9852 78.2113 56.0224C78.7164 56.0578 79.2098 56.0742 79.6915 56.0716C80.1731 56.0689 80.6231 56.049 81.0415 56.0118C81.9977 55.9269 82.6826 55.7255 83.0961 55.4076C83.5078 55.0698 83.688 54.6121 83.6366 54.0344C83.6083 53.7156 83.4948 53.4547 83.296 53.2514C83.1154 53.0266 82.8387 52.8503 82.466 52.7228C82.1114 52.5736 81.6689 52.4523 81.1385 52.3589C80.6263 52.2438 80.0345 52.1357 79.3629 52.0348C78.6515 51.9374 78.0253 51.7822 77.4843 51.5692C76.9416 51.3364 76.4641 51.0475 76.052 50.7026C75.6598 50.356 75.3519 49.9416 75.1283 49.4595C74.9247 48.9756 74.7946 48.4149 74.7379 47.7774C74.591 46.124 75.0174 44.8211 76.017 43.8689C77.0166 42.9167 78.5723 42.3467 80.684 42.1591C81.3414 42.1007 81.9625 42.0857 82.5473 42.114C83.1303 42.1224 83.6861 42.1634 84.2147 42.2369C84.7615 42.2887 85.261 42.3748 85.7135 42.4953L85.471 45.5286C85.0203 45.4281 84.5714 45.3475 84.1243 45.2869C83.6772 45.2262 83.192 45.189 82.6687 45.1753C82.1654 45.1598 81.595 45.1803 80.9575 45.237C80.1009 45.3131 79.4658 45.5101 79.0523 45.8279C78.637 46.1258 78.4533 46.5437 78.5011 47.0816C78.5294 47.4004 78.633 47.6622 78.8119 47.8672C78.9889 48.0523 79.2331 48.2012 79.5443 48.3141C79.8555 48.427 80.2356 48.5238 80.6845 48.6044C81.1333 48.6849 81.632 48.7611 82.1805 48.8328C82.9336 48.9466 83.6204 49.1065 84.2411 49.3123C84.86 49.4983 85.3945 49.752 85.8447 50.0734C86.3149 50.393 86.6942 50.8211 86.9829 51.3577C87.2896 51.8726 87.4776 52.5185 87.5466 53.2954C87.6121 54.0325 87.551 54.7005 87.3633 55.2995C87.1937 55.8768 86.9174 56.3832 86.5345 56.8188C86.1515 57.2544 85.6927 57.6265 85.1579 57.935C84.6213 58.2237 84.0197 58.4578 83.353 58.6375C82.6863 58.8173 81.9843 58.9399 81.2473 59.0054C80.5301 59.0691 79.8392 59.0903 79.1748 59.0691C78.512 59.0677 77.8557 59.0256 77.2059 58.9428C76.5759 58.8583 75.9632 58.742 75.3678 58.5941Z" fill="#FFF0E0"/>
</svg>
